<?xml version="1.0" encoding="utf-8" ?>
<svg baseProfile="full" height="300mm" version="1.1" viewBox="0,0,200,300" width="200mm" xmlns="http://www.w3.org/2000/svg" xmlns:ev="http://www.w3.org/2001/xml-events" xmlns:xlink="http://www.w3.org/1999/xlink"><defs /><rect fill="#222222" height="300" width="200" x="0" y="0" /><text fill="#FFFFFF" style="font-size:12px; font-family:Arial; font-weight:bold;" x="10" y="20">Over 3km Runs</text><text fill="#FFFFFF" style="font-size:4px; font-family:Arial" x="10" y="280">ATHLETE</text><text fill="#FFFFFF" style="font-size:9px; font-family:Arial" x="10" y="290">litianc</text><text fill="#FFFFFF" style="font-size:4px; font-family:Arial" x="120" y="280">STATISTICS</text><text fill="#FFFFFF" style="font-size:3px; font-family:Arial" x="120" y="285">Number: 2</text><text fill="#FFFFFF" style="font-size:3px; font-family:Arial" x="120" y="290">Weekly: 2.0</text><text fill="#FFFFFF" style="font-size:3px; font-family:Arial" x="141" y="285">Total: 9.7 km</text><text fill="#FFFFFF" style="font-size:3px; font-family:Arial" x="141" y="290">Avg: 4.9 km</text><text fill="#FFFFFF" style="font-size:3px; font-family:Arial" x="167" y="285">Min: 4.9 km</text><text fill="#FFFFFF" style="font-size:3px; font-family:Arial" x="167" y="290">Max: 4.9 km</text><polyline fill="none" points="154.0,111.82670425914694 153.39552238816395,111.69522445113398 148.55970149254426,111.82670425914694 146.74626865703613,111.0378251215443 146.84701492497697,110.64338529325323 147.3507462684065,110.24894529132871 151.07835820922628,108.53970328287687 152.28731343289837,107.7508212592802 153.09328358247876,106.83045802230481 154.0,104.85824791144114 153.79850746272132,101.30825880088378 152.38805970130488,95.39157910842914 151.78358208946884,92.23600067157531 150.77611940260977,88.94892801332753 149.06343283550814,85.66184332646662 148.4589552236721,84.0840384044568 146.3432835820131,80.27099840249866 144.73134328378364,77.64130621234654 143.11940298462287,75.80051709874533 141.30597014911473,73.17081182153197 136.16791044780985,68.04286438878626 133.75,65.93908261496108 123.97761194035411,58.83878275216557 122.76865671621636,58.31283238163451 118.33582089561969,57.2609307168168 115.61567164165899,56.34051574958721 113.29850746272132,55.94605190330185 111.08208955219015,55.288611774507444 109.77238805964589,54.49968298530439 108.5634328359738,53.053311738651246 107.85820895526558,52.52735798060894 105.94402985088527,52.264380986394826 103.6268656719476,52.395869493018836 102.7201492539607,52.65884644910693 101.20895522367209,53.84224179846933 98.69029850745574,55.02563558873953 93.25,54.89414746692637 85.39179104473442,56.34051574958721 83.3768656719476,56.99795510788681 79.64925373159349,58.83878275216557 76.92910447763279,59.75919515971327 74.20895522367209,60.94258115498815 67.86194029822946,65.15016317961272 65.04104477586225,67.38543311378453 60.4067164179869,71.85595629602904 56.880597015377134,76.06348720280221 55.57089552236721,78.56169935443904 51.64179104473442,84.60997368680546 49.12313432851806,91.05265590001363 47.61194029869512,95.52306130289799 47.10820895526558,98.94159160007257 46.402985074557364,101.70270272833295 46.0,104.9897287201602 46.10074626840651,109.19710444047814 46.604477611836046,110.38042531133397 47.91417910484597,111.56374462350504 50.13059701491147,112.08966381737264 53.95895522413775,112.48410301096737 55.36940298508853,112.61558270384558 56.880597015377134,112.3526232992881 58.59328358247876,112.3526232992881 63.1268656719476,112.8785420312197 64.4365671640262,114.06185805314453 69.27238805964589,120.24137195455842 71.79104477632791,123.00241761811776 74.51119402982295,124.97458789654775 76.72761193988845,126.15788798575522 80.6567164179869,127.47266403469257 82.87313432851806,127.73561901360517 88.91791044780985,127.34118651639437 91.53731343289837,126.94675384595757 93.45149253727868,126.55232100258581 95.86940298508853,125.63197702763136 98.28731343289837,124.05424230534118 101.91417910484597,121.2931998744607 103.6268656719476,119.32102151424624 104.23134328331798,118.13771241949871 105.74253731360659,116.82292270893231 108.76492537325248,115.63961032370571 112.39179104473442,115.37665180466138 117.42910447763279,115.50813107384602 120.95522388070822,115.11369320820086 127.70522388070822,115.24517251621 130.12313432851806,114.85073453484802 131.83582089515403,114.06185805314453 137.27611940307543,109.32858461403521 138.48507462674752,109.06562424753793 142.01119402982295,109.06562424753793 144.73134328378364,108.93414403527277 146.04104477586225,108.67118355294224 148.55970149254426,108.67118355294224 150.57462686579674,108.4082229937776 151.38059701491147,108.27674268558621 152.38805970130488,107.88230164488778 153.1940298504196,106.83045802230481 153.49626865657046,106.43601634685183 153.79850746272132,104.85824791144114 153.6977611943148,100.91381470049964 152.9925373136066,97.6267737945891 152.28731343289837,95.65454347775085 152.0858208956197,94.07675610668957 150.77611940260977,89.47486044664402 149.365671641659,85.92481054412201 147.45149253727868,82.37474661209853 144.93283582106233,78.16724526614416 142.31343283550814,74.74863591149915 136.77238805918023,68.43732292257482 131.63432835787535,64.22975629550638 128.30970149254426,62.52042672398966 125.08582089561969,59.75919515971327 124.17910447763279,59.10175782209262 119.74626865703613,58.18134474102408 111.58582089561969,55.288611774507444 110.3768656719476,54.76265932555543 108.5634328359738,52.9218233282445 107.25373134296387,52.395869493018836 103.32462686579674,52.52735798060894 100.9067164179869,54.105218331038486 99.19402985041961,54.49968298530439 98.69029850745574,54.76265932555543 91.0335820899345,55.157123691169545 88.81716417893767,55.55158788402332 84.08208955219015,56.86646727460902 75.01492537325248,60.67960662418045 67.45895522413775,65.28164980013389 63.32835820876062,68.43732292257482 60.104477611836046,71.85595629602904 56.880597015377134,75.80051709874533 51.94402985088527,84.21552225400228 50.231343283783644,87.89706222177483 47.410447761416435,97.10084613319486 46.70522388070822,100.25640748121077 46.0,105.38417103118263 46.0,108.67118355294224 46.20149253727868,109.72302502003731 46.70522388070822,110.51190531178145 48.01492537278682,111.43226477719145 50.63432835787535,112.3526232992881 53.75746268639341,112.7470623771078 59.39925373159349,112.48410301096737 61.51492537325248,112.61558270384558 63.5298507460393,113.14150128210895 65.3432835820131,114.45629638031824 65.94776119384915,115.11369320820086 67.05597014911473,117.34883882384747 68.86940298508853,120.1098933776957 69.8768656719476,121.42467827757355 73.90671641752124,124.71163210988743 77.9365671640262,126.55232100258581 80.95895522413775,127.47266403469257 83.27611940307543,127.73561901360517 86.80223880615085,127.73561901360517 89.72388059692457,127.60414153360762 93.14925373112783,126.94675384595757 95.16417910484597,126.15788798575522 97.07835820922628,124.71163210988743 99.49626865657046,123.26537390518934 101.00746268639341,122.08207000640687 104.13059701491147,118.26919128448935 105.8432835820131,116.9544017664739 107.35447761183605,116.03404795879032 113.90298507455736,115.50813107384602 124.58208955219015,115.37665180466138 127.40298507455736,114.98221388139063" stroke="#ffff00" stroke-linecap="round" stroke-linejoin="round" stroke-width="0.5"><title>2023-05-14 4.9km</title></polyline><polyline fill="none" points="150.07821229007095,232.37661256745923 149.6759776538238,231.9829080705531 148.67039106134325,232.1141429222189 147.46368715027347,231.9829080705531 145.8547486034222,230.5393234359799 145.65363128483295,230.0143829927547 146.15642458107322,229.48944224213483 148.16759776510298,229.22697175183566 151.58659217879176,228.4395598191768 153.1955307261087,227.25844062375836 154.0,225.68361260992242 154.0,224.76496165792923 153.49720670329407,222.5339482841664 153.39664804469794,221.2215848834021 150.48044692724943,209.93518034456065 149.4748603347689,206.91669923911104 144.2458100556396,197.72995508881286 142.53631284926087,196.15507521218387 141.63128491630778,194.71143289480824 137.20670391060412,189.46180487552192 134.99441340798512,187.4931864439859 133.38547486020252,186.04953018052038 126.54748603329062,181.718547443219 124.83798882644624,180.27488188189454 121.92178770946339,178.56872867635684 119.50837988825515,178.04375780606642 113.57541899429634,176.07511430460727 110.45810055872425,175.28765569376992 109.15083798859268,174.6314396566013 107.54189944127575,172.53154510981403 106.23463687114418,172.26905794552295 102.4134078216739,172.66278866288485 100.10055865906179,174.36895310709951 98.49162011174485,174.76268290227745 90.44692737422884,174.76268290227745 85.01675977697596,176.20635733933887 82.70391061482951,176.20635733933887 82.8044692738913,175.9438712510746 82.30167597811669,175.9438712510746 80.39106145268306,176.8625722239376 81.29608938517049,176.3376003546291 82.10055865906179,176.20635733933887 82.30167597811669,176.9938151430688 82.0,177.65002945129527 81.49720670422539,178.04375780606642 80.39106145268306,178.17500055226265 78.78212290490046,178.83121399598895 72.9497206704691,181.58730521565303 70.73743016738445,183.03096866380656 69.43016759771854,184.0809042569017 66.51396648073569,185.91828858689405 65.00558659201488,187.4931864439859 61.68715083831921,190.24925103760324 59.07262569852173,193.0053071596776 56.96089385449886,195.76135481067467 55.050279329996556,197.86119495355524 53.843575418926775,199.82979062153026 52.83798882737756,201.7983819671208 51.73184357536957,204.68564145616256 49.8212290504016,208.3603219052893 48.212290502619,213.74107682035537 47.50837988825515,215.57840037177084 46.80446927435696,218.46561548905447 46.70391061482951,220.30292935977923 46.20111731858924,222.66518451855518 46.0,225.28990517399507 46.0,229.22697175183566 46.50279329624027,230.1456181325484 47.50837988825515,230.9330285671167 49.11731843603775,231.58920340059558 53.944134078454226,232.5078473611502 60.9832402234897,232.5078473611502 62.79329608939588,232.77031689177966 64.60335195530206,234.08266339002876 65.30726256966591,234.87007036741124 66.41340782120824,236.83858478500042 68.82681564288214,240.1194325449178 71.34078212315217,243.00656864407938 76.26815642463043,246.02492826321395 79.787709497381,247.4684879675042 81.89944134093821,247.8621856655227 84.212290502619,247.8621856655227 85.72067039087415,247.59972055297112 89.44134078221396,247.59972055297112 93.1620111730881,246.54985933355056 96.48044692724943,244.84383223106852 100.70391061436385,241.95670204702765 102.4134078216739,240.3818998472998 104.02234636852518,237.88845737441443 105.32960893819109,236.70735062519088 107.13966480456293,235.91994526126655 108.54748603329062,235.52624232013477 113.37430167617276,235.52624232013477 115.68715083785355,235.26377359649632 125.94413407798856,235.26377359649632 128.05586592154577,235.132539205777 130.5698324018158,234.4763669653912 132.17877095006406,233.5577250213828 135.0949720670469,231.06426357204327 135.69832402234897,230.40808835421922 137.3072625696659,229.62067745870445 143.24022346362472,229.48944224213483 148.97206703899428,228.83326587168267 151.6871508383192,228.17708902113372 152.79329608939588,227.52091169042978 153.1955307261087,226.9959694800782 153.49720670329407,226.33979128487408 153.69832402234897,225.42114100488834 152.79329608939588,221.2215848834021 152.3910614522174,217.4157201583148 151.18435754207894,212.82241363293724 148.97206703899428,206.52298356336541 146.05586592154577,200.74846712080762 144.64804469281808,198.5173939897213 142.03351955255494,195.1051537572057 141.2290502791293,193.66150975006167 139.9217877094634,192.0866227269289 136.30167597765103,188.67435802158434 129.9664804469794,183.55593661399325 128.05586592154577,182.24351616197964 122.92737430147827,179.48742695973488 119.81005586590618,178.30624327925034 118.0,177.38754378561862 114.37988826772198,176.3376003546291 111.76536312839016,175.81262817780953 110.15642458107322,175.15641252486967 108.74860335234553,174.23770980379777 107.94413407798856,172.79403219697997 107.3407821226865,172.40030153741827 106.43575418973342,172.1378143345355 102.81564245792106,172.40030153741827 101.91061452496797,172.79403219697997 101.00558659201488,173.71273639751598 99.29608938610181,174.5001963916584 97.58659217879176,174.76268290227745 95.3743016757071,174.23770980379777 90.34636871516705,174.8939261288033 86.62569832382724,175.81262817780953 79.38547486066818,178.04375780606642 71.24022346362472,182.3747582938522 69.83240223443136,183.29345267743338 65.91061452543363,186.04953018052038 61.48603351972997,189.98676906060427 58.167597765568644,193.66150975006167 56.558659217786044,196.54879544029245 55.553072625771165,197.5987152045127 53.642458100803196,200.35474873607745 51.32960893865675,204.2919248008402 49.92178770946339,207.83536847733194 49.62011173227802,209.0165132577531 48.212290502619,212.55993826355552 46.70391061482951,219.64674626663327 46.30167597765103,222.27147575770505 46.10055865952745,226.07731987250736 46.20111731858924,228.4395598191768 46.40223463717848,229.35820700664772 47.4078212287277,230.67055849859025 48.31284916168079,231.19549855828518 52.53631284926087,232.37661256745923 56.860335195437074,232.63908213633113 58.56983240228146,232.5078473611502 61.98882681550458,232.5078473611502 62.99441340798512,232.77031689177966 65.40782122919336,234.60760145174572 67.5195530722849,238.67586100974586 71.44134078267962,242.61286881449632 76.36871508369222,245.89369544771034 79.28491620114073,247.20602273981785 81.69832402234897,247.7309531189385 89.3407821226865,247.20602273981785 92.4581005582586,246.28739383653738 94.97206703899428,244.84383223106852 96.3798882686533,244.5813662346918 97.28491620114073,244.05643401190173 97.98882681550458,243.26903510151897 98.69273743033409,243.00656864407938 102.4134078216739,239.85696516616736 103.21787709509954,238.41339320817497 104.42458100570366,237.10105304798344 106.63687150832266,235.7887109668227 108.44692737422884,235.39500796818174 110.6592178773135,235.39500796818174 115.38547486020252,235.00130479619838 121.01675977697596,235.00130479619838 124.13407821254805,234.73883591929916" stroke="#ff0000" stroke-linecap="round" stroke-linejoin="round" stroke-width="0.5"><title>2023-05-11 4.9km</title></polyline></svg>