<?xml version="1.0" encoding="utf-8" ?>
<svg baseProfile="full" height="300mm" version="1.1" viewBox="0,0,200,300" width="200mm" xmlns="http://www.w3.org/2000/svg" xmlns:ev="http://www.w3.org/2001/xml-events" xmlns:xlink="http://www.w3.org/1999/xlink"><defs /><rect fill="#222222" height="300" width="200" x="0" y="0" /><text fill="#FFFFFF" style="font-size:12px; font-family:Arial; font-weight:bold;" x="10" y="20">Over 3km Runs</text><text fill="#FFFFFF" style="font-size:4px; font-family:Arial" x="10" y="280">ATHLETE</text><text fill="#FFFFFF" style="font-size:9px; font-family:Arial" x="10" y="290">litianc</text><text fill="#FFFFFF" style="font-size:4px; font-family:Arial" x="120" y="280">STATISTICS</text><text fill="#FFFFFF" style="font-size:3px; font-family:Arial" x="120" y="285">Number: 9</text><text fill="#FFFFFF" style="font-size:3px; font-family:Arial" x="120" y="290">Weekly: 1.8</text><text fill="#FFFFFF" style="font-size:3px; font-family:Arial" x="141" y="285">Total: 38.9 km</text><text fill="#FFFFFF" style="font-size:3px; font-family:Arial" x="141" y="290">Avg: 4.3 km</text><text fill="#FFFFFF" style="font-size:3px; font-family:Arial" x="167" y="285">Min: 3.0 km</text><text fill="#FFFFFF" style="font-size:3px; font-family:Arial" x="167" y="290">Max: 5.1 km</text><polyline fill="none" points="67.0,62.671940587984864 66.53358925133944,61.45452932937769 65.91170825343579,58.95206278067781 65.34165067155845,57.80227630925947 63.42418426112272,55.02925010758918 63.216890594922006,54.28526463659364 62.38771593105048,52.66201945155626 61.19577735103667,51.715123793663224 57.98272552783601,48.6715174652345 57.15355086373165,48.06279379388434 56.531669865362346,47.52170541288797 54.51055662194267,46.101345397968544 52.43761996156536,45.15443629559013 50.831094049848616,44.27516182028921 50.00191938574426,44.072252088401 48.91362763918005,43.59879570067278 45.70057581574656,42.71951826525037 45.23416506731883,42.31369734622422 44.45681381947361,41.02859541735961 44.042226487537846,40.893321322102565 43.42034548940137,40.893321322102565 41.96928982716054,41.096232449956005 40.98464491334744,41.84023915647413 40.362763915676624,42.17842362707597 39.378119001863524,42.24606049142312 38.341650671791285,42.4489710253838 37.357005757978186,42.38133419075166 35.024952015373856,42.65188147002482 33.781190019100904,42.92242859129328 31.760076775448397,43.53115903431899 29.73896353179589,44.74861751499702 27.458733205217868,45.289709143311484 26.007677543209866,46.37189049922745 24.0902111325413,47.58934149515699 21.654510556487367,49.82132665676181 19.996161228511482,51.715123793663224 19.011516314698383,52.32384265377186 18.285988483577967,53.06783128238749 18.026871401118115,53.608913169271545 17.56046065245755,54.149994422419695 16.3685220729094,56.449582679982996 15.953934740973637,57.125929989502765 15.22840690985322,59.22260035821819 14.865642994176596,60.10184639139334 14.347408829256892,62.2661371914146 14.036468330072239,62.87484215263976 13.880998080596328,63.75408123640227 13.570057581411675,64.36278423765907 13.310940498951823,65.91835493108374 13.0,67.13575442979345 13.310940498951823,70.04397358352435 13.518234165152535,70.5174028762849 14.08829174656421,70.9231990269327 14.606525911716744,71.19372959609609 15.539347408805043,71.26136221378692 17.66410748567432,71.39662741898792 19.063339731190354,71.32899482134962 20.203454894479364,71.46426000676001 21.239923224551603,71.46426000676001 21.96545105567202,71.66715771096642 22.690978886792436,72.34348274787772 23.00191938574426,73.22270381622366 23.675623800372705,74.16955540355411 25.023032629396766,75.38693316528224 27.044145873282105,76.94246674948954 28.9097888674587,78.02457398065599 32.744721689028665,79.10667867789743 33.57389635313302,79.10667867789743 36.32053742790595,78.70088971333462 37.305182341719046,78.36273197084665 38.4971209212672,77.82167906765244 39.84452975052409,76.94246674948954 41.03646833007224,75.92798891890561 41.606525911716744,75.18403709461563 42.07293666014448,74.91350886126747 43.26487523992546,73.76376210385934 44.71593090216629,73.01980679514236 45.90786948171444,72.95217443507863 48.91362763918005,73.01980679514236 49.690978886792436,72.81690968482872 50.675623800372705,72.88454206488677 51.24568138178438,73.01980679514236 53.16314779268578,72.81690968482872 54.82149712089449,72.54638006613823" stroke="#ffff00" stroke-linecap="round" stroke-linejoin="round" stroke-width="0.5"><title>2024-05-16 3.0km</title></polyline><polyline fill="none" points="127.0,62.128826917440165 126.53403643355705,61.04771968201385 126.22339405561797,59.89904047001619 125.18791946326382,58.074661729391664 124.82550335605629,56.79083533096127 124.3595397893805,55.91242573791533 122.39213806344196,53.47989814213361 121.09779482265003,52.19605896549183 119.80345158209093,51.250069919158705 117.47363374871202,49.22294400652754 115.29913710453548,46.79038116123411 114.52253116015345,46.317381341708824 112.9693192713894,45.709238004346844 111.41610738239251,44.83080732502276 109.91466922336258,44.22266202920582 107.89549376792274,43.546944094327046 105.92809204221703,43.07394095158088 105.61744966451079,42.8712251704128 104.68552253115922,41.519784355245065 104.21955896448344,41.18192353329505 103.49472674983554,40.979206921270816 102.0450623203069,40.911634697549744 101.6826462126337,41.11435133925988 101.00958772771992,41.722500729811145 100.44007670180872,41.99278909052373 97.90316395019181,42.19550525749219 95.26270373933949,42.60093732387759 93.96836049878038,42.93879710746114 92.62224352825433,43.61451593239326 91.58676893590018,43.68208776044776 91.06903163925745,43.88480318553047 89.93000958766788,44.62809231528081 88.1179290509317,45.371380248630885 86.66826462117024,46.249809899396496 86.09875359525904,46.45252419656026 85.63279002858326,46.655238405102864 83.14765100670047,48.68237559302361 82.68168744002469,48.95265987890889 81.80153403640725,50.1689372069377 79.21284755528904,53.142046073509846 77.76318312529474,55.101584630290745 77.03835091087967,55.844855699979234 75.9511025887914,57.39896407001652 75.74400767008774,58.074661729391664 74.91562799597159,60.03417934910976 74.55321188853122,61.18285822457983 73.93192713311873,62.6018105368712 73.62128475517966,63.54777632193873 73.1553211887367,65.7099765521416 73.0,69.22353032813407 73.10354745900258,69.96677866188111 73.36241610720754,70.50732215293101 73.82837967388332,71.04786501111812 74.44966442929581,71.31813620292814 77.55608820705675,71.52083949290682 81.38734419946559,71.18300062682829 81.74976030667312,71.31813620292814 82.16395014361478,71.58840723641333 82.62991371029057,72.12894882902037 83.40651965467259,73.75056980887894 83.87248322134838,74.4262435361743 84.85618408443406,75.37218509294325 85.37392138061114,76.04785644682124 85.7881112175528,76.8586607661855 86.56471716193482,77.53432994472678 88.48034515813924,78.41269839846063 90.5512943433132,79.02079865662381 91.69031639490277,79.08836530247936 95.41802492807619,78.75053197404486 96.660594439134,78.34513165347744 99.19750719075091,77.3316292949894 100.54362416104414,77.06136162369512 101.00958772771992,76.723526812013 102.0450623203069,75.16948349383892 103.02876318292692,74.02083941845922 103.54650047956966,73.61543494474608 104.53020134218968,73.14246260887012 106.18696069042198,72.93976003080024 107.37775647174567,73.14246260887012 107.89549376792274,73.41273257427383 108.3096836048644,73.48030004103202 109.08628954924643,73.277597611479 109.65580057515763,73.34516509782407 110.95014381594956,73.14246260887012 111.57142857136205,73.277597611479 111.98561840853654,73.277597611479 113.38350910833105,73.00732756676734 115.19558964530006,72.53435460777837 116.43815915612504,72.39921938779298 116.74880153406411,72.46678700268967 117.11121764150448,72.26408412808087 118.4573346117977,70.77759366112878 118.97507190797478,70.30461841789656 119.5963566636201,69.96677866188111 120.42473633773625,69.83164269014378" stroke="#ffff00" stroke-linecap="round" stroke-linejoin="round" stroke-width="0.5"><title>2024-05-15 3.0km</title></polyline><polyline fill="none" points="184.31267605605535,59.66952799409046 183.95774647872895,58.80926974347676 183.65352112660185,58.412226921791444 181.7267605632078,54.83882583657396 180.66197183099575,53.647685865085805 180.10422535194084,53.118289314734284 178.73521126736887,51.72862042111228 177.51830985909328,50.0742471209378 174.0197183098644,47.758114330412354 172.3464788729325,46.500780131987995 170.4704225352034,45.640496823820285 167.42816901393235,44.38315673620673 167.6309859151952,44.25080494442955 166.76901408447884,43.58904540532967 166.21126760565676,42.86110879346961 165.09577464754693,42.26552342099603 163.92957746470347,41.27287939010421 163.21971830981784,41.074350322189275 161.74929577461444,41.47140837053303 161.03943661949597,42.26552342099603 160.48169014090672,42.6625804232026 159.6197183097247,42.92728489736328 158.90985915483907,42.99346099185641 157.28732394357212,42.728756556258304 156.5267605634872,42.99346099185641 154.75211267592385,43.05963707668707 153.94084507017396,43.39051735465182 152.11549295764416,43.72139739067643 151.1014084503986,43.39051735465182 151.1014084503986,42.99346099185641 151.25352112669498,43.25816527256393 151.45633802819066,43.39051735465182 151.55774647882208,43.25816527256393 151.76056338008493,43.25816527256393 150.89859154913574,43.52286939823534 152.11549295764416,42.53022812772542 151.55774647882208,42.46405196559499 151.35492957709357,42.59640428048442 150.64507042220794,43.91992529595154 150.44225352117792,44.18462903419277 149.17464788723737,44.84638770160382 145.77746478863992,46.43460455109016 144.76338028162718,47.09635992516996 142.63380281673744,48.883094596501905 139.99718309845775,51.66244560526684 138.78028168994933,53.44916223126347 138.0704225350637,54.243256243062206 137.51267605624162,54.97117452856037 136.95492957741953,55.56674316313001 136.19436619686894,56.8902262088086 134.318309858907,62.18411964914412 133.86197183071636,63.77227559397579 133.60845070402138,65.09573461976834 133.50704225338995,66.28684443069506 133.25352112669498,67.14708845378482 133.15211267583072,68.13967567737564 133.0,68.93374388717348 133.10140845063142,69.52929412937374 133.6591549294535,70.12484358705115 134.67323943646625,70.6542202240671 137.30985915474594,71.11742427322315 140.4535211266484,71.18359624157893 141.92394366208464,71.44828401785344 142.63380281673744,71.97765910538146 143.4450704222545,73.2349224545178 145.3211267606821,75.41858206715551 145.87887323927134,75.88178123542457 148.1098591547925,77.33754696004326 150.08732394338585,78.06542806475773 150.54366197180934,78.39628272512346 151.45633802819066,78.66096627886873 153.433802816784,78.92564967781072 155.30985915474594,78.52862452124828 156.93239436624572,78.06542806475773 159.41690140822902,76.74200700287474 160.63380281673744,75.81560995458858 161.6985915491823,74.69069670152385 162.35774647863582,73.8304670311918 163.27042253501713,73.10257910873042 163.77746478863992,72.83789230088587 170.82535211276263,72.24234641698422 172.3464788729325,72.37469001440331 173.00563380285166,72.17617460360634 175.28732394357212,71.9114872534119 175.89577464782633,71.6467997484433 177.0112676054705,70.91890831050114 178.58309859130532,69.5954663300945 179.29295774619095,69.46312191901961 181.82816901407205,69.5954663300945 182.8929577465169,69.3307774690038 185.3267605630681,69.26460522960406 186.03661971818656,69.06608845319715 186.6957746478729,68.33819286047947 187.0,67.61029609592515 186.94929577433504,67.01474332602811 186.49295774614438,64.36783263503457 185.884507042123,61.65473309461959 185.884507042123,61.05917247972684 185.52957746456377,60.331263996165944 184.4140845069196,56.69170399886207 182.84225352085195,54.11090733794845 181.4732394365128,52.58889214458759 179.901408450678,50.603647235868266 178.73521126736887,49.611021512100706 176.1492957745213,47.62576352703036 174.88169014058076,47.030184431234375 173.81690140836872,46.16990213046665 172.2450704225339,45.243442437029444 169.86197183071636,44.25080494442955 168.7464788730722,43.91992529595154 167.5802816899959,43.32434131836635 165.5014084505383,42.86110879346961 164.6394366195891,42.26552342099603 164.0816901405342,41.27287939010421 163.62535211257637,41.140526687784586 162.96619718289003,41.140526687784586 161.54647887311876,41.33905572659569 160.53239436610602,42.199347220157506 159.9239436618518,42.46405196559499 158.40281690121628,42.53022812772542 157.8957746475935,42.39787579383119 154.85352112655528,42.86110879346961 152.5211267604027,43.65522140279063 150.89859154913574,44.118453114293516 147.09577464777976,46.03755086174351 144.96619718289003,47.4272372488922 143.80000000004657,48.022815821314 143.29295774619095,48.48604305743356 142.43098591524176,48.883094596501905 141.7718309860211,49.611021512100706 141.0112676054705,50.140422169381054 140.1492957745213,51.0668718276429 138.983098591445,52.258018598513445 138.52676056325436,52.91976544869249 137.91830985900015,54.243256243062206 136.14366197190247,57.08874833147274 135.53521126764826,58.54457456775708 134.67323943646625,60.92682556970976 134.1661971830763,62.647332375956466" stroke="#ff8300" stroke-linecap="round" stroke-linejoin="round" stroke-width="0.5"><title>2023-07-16 4.0km</title></polyline><polyline fill="none" points="64.87042253511027,148.97470591051388 64.61690140841529,148.18062049982836 63.907042253762484,146.7247936242784 62.13239436619915,143.81312580953818 61.11830985918641,142.62198357156012 60.76338028162718,141.8940617700573 59.95211267611012,140.8352643304097 57.67042253515683,138.7176620119426 54.42535211262293,136.46769868052797 54.0197183098644,136.07064516551327 53.360563380178064,135.8721182771551 52.60000000009313,135.40888853228535 51.43380281678401,135.07800985244103 48.54366197180934,133.88684459988144 45.653521126834676,132.89420449209865 44.89295774628408,132.364795543137 44.335211267462,131.43832839108654 43.98028168990277,131.1074468055158 43.219718309585005,131.0412704591581 42.45915492950007,131.0412704591581 41.24225352075882,131.37215209339047 40.380281690042466,131.96773842483526 38.45352112688124,132.23244320927188 37.33802816900425,132.23244320927188 35.309859154745936,132.8280284072971 32.723943661898375,133.2250847700634 28.667605633614585,134.54860346089117 27.247887323610485,135.34271281567635 25.574647887144238,136.60004977471544 24.10422535194084,137.59268174585304 23.0901408449281,138.58531153769582 21.112676056101918,139.9088145364076 20.402816901216283,140.6367395342677 19.135211267508566,141.62936264264863 18.27323943632655,142.88668211799813 17.46197183080949,144.3425213523442 14.8253521125298,150.56287254800554 14.41971830977127,151.09226018746267 13.811267605284229,152.61424619788886 13.709859154885635,153.47449689384666 13.456338028190657,154.4009188899363 13.507042253157124,155.06264772481518 13.202816901030019,158.30510501630488 13.253521126462147,158.90065586869605 13.507042253157124,159.89323887930368 13.963380281347781,160.2902714734082 14.521126760169864,160.62113170232624 17.46197183080949,161.28285143338144 20.554929577279836,160.88581971084932 21.569014084059745,160.95199168875115 22.228169013978913,161.28285143338144 22.583098591305315,161.7460546689399 23.597183098550886,163.79737757949624 24.10422535194084,164.52526411705185 25.371830985648558,165.9148624347872 26.53802816872485,166.8412589408399 27.704225352033973,167.63531157796388 28.464788732351735,168.03233737350092 30.087323943618685,168.49553369442583 31.709859154652804,168.6940462582279 33.58591549261473,168.5617045587569 35.00563380261883,168.36319193680538 37.388732394203544,167.63531157796388 38.352112675784156,167.17211437560036 39.06197183090262,166.64274556352757 39.569014084525406,166.37806092514074 40.583098591538146,165.51783477995195 41.0901408449281,164.98846403084463 41.90140845067799,163.6650344467489 42.25633802800439,163.33417644543806 43.828169014072046,162.34160098881694 44.74084507022053,162.54011625456042 45.39999999990687,162.47394450893626 47.478873239364475,162.60628799034748 48.39154929574579,162.34160098881694 50.62253521126695,162.40777275385335 52.752112675923854,162.07691383251222 55.03380281687714,162.07691383251222 55.540845070267096,161.9445701961522 56.09859154908918,161.54753905473626 56.960563380271196,160.62113170232624 58.27887323941104,159.4300337456225 59.69859154941514,159.36386154490174 60.96619718312286,159.56237811784376 62.2845070422627,159.2976893345185 64.41408450691961,159.36386154490174 65.37746478873305,159.1653448845318 66.03661971818656,158.96682813731604 66.54366197157651,158.56979438100825 66.89859154936858,157.90807067905553 67.0,157.44486351145315 66.89859154936858,155.59203009540215 66.49295774661005,153.87153512437362 65.58028169022873,150.89373989522574 63.907042253762484,146.7247936242784 62.48732394352555,144.60721889141132 62.030985915334895,143.68077682697913 60.814084507059306,142.35728487026063 59.90140845044516,140.8352643304097 59.34366197162308,140.2396896808059 58.583098591538146,139.57793915006914 57.771830985788256,138.7176620119426 56.352112676016986,137.72503251073067 55.185915492940694,137.06327829911606 53.360563380178064,135.739766970044 51.332394366152585,134.74713093051105 50.06478873244487,134.41625176629168 48.74647887307219,133.82066866056994 45.39999999990687,132.89420449209865 44.690140845254064,132.430971695896 43.92957746470347,131.30597578597371 43.57464788714424,131.17362314200727 41.597183098550886,131.30597578597371 40.48169014044106,132.0339146355982 39.366197183029726,132.23244320927188 39.06197183090262,132.49714783861418 38.70704225334339,132.5633239716699 38.352112675784156,132.62950009517954 37.591549295699224,132.364795543137 36.0704225350637,132.5633239716699 30.695774647640064,133.68831675255205 27.34929577447474,135.34271281567635 25.676056337775663,136.60004977471544 24.814084506826475,137.39415552600985 23.799999999813735,138.12208457256202 23.039436619495973,138.3867857537116 22.126760563114658,139.11471320223063 19.84507042216137,141.16613879657234 18.729577464517206,142.55580891075078 18.22253521112725,143.28372964673326 17.411267605610192,145.20278778744978 16.143661971669644,146.85714171564905 15.788732394110411,147.51888159217197 15.028169013792649,149.96731071258546 14.723943661898375,150.69521951593924 14.521126760169864,151.62164720674627 13.963380281347781,152.41572657390498 13.40563380275853,154.20240005053347 13.0,156.7169655749458 13.050704224966466,158.50362205432612 13.202816901030019,159.2315171143564 13.507042253157124,159.89323887930368 13.963380281347781,160.35644353862153 14.926760563161224,160.88581971084932 16.04225352103822,161.15050756459823 17.46197183080949,161.28285143338144 20.90985915483907,161.21667950390838 21.822535211220384,161.41519526325283 22.88732394343242,162.54011625456042 23.546478873118758,163.46651967492653 24.002816901309416,164.45909266200033 24.763380281627178,165.31932082158164 27.856338028097525,167.43679854928632 30.036619717953727,168.5617045587569 30.847887323703617,168.8263879189908 31.861971830716357,168.9587295408419 32.723943661898375,168.89255873468937 34.752112675923854,168.6278754133673 36.171830985695124,168.2970210436033 36.83098591538146,168.03233737350092 37.64225352113135,167.50296956853708 38.80845070397481,167.03977223069523 39.670422534924,166.31188974127872 40.27887323941104,166.1133761315432 40.63380281673744,165.9148624347872 40.988732394296676,165.51783477995195 41.85070422524586,164.0620637285465 42.611267605563626,163.40034806501353 44.030985915334895,162.87097483695834 46.10985915502533,162.73863143281778 47.63098591542803,162.47394450893626" stroke="#ff2300" stroke-linecap="round" stroke-linejoin="round" stroke-width="0.5"><title>2023-07-14 4.8km</title></polyline><polyline fill="none" points="126.89792060502805,153.09782663272927 126.43856332707219,151.2993283798569 125.57088846899569,149.36760011760634 123.78449905477464,146.10362683612038 122.81474480172619,143.83881529205246 122.45746691897511,143.2393044673372 121.13043478270993,141.6406050735386 119.49716446152888,140.17512569599785 116.38374291127548,137.9102846478927 115.87334593595006,137.31076601325185 115.26086956541985,136.84447319581523 114.95463138003834,136.44479325777502 114.44423440471292,136.0451129685389 113.52551984903403,135.71204579307232 110.76937618176453,134.44638830216718 109.69754253327847,133.98009254978388 108.72778827999718,133.38056873742607 108.21739130443893,133.24734111645375 106.07372400769964,132.84765801910544 105.10396975465119,132.51458850328345 104.49149338388816,132.04829077143222 103.9810964083299,131.38215032604057 103.57277882797644,131.0490797374223 103.1644612478558,130.91585143379052 101.93950850679539,130.98246559052495 101.48015122907236,131.0490797374223 100.25519848777913,131.98167677078163 99.89792060526088,132.11490476262406 99.03024574695155,132.31474667682778 98.5198487713933,132.11490476262406 97.19281663536094,132.11490476262406 95.86578449909575,132.51458850328345 92.24196597374976,133.24734111645375 90.71077504730783,133.9134788319352 88.87334593571723,134.5130019420758 87.69943289225921,135.04591071023606 83.5141776939854,138.04351090386626 82.59546313830651,138.30996329899062 82.0340264653787,138.70964159877622 80.19659735378809,140.70802783381077 79.32892249547876,141.90705536253517 78.8695652175229,142.3733429927961 77.28733459371142,144.70477397803916 76.31758034066297,146.50329829161637 74.63327032141387,150.30015961272875 73.96975425351411,152.6315499903867 73.25519848801196,156.09530792714213 73.0,156.76141220028512 73.0,157.76056678243913 73.25519848801196,159.09276947955368 73.45935727795586,159.55903950228821 73.91871455591172,159.95869914165814 74.73534971661866,160.22513870624243 77.89981096424162,161.09106621384853 79.17580340290442,161.2242856840603 80.70699432911351,161.09106621384853 81.42155009461567,161.2242856840603 82.23818525555544,161.55733418933232 82.85066162561998,162.1568208843819 83.41209829901345,163.2225730595237 83.87145557696931,163.822057561134 86.01512287347578,165.95355161689804 87.03591682435945,166.68625039307517 90.60869565233588,168.68451378733153 91.17013232503086,168.7511224161426 91.83364839339629,169.0841654134274 93.46691871457733,169.28399109476595 94.58979206066579,169.15077398356516 95.25330812856555,168.95094824384432 97.70321361068636,167.55216560783447 100.25519848777913,165.68711540583172 100.96975425351411,165.28746079679695 101.37807183363475,164.8211966427043 101.73534971661866,164.15510416546022 102.24574669194408,163.4890107132087 103.52173913060687,162.88952577282907 106.68620037822984,162.42325916228583 108.98298676754348,162.35664960739086 110.10586011363193,162.4898687072855 115.05671077501029,162.2234304684971 115.56710775056854,162.02360168701853 116.38374291127548,161.42411481653107 117.86389414011501,159.8920892260503 118.68052930082195,159.3592095511558 121.13043478270993,159.15937951215892 122.04914933838882,159.3592095511558 122.45746691897511,159.02615943725687 122.81474480172619,158.95954938532668 123.376181474654,159.29259954791632 125.00945179606788,159.22598953489796 125.72400756157003,159.09276947955368 126.23440453712828,158.7597191708628 126.59168241987936,158.493278748414 126.94896030263044,157.69395654500113 127.0,156.69480181694962 126.7958412100561,154.9629284250259 126.38752362970263,152.9646047836868 126.33648393210024,151.83221749195945 125.62192816636525,149.23437717655906 125.21361058624461,148.30181549754343 124.34593572770245,146.83635756964213 123.06994328927249,144.97122247284278 121.38563327048905,142.9728549583233 120.31379962200299,141.37415462863282 119.29300567111932,140.50818960522884 118.57844990561716,139.64222293379134 117.76181474514306,138.84286762104603 116.28166351630352,137.64383201906458 115.3629489603918,136.6446332707419 114.75047259009443,136.11172637456912 110.56521739135496,134.1799336449476 108.21739130443893,133.38056873742607 105.05293005681597,132.5812024261104 104.5935727788601,132.31474667682778 104.44045368628576,132.11490476262406 104.28733459371142,131.4487644144392 104.0321361059323,130.98246559052495 103.52173913060687,130.71600890523405 101.53119092644192,130.84923726745183 101.17391304369085,130.98246559052495 100.56143667316064,131.5819925618125 100.15311909280717,131.78183471030206 93.62003780761734,132.980885757308 91.7826086957939,133.44718253338942 89.84310018923134,133.98009254978388 87.90359168266878,134.846069995343 86.32136105885729,135.71204579307232 84.94328922498971,136.71124658879125 84.3818525520619,136.84447319581523 83.5141776939854,137.37737923377426 82.13610586058348,138.443189438025 81.0132325142622,139.90867439290741 80.40075614396483,140.77464055706514 79.68620037822984,141.24092934760847 78.2570888469927,142.57318040239625 75.65406427229755,147.76892225176562 75.29678638931364,148.30181549754343 74.42911153146997,151.09949480197974 73.91871455591172,152.36510598027962 73.30623818538152,154.76309645574656 73.05103969783522,156.89463293817244 73.0,159.22598953489796 73.15311909280717,159.62564946667408 73.45935727795586,160.02530904737068 74.0718336487189,160.35835842983215 75.19470699434169,160.7580173673341 78.76748582231812,161.15767595381476 80.70699432911351,161.15767595381476 81.88090737257153,161.35750511550577 82.90170132322237,162.2234304684971 83.46313799638301,163.28918248755508 84.99432892282493,165.22085166120087 85.81096408329904,165.82033353083534 86.83175803418271,166.8194682257017 87.4952741023153,167.28573033260182 88.72022684314288,167.75199196184985 91.47637051064521,168.151644406782 93.82419659756124,168.21825311341672 95.1512287335936,168.151644406782 97.03969754255377,167.61877440236276 98.41776937642135,166.68625039307517 99.48960302467458,166.28659666149179 100.6635160681326,165.35406992275966 101.0207939511165,165.02102419588482 101.83742911159061,163.6888388513471 102.55198487709276,163.08935417418252 103.57277882797644,162.6896972838731 105.35916824219748,162.6896972838731 106.58412098325789,162.35664960739086 107.70699432911351,162.42325916228583 108.77882797759958,162.2234304684971" stroke="#ff0000" stroke-linecap="round" stroke-linejoin="round" stroke-width="0.5"><title>2023-07-07 5.1km</title></polyline><polyline fill="none" points="171.08421052619815,162.1394483758777 168.44880382763222,162.40920135451597 166.79521531099454,162.27432488484192 163.53971291868947,162.61151598507422 162.6095693781972,163.1510212320136 161.26602870831266,164.83697105766623 159.97416267939843,166.11828879948007 159.04401913867332,166.72522753896192 158.01052631577477,167.33216547887423 156.61531100491993,167.93910261962446 154.91004784684628,168.4111642873322 153.87655502394773,168.54603896060144 151.7578947369475,168.6134762823931 149.84593301429413,168.2088522031263 147.2105263157282,167.1298529211781 146.69377990439534,166.8601027057739 146.33205741620623,166.32060180141707 145.5569377988577,165.78110026556533 144.3684210528154,164.43234366207616 143.1799043060746,162.1394483758777 142.76650717691518,161.73481861143955 142.09473684197292,161.33018849190557 141.2679425838869,160.99299645400606 137.75406698533334,160.92555801695562 134.5502392342314,160.45348868038855 134.03349282289855,160.18373455660185 133.7751196171157,159.91398027498508 133.67177033470944,159.5767872008728 133.568421052536,157.89081812862423 133.82679425831884,156.06996460197843 134.24019138724543,153.70958820998203 135.06698564602993,150.6073608486622 135.73875598073937,149.1236795099394 136.5138755980879,147.16791044571437 136.8755980860442,146.42606483589043 139.8727272725664,141.97496609477093 140.49282296653837,141.30055344337597 143.1799043060746,138.67033467101282 145.14354066969827,137.05173104075948 146.84880382777192,136.10754296378582 147.98564593307674,135.63544819978415 148.65741626778618,135.23079515976133 151.49952153093182,134.08427628330537 154.5999999998603,133.14008212526096 159.25071770325303,132.33077130670426 160.23253588518128,132.39821392932208 160.697607655311,132.6679843206657 161.9377990430221,133.74706430610968 163.12631578929722,134.01683390763355 163.79808612447232,134.01683390763355 164.21148325363174,133.8145067213918 164.7282296649646,133.4098520822008 165.19330143532716,133.20752462922246 165.91674641147256,133.07263961128774 166.8985645934008,133.14008212526096 169.43062200932764,134.01683390763355 172.73779904306866,135.3656795459101 176.04497607657686,137.25405680548283 178.00861244020052,138.73777636574232 179.30047846888192,139.88428366259905 182.19425837346353,143.05402428339585 183.0727272729855,144.40284346579574 185.34641148336232,148.24695647324552 186.01818181830458,149.7980807106651 186.58660287084058,151.55151921298238 187.0,151.75383861089358 187.0,151.41663956522825 186.84497607662342,151.21432001938228 186.37990430626087,149.9329608323169 184.88133971299976,146.83070804396993 184.0545454544481,145.61677735397825 183.74449760769494,145.0098108095699 182.86602870817296,143.6609934042208 181.21244019130245,141.5703186224855 180.64401913876645,141.098229455587 178.7320574161131,139.00754304524162 176.56172248814255,137.38894059933955 172.37607655511238,134.75869949738262 170.36076555028558,133.8145067213918 167.77703349268995,132.87031201043283 165.71004784689285,132.39821392932208 164.93492822977714,131.9935580464371 164.26315789483488,131.18424521404086 163.9531100478489,131.04935960375587 161.7311004784424,130.77958826470422 160.54258373216726,131.6563445389329 160.129186602775,131.7237872602709 159.56076555000618,131.6563445389329 154.7550239234697,132.39821392932208 151.86124401912093,133.14008212526096 149.48421052633785,134.01683390763355 147.46889952151105,135.02846850646893 144.42009569355287,136.91684714821167 141.37129186606035,139.47963435421116 138.06411483231932,143.3912294493348 136.8239234450739,145.27957381686429 136.1521531098988,146.56094594474416 134.80861244001426,149.6632005496067 134.08516746386886,151.75383861089358 133.67177033470944,153.70958820998203 133.0,157.95825701014837 133.0516746409703,159.30703256381094 133.15502392337658,159.7791030748631 133.41339712915942,160.251173102326 133.82679425831884,160.6558041695098 134.24019138724543,160.85811956998077 136.7205741624348,161.4650652378332 141.37129186606035,161.4650652378332 142.1980861243792,161.59994194449973 142.81818181811832,162.1394483758777 144.0583732058294,164.16259186764364 144.93684210511856,165.37647369899787 145.97033492824994,166.45547708676895 146.95215310994536,167.26472796945018 149.53588516754098,168.47860162891448 150.46602870803326,168.81578818897833 152.22296650707722,169.22041173529578 154.96172248804942,169.22041173529578 156.30526315793395,169.01810000653495 157.2870813398622,168.4111642873322 158.01052631577477,168.14141482193372 159.19904306228273,167.5344779480365 162.45454545435496,164.29746778457775" stroke="#ff5f00" stroke-linecap="round" stroke-linejoin="round" stroke-width="0.5"><title>2023-05-17 4.3km</title></polyline><polyline fill="none" points="65.28411214938387,239.6710807144118 65.13271028036252,238.94657176354667 64.77943925210275,238.15619703236734 63.41682242997922,235.98265936330426 62.357009345665574,234.07257213894627 61.49906542035751,233.15045816331985 60.84299065405503,232.09661130580935 59.53084112145007,230.77929926352226 59.07663551392034,230.05477599645383 58.47102803736925,229.33025156284566 57.0579439252615,228.144663609477 57.00747663527727,227.94706531387055 57.310280373785645,227.55186846168363 57.71401869156398,227.94706531387055 58.16822429886088,228.5398599409964 57.310280373785645,227.94706531387055 57.61308411206119,227.3542699055688 57.411214953055605,227.2225374864065 57.0579439252615,227.3542699055688 56.45233644847758,227.8811991958064 56.300934579223394,227.8811991958064 54.33271028031595,226.4321421625791 53.42429906525649,225.97107758250786 52.01121495314874,224.78548077883897 51.153271028073505,224.25854786342825 48.17570093437098,223.27054698366555 45.551401869161054,222.54601162666222 44.59252336458303,222.01907608861802 43.986915887799114,221.2286716249073 43.78504672879353,221.16280452359933 42.87663551373407,220.96520316164242 41.86728971963748,221.0310702918796 41.160747663350776,221.2286716249073 40.55514018679969,221.95320910285227 40.20186915877275,222.1508100310166 39.142056074459106,222.28254393482348 36.26542056072503,222.28254393482348 34.85233644838445,222.48014471825445 32.02616822440177,223.27054698366555 31.117757009342313,223.59988085131044 26.828037383267656,225.6417454504117 25.919626167975366,226.16867674622335 23.345794392516837,227.94706531387055 21.579439252149314,229.4619833646575 20.115887850522995,230.9110306413495 18.450467289658263,232.95286206543096 16.986915887799114,235.19227942611906 15.725233644945547,237.49755036257557 14.917757009388879,239.47348747990327 13.757009345805272,243.2277441000624 13.504672897281125,243.75465480342973 13.0,247.44301245323732 13.0,248.6285495631746 13.252336448524147,249.81408355018357 13.504672897281125,250.2751237017219 14.059813084313646,250.67030059854733 17.087850467534736,251.3289279883902 19.51028037397191,251.3289279883902 20.72149532684125,251.19720258764573 21.428037383127958,251.39479067461798 21.831775701139122,251.52651601753314 22.235514018684626,251.92169181551435 22.588785046711564,252.38272980769398 23.598130841040984,254.2927393153659 24.75887850462459,255.67584458785132 25.515887850429863,256.33446465226007 27.080373831558973,257.38825475017074 28.745794392656535,258.17859570431756 30.81495327083394,258.7713505089923 32.12710280367173,258.90307369307266 33.338317757006735,258.8372121057764 34.09532710281201,259.0347968383576 35.96261682244949,258.63962728655315 37.67850467283279,257.849287142104 38.7383177569136,257.19066929485416 40.30280373827554,256.07101674197474 41.11028037383221,255.34653419427923 42.170093457680196,253.8317032797204 42.82616822421551,253.37066677195253 43.58317757002078,252.9754922465654 45.8542056074366,252.84376732760575 48.579439252382144,252.77790485380683 50.95140186906792,252.5144548616081 54.88785046711564,252.38272980769398 55.59439252316952,252.1192795842071 57.209345794282854,251.06547714813496 58.420560747617856,249.94580935587874 60.338317756773904,249.61649476920138 65.18317757011391,249.28717994163162 65.99065420567058,249.08959092921577 66.59626168198884,248.69441264448687 67.0,247.90405503381044 66.94953271001577,246.5867892645183 66.39439252321608,243.2936079717183 65.7383177569136,240.6590455857513 64.72897196258418,238.28792625063215 63.16448598122224,235.25814447397715 62.71028037369251,234.53362841819762 61.347663551336154,232.88699668034678 61.04485981282778,232.29420777969062 60.439252336276695,231.43795576674165 58.16822429886088,229.00092188894632 57.10841121478006,228.27639575873036 56.60373831773177,227.68360078410478 54.98878504685126,226.62974112379015 54.48411214957014,226.10281036788365 53.32336448598653,225.51001253005234 52.21308411215432,224.58788100769743 51.10280373808928,224.12681453797268 48.52897196239792,223.4681473331584 47.115887850522995,223.00707971610245 45.39999999990687,222.54601162666222 44.69345794385299,222.1508100310166 44.087850467301905,221.16280452359933 43.633644859772176,221.0310702918796 42.01869158865884,221.0969374125416 41.56448598136194,221.2286716249073 40.504672897281125,221.95320910285227 39.99999999976717,222.1508100310166 35.76074766344391,222.34841087213135 31.16822429909371,223.59988085131044 29.200000000186265,224.4561477789539 26.979439252289012,225.57587899506325 25.162616822402924,226.89320627017878 24.809345794375986,226.95907253280166 23.699065420543775,227.6177346277691 22.033644859679043,228.86918995223823 20.16635514027439,230.84516495722346 18.04672897187993,233.47978480008896 16.734579439274967,235.98265936330426 16.078504672972485,236.90476753533585 15.57383177569136,238.09033240869758 15.11962616816163,238.81484273809474 14.514018691843376,240.19799558242084 14.312149532837793,240.85663829970872 13.353271028026938,244.87433799984865 13.0,248.2333708734659 13.0,249.4189059016353 13.252336448524147,249.94580935587874 13.605607476783916,250.34098654185073 14.211214953102171,250.67030059854733 15.069158878410235,250.867888916604 17.23925233632326,251.2630652928492 21.226168224355206,251.19720258764573 21.831775701139122,251.46065335095045 22.841121495468542,252.44859233955503 23.497196261538193,253.69997861154843 24.30467289732769,254.88549923838582 25.31401869165711,256.0051547404437 26.474766355007887,256.9272218858532 27.23177570081316,257.45411654925556 28.745794392656535,258.1127340111998 32.02616822440177,258.90307369307266 33.94392523379065,258.90307369307266 35.25607476616278,258.7054889027204 36.41682242974639,258.37618072592886 37.476635514060035,257.98101059594774 40.10093457950279,256.13687873410527 41.059813084080815,255.34653419427923 41.81682242988609,254.22687705338467 42.37196261668578,253.6341162629833 43.38130841124803,253.04135469152243 46.15700934571214,252.7120423700544 47.87289719609544,252.77790485380683 49.134579439181834,252.64617987678503" stroke="#ff0f00" stroke-linecap="round" stroke-linejoin="round" stroke-width="0.5"><title>2023-05-15 5.0km</title></polyline><polyline fill="none" points="127.0,250.91335212957347 126.69776119408198,250.847612225567 124.27985074627213,250.91335212957347 123.37313432851806,250.51891256077215 123.42350746248849,250.32169264662662 123.67537313420326,250.12447264566435 125.53917910461314,249.26985164143844 126.14365671644919,248.8754106296401 126.54664179123938,248.4152290111524 127.0,247.42912395572057 126.89925373136066,245.6541294004419 126.19402985065244,242.69578955421457 125.89179104473442,241.11800033578766 125.38805970130488,239.47446400666377 124.53171641775407,237.8309216632333 124.22947761183605,237.0420192022284 123.17164179100655,235.13549920124933 122.36567164189182,233.82065310617327 121.55970149231143,232.90025854937267 120.65298507455736,231.58540591076599 118.08395522390492,229.02143219439313 116.875,227.96954130748054 111.98880597017705,224.41939137608279 111.38432835810818,224.15641619081725 109.16791044780985,223.6304653584084 107.8078358208295,223.1702578747936 106.64925373136066,222.97302595165092 105.54104477609508,222.64430588725372 104.88619402982295,222.2498414926522 104.2817164179869,221.52665586932562 103.92910447763279,221.26367899030447 102.97201492544264,221.1321904931974 101.8134328359738,221.19793474650942 101.36007462698035,221.32942322455347 100.60447761183605,221.92112089923467 99.34514925372787,222.51281779436977 96.625,222.44707373346318 92.69589552236721,223.1702578747936 91.6884328359738,223.4989775539434 89.82462686579674,224.41939137608279 88.4645522388164,224.87959757985664 87.10447761183605,225.47129057749407 83.93097014911473,227.57508158980636 82.52052238793112,228.69271655689226 80.20335820899345,230.92797814801452 78.44029850768857,233.0317436014011 77.7854477611836,234.28084967721952 75.82089552236721,237.30498684340273 74.56156716425903,240.52632795000682 73.80597014934756,242.761530651449 73.55410447763279,244.47079580003629 73.20149253727868,245.85135136416648 73.0,247.4948643600801 73.05037313420326,249.59855222023907 73.30223880591802,250.19021265566698 73.95708955242299,250.78187231175252 75.06529850745574,251.04483190868632 76.97947761206888,251.2420515054837 77.68470149254426,251.3077913519228 78.44029850768857,251.17631164964405 79.29664179123938,251.17631164964405 81.5634328359738,251.43927101560985 82.2182835820131,252.03092902657227 84.63619402982295,255.1206859772792 85.89552238816395,256.5012088090589 87.25559701491147,257.4872939482739 88.36380596994422,258.0789439928776 90.32835820899345,258.7363320173463 91.43656716425903,258.8678095068026 94.45895522390492,258.6705932581972 95.76865671644919,258.4733769229788 96.72574626863934,258.2761605012929 97.93470149254426,257.8159885138157 99.14365671644919,257.0271211526706 100.95708955242299,255.64659993723035 101.8134328359738,254.66051075712312 102.11567164165899,254.06885620974936 102.8712686568033,253.41146135446616 104.38246268662624,252.81980516185286 106.19589552236721,252.6883259023307 108.7145522388164,252.754065536923 110.47761194035411,252.55684660410043 113.85261194035411,252.622586258105 115.06156716425903,252.425367267424 115.91791044757701,252.03092902657227 118.63805970153771,249.6642923070176 119.24253731337376,249.53281212376896 121.00559701491147,249.53281212376896 122.36567164189182,249.46707201763638 123.02052238793112,249.33559177647112 124.27985074627213,249.33559177647112 125.28731343289837,249.2041114968888 125.69029850745574,249.1383713427931 126.19402985065244,248.9411508224439 126.5970149252098,248.4152290111524 126.74813432828523,248.21800817342591 126.89925373136066,247.42912395572057 126.8488805971574,245.45690735024982 126.4962686568033,243.81338689729455 126.14365671644919,242.82727173887542 126.04291044780985,242.0383780533448 125.38805970130488,239.737430223322 124.6828358208295,237.962405272061 123.72574626863934,236.18737330604927 122.46641791053116,234.08362263307208 121.15671641775407,232.37431795574958 118.38619402959011,229.2186614612874 115.81716417893767,227.1148781477532 114.15485074627213,226.26021336199483 112.54291044780985,224.87959757985664 112.0895522388164,224.5508789110463 109.87313432851806,224.09067237051204 105.79291044780985,222.64430588725372 105.1884328359738,222.38132966277772 104.2817164179869,221.46091166412225 103.62686567148194,221.19793474650942 101.66231343289837,221.26367899030447 100.45335820899345,222.05260916551924 99.5970149252098,222.2498414926522 99.34514925372787,222.38132966277772 95.51679104496725,222.57856184558477 94.40858208946884,222.77579394201166 92.04104477609508,223.4332336373045 87.50746268662624,225.33980331209023 83.72947761206888,227.64082490006695 81.66417910438031,229.2186614612874 80.05223880591802,230.92797814801452 78.44029850768857,232.90025854937267 75.97201492544264,237.10776112700114 75.11567164189182,238.94853111088742 73.70522388070822,243.55042306659743 73.35261194035411,245.1282037406054 73.0,247.69208551559132 73.0,249.33559177647112 73.10074626863934,249.86151251001866 73.35261194035411,250.25595265589072 74.00746268639341,250.71613238859572 75.31716417893767,251.17631164964405 76.8787313431967,251.3735311885539 79.69962686579674,251.2420515054837 80.75746268662624,251.3077913519228 81.76492537301965,251.57075064105447 82.67164179100655,252.22814819015912 82.97388059692457,252.55684660410043 83.52798507455736,253.67441941192374 84.43470149254426,255.05494668884785 84.9384328359738,255.71233913878677 86.95335820876062,257.3558160549437 88.9682835820131,258.2761605012929 90.47947761206888,258.7363320173463 91.63805970153771,258.8678095068026 93.40111940307543,258.8678095068026 94.86194029846229,258.8020707668038 96.57462686556391,258.4733769229788 97.58208955242299,258.0789439928776 98.53917910461314,257.3558160549437 99.74813432828523,256.63268695259467 100.5037313431967,256.04103500320343 102.06529850745574,254.13459564224468 102.92164179100655,253.47720088323695 103.67723880591802,253.01702397939516 106.95149253727868,252.754065536923 112.29104477609508,252.6883259023307 113.70149253727868,252.49110694069532" stroke="#ff1c00" stroke-linecap="round" stroke-linejoin="round" stroke-width="0.5"><title>2023-05-14 4.9km</title></polyline><polyline fill="none" points="185.03910614503548,251.18830628372962 184.8379888269119,250.99145403527655 184.33519553067163,251.05707146110944 183.73184357513674,250.99145403527655 182.9273743017111,250.26966171798995 182.82681564241648,250.00719149637735 183.0782122905366,249.7447211210674 184.0837988825515,249.61348587591783 185.79329608939588,249.2197799095884 186.59776536305435,248.62922031187918 187.0,247.8418063049612 187.0,247.38248082896462 186.74860335164703,246.2669741420832 186.69832402234897,245.61079244170105 185.24022346362472,239.96759017228032 184.73743016738445,238.45834961955552 182.1229050278198,233.86497754440643 181.26815642463043,233.07753760609194 180.8156424581539,232.35571644740412 178.60335195530206,229.73090243776096 177.49720670399256,228.74659322199295 176.69273743010126,228.0247650902602 173.2737430166453,225.8592737216095 172.41899441322312,225.13744094094727 170.9608938547317,224.28436433817842 169.75418994412757,224.0218789030332 166.78770949714817,223.03755715230363 165.22905027936213,222.64382784688496 164.57541899429634,222.31571982830064 163.77094972063787,221.26577255490702 163.1173184355721,221.13452897276147 161.20670391083695,221.33139433144243 160.0502793295309,222.18447655354976 159.24581005587243,222.38134145113872 155.22346368711442,222.38134145113872 152.50837988848798,223.10317866966943 151.35195530741476,223.10317866966943 151.40223463694565,222.9719356255373 151.15083798905835,222.9719356255373 150.19553072634153,223.4312861119688 150.64804469258524,223.16880017731455 151.0502793295309,223.10317866966943 151.15083798905835,223.4969075715344 151.0,223.82501472564763 150.7486033521127,224.0218789030332 150.19553072634153,224.08750027613132 149.39106145245023,224.41560699799447 146.47486033523455,225.79365260782652 145.36871508369222,226.51548433190328 144.71508379885927,227.04045212845085 143.25698324036784,227.95914429344703 142.50279329600744,228.74659322199295 140.8435754191596,230.12462551880162 139.53631284926087,231.5026535798388 138.48044692724943,232.88067740533734 137.52513966499828,233.93059747677762 136.9217877094634,234.91489531076513 136.41899441368878,235.8991909835604 135.86592178768478,237.34282072808128 134.9106145252008,239.18016095264466 134.1061452513095,241.8705384101777 133.75418994412757,242.78920018588542 133.40223463717848,244.23280774452724 133.35195530741476,245.1514646798896 133.10055865929462,246.3325922592776 133.0,247.64495258699753 133.0,249.61348587591783 133.25139664812014,250.0728090662742 133.75418994412757,250.46651428355835 134.55865921801887,250.7946017002978 136.9720670392271,251.2539236805751 140.49162011174485,251.2539236805751 141.39664804469794,251.38515844588983 142.30167597765103,252.04133169501438 142.65363128483295,252.43503518370562 143.20670391060412,253.4192923925002 144.41340782144107,255.0597162724589 145.67039106157608,256.5032843220397 148.13407821231522,258.012464131607 149.8938547486905,258.7342439837521 150.9497206704691,258.93109283276135 152.1061452513095,258.93109283276135 152.86033519543707,258.79986027648556 154.72067039110698,258.79986027648556 156.58100558654405,258.2749296667753 158.24022346362472,257.42191611553426 160.35195530718192,255.97835102351382 161.20670391083695,255.1909499236499 162.0111731842626,253.94422868720721 162.66480446909554,253.35367531259544 163.56983240228146,252.95997263063327 164.2737430166453,252.76312116006739 166.68715083808638,252.76312116006739 167.84357541892678,252.63188679824816 172.97206703899428,252.63188679824816 174.0279329607729,252.5662696028885 175.2849162009079,252.2381834826956 176.08938547503203,251.7788625106914 177.54748603352346,250.53213178602164 177.84916201117449,250.2040441771096 178.65363128483295,249.81033872935222 181.62011173181236,249.7447211210674 184.48603351949714,249.41663293584133 185.8435754191596,249.08854451056686 186.39664804469794,248.7604558452149 186.59776536305435,248.4979847400391 186.74860335164703,248.16989564243704 186.84916201117449,247.71057050244417 186.39664804469794,245.61079244170105 186.1955307261087,243.7078600791574 185.59217877103947,241.41120681646862 184.48603351949714,238.2614917816827 183.0279329607729,235.3742335604038 182.32402234640904,234.25869699486066 181.01675977627747,232.55257687860285 180.61452513956465,231.83075487503083 179.9608938547317,231.04331136346445 178.15083798882551,229.33717901079217 174.9832402234897,226.77796830699663 174.0279329607729,226.12175808098982 171.46368715073913,224.74371347986744 169.9050279329531,224.15312163962517 169.0,223.6937718928093 167.189944133861,223.16880017731455 165.88268156419508,222.90631408890476 165.0782122905366,222.57820626243483 164.37430167617276,222.11885490189889 163.97206703899428,221.39701609848998 163.67039106134325,221.20015076870914 163.2178770948667,221.06890716726775 161.40782122896053,221.20015076870914 160.95530726248398,221.39701609848998 160.50279329600744,221.856368198758 159.6480446930509,222.2500981958292 158.79329608939588,222.38134145113872 157.68715083785355,222.11885490189889 155.17318435758352,222.44696306440164 153.31284916191362,222.90631408890476 149.6927374303341,224.0218789030332 145.62011173181236,226.1873791469261 144.91620111721568,226.6467263387167 142.95530726271681,228.0247650902602 140.743016759865,229.99338453030214 139.08379888278432,231.83075487503083 138.27932960889302,233.27439772014623 137.77653631288558,233.79935760225635 136.8212290504016,235.17737436803873 135.66480446932837,237.1459624004201 134.9608938547317,238.91768423866597 134.810055866139,239.50825662887655 134.1061452513095,241.27996913177776 133.35195530741476,244.82337313331664 133.15083798882551,246.13573787885252 133.05027932976373,248.03865993625368 133.10055865929462,249.2197799095884 133.20111731858924,249.67910350332386 133.70391061436385,250.33527924929513 134.1564245808404,250.5977492791426 136.26815642463043,251.18830628372962 138.43016759771854,251.31954106816556 139.28491620114073,251.2539236805751 140.9944134077523,251.2539236805751 141.49720670399256,251.38515844588983 142.70391061459668,252.30380072587286 143.75977653614245,254.33793050487293 145.7206703913398,256.30643440724816 148.1843575418461,257.94684772385517 149.64245810057037,258.6030113699089 150.84916201117449,258.86547655946924 154.67039106134325,258.6030113699089 156.2290502791293,258.1436969182687 157.48603351949714,257.42191611553426 158.18994413432665,257.2906831173459 158.64245810057037,257.02821700595086 158.9944134077523,256.6345175507595 159.34636871516705,256.5032843220397 161.20670391083695,254.92848258308368 161.60893854754977,254.20669660408748 162.21229050285183,253.55052652399172 163.31843575416133,252.89435548341135 164.22346368711442,252.69750398409087 165.32960893865675,252.69750398409087 167.69273743010126,252.5006523980992 170.50837988848798,252.5006523980992 172.06703910627402,252.36941795964958" stroke="#ff1900" stroke-linecap="round" stroke-linejoin="round" stroke-width="0.5"><title>2023-05-11 4.9km</title></polyline></svg>