<?xml version="1.0" encoding="utf-8" ?>
<svg baseProfile="full" height="300mm" version="1.1" viewBox="0,0,200,300" width="200mm" xmlns="http://www.w3.org/2000/svg" xmlns:ev="http://www.w3.org/2001/xml-events" xmlns:xlink="http://www.w3.org/1999/xlink"><defs /><rect fill="#222222" height="300" width="200" x="0" y="0" /><text fill="#FFFFFF" style="font-size:12px; font-family:Arial; font-weight:bold;" x="10" y="20">Over 3km Runs</text><text fill="#FFFFFF" style="font-size:4px; font-family:Arial" x="10" y="280">ATHLETE</text><text fill="#FFFFFF" style="font-size:9px; font-family:Arial" x="10" y="290">litianc</text><text fill="#FFFFFF" style="font-size:4px; font-family:Arial" x="120" y="280">STATISTICS</text><text fill="#FFFFFF" style="font-size:3px; font-family:Arial" x="120" y="285">Number: 7</text><text fill="#FFFFFF" style="font-size:3px; font-family:Arial" x="120" y="290">Weekly: 1.8</text><text fill="#FFFFFF" style="font-size:3px; font-family:Arial" x="141" y="285">Total: 32.9 km</text><text fill="#FFFFFF" style="font-size:3px; font-family:Arial" x="141" y="290">Avg: 4.7 km</text><text fill="#FFFFFF" style="font-size:3px; font-family:Arial" x="167" y="285">Min: 4.0 km</text><text fill="#FFFFFF" style="font-size:3px; font-family:Arial" x="167" y="290">Max: 5.1 km</text><polyline fill="none" points="64.31267605605535,59.66952799409046 63.95774647872895,58.80926974347676 63.653521126601845,58.412226921791444 61.72676056320779,54.83882583657396 60.66197183099575,53.647685865085805 60.10422535194084,53.118289314734284 58.73521126736887,51.72862042111228 57.51830985909328,50.0742471209378 54.0197183098644,47.758114330412354 52.346478872932494,46.500780131987995 50.4704225352034,45.640496823820285 47.42816901393235,44.38315673620673 47.6309859151952,44.25080494442955 46.76901408447884,43.58904540532967 46.21126760565676,42.86110879346961 45.09577464754693,42.26552342099603 43.92957746470347,41.27287939010421 43.219718309817836,41.074350322189275 41.74929577461444,41.47140837053303 41.03943661949597,42.26552342099603 40.48169014090672,42.6625804232026 39.6197183097247,42.92728489736328 38.90985915483907,42.99346099185641 37.28732394357212,42.728756556258304 36.52676056348719,42.99346099185641 34.752112675923854,43.05963707668707 33.940845070173964,43.39051735465182 32.115492957644165,43.72139739067643 31.101408450398594,43.39051735465182 31.101408450398594,42.99346099185641 31.253521126694977,43.25816527256393 31.456338028190657,43.39051735465182 31.557746478822082,43.25816527256393 31.760563380084932,43.25816527256393 30.898591549135745,43.52286939823534 32.115492957644165,42.53022812772542 31.557746478822082,42.46405196559499 31.35492957709357,42.59640428048442 30.645070422207937,43.91992529595154 30.442253521177918,44.18462903419277 29.17464788723737,44.84638770160382 25.777464788639918,46.43460455109016 24.763380281627178,47.09635992516996 22.633802816737443,48.883094596501905 19.997183098457754,51.66244560526684 18.780281689949334,53.44916223126347 18.0704225350637,54.243256243062206 17.512676056241617,54.97117452856037 16.954929577419534,55.56674316313001 16.19436619686894,56.8902262088086 14.318309858907014,62.18411964914412 13.861971830716357,63.77227559397579 13.60845070402138,65.09573461976834 13.507042253389955,66.28684443069506 13.253521126694977,67.14708845378482 13.152112675830722,68.13967567737564 13.0,68.93374388717348 13.101408450631425,69.52929412937374 13.659154929453507,70.12484358705115 14.673239436466247,70.6542202240671 17.309859154745936,71.11742427322315 20.45352112664841,71.18359624157893 21.92394366208464,71.44828401785344 22.633802816737443,71.97765910538146 23.445070422254503,73.2349224545178 25.32112676068209,75.41858206715551 25.878873239271343,75.88178123542457 28.109859154792503,77.33754696004326 30.087323943385854,78.06542806475773 30.543661971809343,78.39628272512346 31.456338028190657,78.66096627886873 33.43380281678401,78.92564967781072 35.309859154745936,78.52862452124828 36.93239436624572,78.06542806475773 39.41690140822902,76.74200700287474 40.63380281673744,75.81560995458858 41.69859154918231,74.69069670152385 42.35774647863582,73.8304670311918 43.27042253501713,73.10257910873042 43.77746478863992,72.83789230088587 50.82535211276263,72.24234641698422 52.346478872932494,72.37469001440331 53.00563380285166,72.17617460360634 55.28732394357212,71.9114872534119 55.89577464782633,71.6467997484433 57.01126760547049,70.91890831050114 58.583098591305315,69.5954663300945 59.29295774619095,69.46312191901961 61.828169014072046,69.5954663300945 62.89295774651691,69.3307774690038 65.32676056306809,69.26460522960406 66.03661971818656,69.06608845319715 66.6957746478729,68.33819286047947 67.0,67.61029609592515 66.94929577433504,67.01474332602811 66.49295774614438,64.36783263503457 65.884507042123,61.65473309461959 65.884507042123,61.05917247972684 65.52957746456377,60.331263996165944 64.41408450691961,56.69170399886207 62.842253520851955,54.11090733794845 61.47323943651281,52.58889214458759 59.90140845067799,50.603647235868266 58.73521126736887,49.611021512100706 56.149295774521306,47.62576352703036 54.88169014058076,47.030184431234375 53.81690140836872,46.16990213046665 52.2450704225339,45.243442437029444 49.86197183071636,44.25080494442955 48.74647887307219,43.91992529595154 47.5802816899959,43.32434131836635 45.50140845053829,42.86110879346961 44.639436619589105,42.26552342099603 44.08169014053419,41.27287939010421 43.625352112576365,41.140526687784586 42.96619718289003,41.140526687784586 41.54647887311876,41.33905572659569 40.53239436610602,42.199347220157506 39.92394366185181,42.46405196559499 38.40281690121628,42.53022812772542 37.8957746475935,42.39787579383119 34.85352112655528,42.86110879346961 32.521126760402694,43.65522140279063 30.898591549135745,44.118453114293516 27.095774647779763,46.03755086174351 24.966197182890028,47.4272372488922 23.800000000046566,48.022815821314 23.29295774619095,48.48604305743356 22.430985915241763,48.883094596501905 21.771830986021087,49.611021512100706 21.011267605470493,50.140422169381054 20.149295774521306,51.0668718276429 18.983098591445014,52.258018598513445 18.526760563254356,52.91976544869249 17.918309859000146,54.243256243062206 16.143661971902475,57.08874833147274 15.535211267648265,58.54457456775708 14.673239436466247,60.92682556970976 14.166197183076292,62.647332375956466" stroke="#ffff00" stroke-linecap="round" stroke-linejoin="round" stroke-width="0.5"><title>2023-07-16 4.0km</title></polyline><polyline fill="none" points="184.87042253511027,58.974705910513876 184.6169014084153,58.180620499828365 183.90704225376248,56.72479362427839 182.13239436619915,53.81312580953818 181.1183098591864,52.62198357156012 180.76338028162718,51.894061770057306 179.95211267611012,50.8352643304097 177.67042253515683,48.71766201194259 174.42535211262293,46.467698680527974 174.0197183098644,46.07064516551327 173.36056338017806,45.872118277155096 172.60000000009313,45.408888532285346 171.433802816784,45.07800985244103 168.54366197180934,43.88684459988144 165.65352112683468,42.89420449209865 164.89295774628408,42.36479554313701 164.335211267462,41.43832839108654 163.98028168990277,41.10744680551579 163.219718309585,41.04127045915811 162.45915492950007,41.04127045915811 161.24225352075882,41.37215209339047 160.38028169004247,41.96773842483526 158.45352112688124,42.23244320927188 157.33802816900425,42.23244320927188 155.30985915474594,42.8280284072971 152.72394366189837,43.225084770063404 148.66760563361458,44.54860346089117 147.24788732361048,45.34271281567635 145.57464788714424,46.600049774715444 144.10422535194084,47.59268174585304 143.0901408449281,48.585311537695816 141.11267605610192,49.90881453640759 140.40281690121628,50.63673953426769 139.13521126750857,51.62936264264863 138.27323943632655,52.886682117998134 137.4619718308095,54.34252135234419 134.8253521125298,60.562872548005544 134.41971830977127,61.09226018746267 133.81126760528423,62.61424619788886 133.70985915488563,63.47449689384666 133.45633802819066,64.40091888993629 133.50704225315712,65.06264772481518 133.20281690103002,68.30510501630488 133.25352112646215,68.90065586869605 133.50704225315712,69.89323887930368 133.96338028134778,70.29027147340821 134.52112676016986,70.62113170232624 137.4619718308095,71.28285143338144 140.55492957727984,70.88581971084932 141.56901408405975,70.95199168875115 142.2281690139789,71.28285143338144 142.58309859130532,71.7460546689399 143.5971830985509,73.79737757949624 144.10422535194084,74.52526411705185 145.37183098564856,75.91486243478721 146.53802816872485,76.84125894083991 147.70422535203397,77.63531157796388 148.46478873235174,78.03233737350092 150.08732394361869,78.49553369442583 151.7098591546528,78.6940462582279 153.58591549261473,78.5617045587569 155.00563380261883,78.36319193680538 157.38873239420354,77.63531157796388 158.35211267578416,77.17211437560036 159.06197183090262,76.64274556352757 159.5690140845254,76.37806092514074 160.58309859153815,75.51783477995195 161.0901408449281,74.98846403084463 161.901408450678,73.6650344467489 162.2563380280044,73.33417644543806 163.82816901407205,72.34160098881694 164.74084507022053,72.54011625456042 165.39999999990687,72.47394450893626 167.47887323936448,72.60628799034748 168.3915492957458,72.34160098881694 170.62253521126695,72.40777275385335 172.75211267592385,72.07691383251222 175.03380281687714,72.07691383251222 175.5408450702671,71.9445701961522 176.09859154908918,71.54753905473626 176.9605633802712,70.62113170232624 178.27887323941104,69.4300337456225 179.69859154941514,69.36386154490174 180.96619718312286,69.56237811784376 182.2845070422627,69.29768933451851 184.4140845069196,69.36386154490174 185.37746478873305,69.1653448845318 186.03661971818656,68.96682813731604 186.5436619715765,68.56979438100825 186.89859154936858,67.90807067905553 187.0,67.44486351145315 186.89859154936858,65.59203009540215 186.49295774661005,63.87153512437362 185.58028169022873,60.893739895225735 183.90704225376248,56.72479362427839 182.48732394352555,54.60721889141132 182.0309859153349,53.68077682697913 180.8140845070593,52.35728487026063 179.90140845044516,50.8352643304097 179.34366197162308,50.239689680805895 178.58309859153815,49.57793915006914 177.77183098578826,48.71766201194259 176.352112676017,47.72503251073067 175.1859154929407,47.063278299116064 173.36056338017806,45.739766970044 171.33239436615258,44.74713093051105 170.06478873244487,44.41625176629168 168.7464788730722,43.820668660569936 165.39999999990687,42.89420449209865 164.69014084525406,42.430971695896005 163.92957746470347,41.305975785973715 163.57464788714424,41.17362314200727 161.5971830985509,41.305975785973715 160.48169014044106,42.033914635598194 159.36619718302973,42.23244320927188 159.06197183090262,42.49714783861418 158.7070422533434,42.56332397166989 158.35211267578416,42.62950009517954 157.59154929569922,42.36479554313701 156.0704225350637,42.56332397166989 150.69577464764006,43.688316752552055 147.34929577447474,45.34271281567635 145.67605633777566,46.600049774715444 144.81408450682648,47.394155526009854 143.79999999981374,48.12208457256202 143.03943661949597,48.38678575371159 142.12676056311466,49.11471320223063 139.84507042216137,51.16613879657234 138.7295774645172,52.555808910750784 138.22253521112725,53.28372964673326 137.4112676056102,55.20278778744978 136.14366197166964,56.85714171564905 135.7887323941104,57.518881592171965 135.02816901379265,59.96731071258546 134.72394366189837,60.69521951593924 134.52112676016986,61.621647206746275 133.96338028134778,62.415726573904976 133.40563380275853,64.20240005053347 133.0,66.71696557494579 133.05070422496647,68.50362205432612 133.20281690103002,69.2315171143564 133.50704225315712,69.89323887930368 133.96338028134778,70.35644353862153 134.92676056316122,70.88581971084932 136.04225352103822,71.15050756459823 137.4619718308095,71.28285143338144 140.90985915483907,71.21667950390838 141.82253521122038,71.41519526325283 142.88732394343242,72.54011625456042 143.54647887311876,73.46651967492653 144.00281690130942,74.45909266200033 144.76338028162718,75.31932082158164 147.85633802809753,77.43679854928632 150.03661971795373,78.5617045587569 150.84788732370362,78.8263879189908 151.86197183071636,78.95872954084189 152.72394366189837,78.89255873468937 154.75211267592385,78.62787541336729 156.17183098569512,78.29702104360331 156.83098591538146,78.03233737350092 157.64225352113135,77.50296956853708 158.8084507039748,77.03977223069523 159.670422534924,76.31188974127872 160.27887323941104,76.11337613154319 160.63380281673744,75.91486243478721 160.98873239429668,75.51783477995195 161.85070422524586,74.06206372854649 162.61126760556363,73.40034806501353 164.0309859153349,72.87097483695834 166.10985915502533,72.73863143281778 167.63098591542803,72.47394450893626" stroke="#ff4400" stroke-linecap="round" stroke-linejoin="round" stroke-width="0.5"><title>2023-07-14 4.8km</title></polyline><polyline fill="none" points="66.89792060502805,123.09782663272927 66.43856332707219,121.29932837985689 65.57088846899569,119.36760011760634 63.78449905477464,116.10362683612038 62.81474480172619,113.83881529205246 62.457466918975115,113.2393044673372 61.130434782709926,111.64060507353861 59.49716446152888,110.17512569599785 56.383742911275476,107.9102846478927 55.873345935950056,107.31076601325185 55.26086956541985,106.84447319581523 54.954631380038336,106.44479325777502 54.444234404712915,106.04511296853889 53.525519849034026,105.71204579307232 50.76937618176453,104.44638830216718 49.697542533278465,103.98009254978388 48.727788279997185,103.38056873742607 48.217391304438934,103.24734111645375 46.07372400769964,102.84765801910544 45.10396975465119,102.51458850328345 44.491493383888155,102.04829077143222 43.981096408329904,101.38215032604057 43.572778827976435,101.04907973742229 43.1644612478558,100.91585143379052 41.93950850679539,100.98246559052495 41.48015122907236,101.04907973742229 40.255198487779126,101.98167677078163 39.89792060526088,102.11490476262406 39.03024574695155,102.31474667682778 38.5198487713933,102.11490476262406 37.19281663536094,102.11490476262406 35.86578449909575,102.51458850328345 32.24196597374976,103.24734111645375 30.710775047307834,103.91347883193521 28.873345935717225,104.51300194207579 27.69943289225921,105.04591071023606 23.514177693985403,108.04351090386626 22.595463138306513,108.30996329899062 22.0340264653787,108.70964159877622 20.196597353788093,110.70802783381077 19.328922495478764,111.90705536253517 18.869565217522904,112.3733429927961 17.28733459371142,114.70477397803916 16.31758034066297,116.50329829161637 14.633270321413875,120.30015961272875 13.969754253514111,122.6315499903867 13.255198488011956,126.09530792714213 13.0,126.76141220028512 13.0,127.76056678243913 13.255198488011956,129.09276947955368 13.45935727795586,129.55903950228821 13.91871455591172,129.95869914165814 14.735349716618657,130.22513870624243 17.899810964241624,131.09106621384853 19.17580340290442,131.2242856840603 20.706994329113513,131.09106621384853 21.421550094615668,131.2242856840603 22.238185255555436,131.55733418933232 22.850661625619978,132.1568208843819 23.41209829901345,133.2225730595237 23.87145557696931,133.822057561134 26.015122873475775,135.95355161689804 27.035916824359447,136.68625039307517 30.608695652335882,138.68451378733153 31.170132325030863,138.7511224161426 31.833648393396288,139.0841654134274 33.46691871457733,139.28399109476595 34.589792060665786,139.15077398356516 35.25330812856555,138.95094824384432 37.70321361068636,137.55216560783447 40.255198487779126,135.68711540583172 40.96975425351411,135.28746079679695 41.37807183363475,134.8211966427043 41.73534971661866,134.15510416546022 42.24574669194408,133.4890107132087 43.521739130606875,132.88952577282907 46.68620037822984,132.42325916228583 48.98298676754348,132.35664960739086 50.105860113631934,132.4898687072855 55.05671077501029,132.2234304684971 55.56710775056854,132.02360168701853 56.383742911275476,131.42411481653107 57.86389414011501,129.8920892260503 58.680529300821945,129.3592095511558 61.130434782709926,129.15937951215892 62.049149338388816,129.3592095511558 62.457466918975115,129.02615943725687 62.81474480172619,128.95954938532668 63.376181474654004,129.29259954791632 65.00945179606788,129.22598953489796 65.72400756157003,129.09276947955368 66.23440453712828,128.7597191708628 66.59168241987936,128.493278748414 66.94896030263044,127.69395654500113 67.0,126.69480181694962 66.7958412100561,124.9629284250259 66.38752362970263,122.96460478368681 66.33648393210024,121.83221749195945 65.62192816636525,119.23437717655906 65.21361058624461,118.30181549754343 64.34593572770245,116.83635756964213 63.06994328927249,114.97122247284278 61.38563327048905,112.9728549583233 60.31379962200299,111.37415462863282 59.29300567111932,110.50818960522884 58.57844990561716,109.64222293379134 57.761814745143056,108.84286762104603 56.281663516303524,107.64383201906458 55.362948960391805,106.6446332707419 54.75047259009443,106.11172637456912 50.56521739135496,104.1799336449476 48.217391304438934,103.38056873742607 45.05293005681597,102.5812024261104 44.59357277886011,102.31474667682778 44.440453686285764,102.11490476262406 44.28733459371142,101.44876441443921 44.032136105932295,100.98246559052495 43.521739130606875,100.71600890523405 41.53119092644192,100.84923726745183 41.173913043690845,100.98246559052495 40.56143667316064,101.58199256181251 40.153119092807174,101.78183471030206 33.62003780761734,102.98088575730799 31.782608695793897,103.44718253338942 29.843100189231336,103.98009254978388 27.903591682668775,104.84606999534299 26.321361058857292,105.71204579307232 24.943289224989712,106.71124658879125 24.3818525520619,106.84447319581523 23.514177693985403,107.37737923377426 22.136105860583484,108.443189438025 21.0132325142622,109.90867439290741 20.400756143964827,110.77464055706514 19.68620037822984,111.24092934760847 18.2570888469927,112.57318040239625 15.654064272297546,117.76892225176562 15.296786389313638,118.30181549754343 14.429111531469971,121.09949480197974 13.91871455591172,122.36510598027962 13.306238185381517,124.76309645574656 13.051039697835222,126.89463293817244 13.0,129.22598953489796 13.153119092807174,129.62564946667408 13.45935727795586,130.02530904737068 14.071833648718894,130.35835842983215 15.194706994341686,130.7580173673341 18.767485822318122,131.15767595381476 20.706994329113513,131.15767595381476 21.880907372571528,131.35750511550577 22.90170132322237,132.2234304684971 23.46313799638301,133.28918248755508 24.994328922824934,135.22085166120087 25.81096408329904,135.82033353083534 26.831758034182712,136.8194682257017 27.495274102315307,137.28573033260182 28.720226843142882,137.75199196184985 31.47637051064521,138.151644406782 33.82419659756124,138.21825311341672 35.1512287335936,138.151644406782 37.03969754255377,137.61877440236276 38.41776937642135,136.68625039307517 39.48960302467458,136.28659666149179 40.663516068132594,135.35406992275966 41.0207939511165,135.02102419588482 41.83742911159061,133.6888388513471 42.551984877092764,133.08935417418252 43.572778827976435,132.6896972838731 45.359168242197484,132.6896972838731 46.58412098325789,132.35664960739086 47.70699432911351,132.42325916228583 48.778827977599576,132.2234304684971" stroke="#ff0000" stroke-linecap="round" stroke-linejoin="round" stroke-width="0.5"><title>2023-07-07 5.1km</title></polyline><polyline fill="none" points="171.08421052619815,132.1394483758777 168.44880382763222,132.40920135451597 166.79521531099454,132.27432488484192 163.53971291868947,132.61151598507422 162.6095693781972,133.1510212320136 161.26602870831266,134.83697105766623 159.97416267939843,136.11828879948007 159.04401913867332,136.72522753896192 158.01052631577477,137.33216547887423 156.61531100491993,137.93910261962446 154.91004784684628,138.4111642873322 153.87655502394773,138.54603896060144 151.7578947369475,138.6134762823931 149.84593301429413,138.2088522031263 147.2105263157282,137.1298529211781 146.69377990439534,136.8601027057739 146.33205741620623,136.32060180141707 145.5569377988577,135.78110026556533 144.3684210528154,134.43234366207616 143.1799043060746,132.1394483758777 142.76650717691518,131.73481861143955 142.09473684197292,131.33018849190557 141.2679425838869,130.99299645400606 137.75406698533334,130.92555801695562 134.5502392342314,130.45348868038855 134.03349282289855,130.18373455660185 133.7751196171157,129.91398027498508 133.67177033470944,129.5767872008728 133.568421052536,127.89081812862423 133.82679425831884,126.06996460197843 134.24019138724543,123.70958820998203 135.06698564602993,120.60736084866221 135.73875598073937,119.1236795099394 136.5138755980879,117.16791044571437 136.8755980860442,116.42606483589043 139.8727272725664,111.97496609477093 140.49282296653837,111.30055344337597 143.1799043060746,108.67033467101282 145.14354066969827,107.05173104075948 146.84880382777192,106.10754296378582 147.98564593307674,105.63544819978415 148.65741626778618,105.23079515976133 151.49952153093182,104.08427628330537 154.5999999998603,103.14008212526096 159.25071770325303,102.33077130670426 160.23253588518128,102.39821392932208 160.697607655311,102.66798432066571 161.9377990430221,103.74706430610968 163.12631578929722,104.01683390763355 163.79808612447232,104.01683390763355 164.21148325363174,103.81450672139181 164.7282296649646,103.40985208220081 165.19330143532716,103.20752462922246 165.91674641147256,103.07263961128774 166.8985645934008,103.14008212526096 169.43062200932764,104.01683390763355 172.73779904306866,105.3656795459101 176.04497607657686,107.25405680548283 178.00861244020052,108.73777636574232 179.30047846888192,109.88428366259905 182.19425837346353,113.05402428339585 183.0727272729855,114.40284346579574 185.34641148336232,118.24695647324552 186.01818181830458,119.79808071066509 186.58660287084058,121.55151921298238 187.0,121.75383861089358 187.0,121.41663956522825 186.84497607662342,121.21432001938228 186.37990430626087,119.9329608323169 184.88133971299976,116.83070804396993 184.0545454544481,115.61677735397825 183.74449760769494,115.0098108095699 182.86602870817296,113.66099340422079 181.21244019130245,111.5703186224855 180.64401913876645,111.09822945558699 178.7320574161131,109.00754304524162 176.56172248814255,107.38894059933955 172.37607655511238,104.75869949738262 170.36076555028558,103.81450672139181 167.77703349268995,102.87031201043283 165.71004784689285,102.39821392932208 164.93492822977714,101.9935580464371 164.26315789483488,101.18424521404086 163.9531100478489,101.04935960375587 161.7311004784424,100.77958826470422 160.54258373216726,101.6563445389329 160.129186602775,101.72378726027091 159.56076555000618,101.6563445389329 154.7550239234697,102.39821392932208 151.86124401912093,103.14008212526096 149.48421052633785,104.01683390763355 147.46889952151105,105.02846850646893 144.42009569355287,106.91684714821167 141.37129186606035,109.47963435421116 138.06411483231932,113.39122944933479 136.8239234450739,115.27957381686429 136.1521531098988,116.56094594474416 134.80861244001426,119.6632005496067 134.08516746386886,121.75383861089358 133.67177033470944,123.70958820998203 133.0,127.95825701014837 133.0516746409703,129.30703256381094 133.15502392337658,129.7791030748631 133.41339712915942,130.251173102326 133.82679425831884,130.6558041695098 134.24019138724543,130.85811956998077 136.7205741624348,131.4650652378332 141.37129186606035,131.4650652378332 142.1980861243792,131.59994194449973 142.81818181811832,132.1394483758777 144.0583732058294,134.16259186764364 144.93684210511856,135.37647369899787 145.97033492824994,136.45547708676895 146.95215310994536,137.26472796945018 149.53588516754098,138.47860162891448 150.46602870803326,138.81578818897833 152.22296650707722,139.22041173529578 154.96172248804942,139.22041173529578 156.30526315793395,139.01810000653495 157.2870813398622,138.4111642873322 158.01052631577477,138.14141482193372 159.19904306228273,137.5344779480365 162.45454545435496,134.29746778457775" stroke="#ffb900" stroke-linecap="round" stroke-linejoin="round" stroke-width="0.5"><title>2023-05-17 4.3km</title></polyline><polyline fill="none" points="65.28411214938387,179.6710807144118 65.13271028036252,178.94657176354667 64.77943925210275,178.15619703236734 63.41682242997922,175.98265936330426 62.357009345665574,174.07257213894627 61.49906542035751,173.15045816331985 60.84299065405503,172.09661130580935 59.53084112145007,170.77929926352226 59.07663551392034,170.05477599645383 58.47102803736925,169.33025156284566 57.0579439252615,168.144663609477 57.00747663527727,167.94706531387055 57.310280373785645,167.55186846168363 57.71401869156398,167.94706531387055 58.16822429886088,168.5398599409964 57.310280373785645,167.94706531387055 57.61308411206119,167.3542699055688 57.411214953055605,167.2225374864065 57.0579439252615,167.3542699055688 56.45233644847758,167.8811991958064 56.300934579223394,167.8811991958064 54.33271028031595,166.4321421625791 53.42429906525649,165.97107758250786 52.01121495314874,164.78548077883897 51.153271028073505,164.25854786342825 48.17570093437098,163.27054698366555 45.551401869161054,162.54601162666222 44.59252336458303,162.01907608861802 43.986915887799114,161.2286716249073 43.78504672879353,161.16280452359933 42.87663551373407,160.96520316164242 41.86728971963748,161.0310702918796 41.160747663350776,161.2286716249073 40.55514018679969,161.95320910285227 40.20186915877275,162.1508100310166 39.142056074459106,162.28254393482348 36.26542056072503,162.28254393482348 34.85233644838445,162.48014471825445 32.02616822440177,163.27054698366555 31.117757009342313,163.59988085131044 26.828037383267656,165.6417454504117 25.919626167975366,166.16867674622335 23.345794392516837,167.94706531387055 21.579439252149314,169.4619833646575 20.115887850522995,170.9110306413495 18.450467289658263,172.95286206543096 16.986915887799114,175.19227942611906 15.725233644945547,177.49755036257557 14.917757009388879,179.47348747990327 13.757009345805272,183.2277441000624 13.504672897281125,183.75465480342973 13.0,187.44301245323732 13.0,188.6285495631746 13.252336448524147,189.81408355018357 13.504672897281125,190.2751237017219 14.059813084313646,190.67030059854733 17.087850467534736,191.3289279883902 19.51028037397191,191.3289279883902 20.72149532684125,191.19720258764573 21.428037383127958,191.39479067461798 21.831775701139122,191.52651601753314 22.235514018684626,191.92169181551435 22.588785046711564,192.38272980769398 23.598130841040984,194.2927393153659 24.75887850462459,195.67584458785132 25.515887850429863,196.33446465226007 27.080373831558973,197.38825475017074 28.745794392656535,198.17859570431756 30.81495327083394,198.77135050899233 32.12710280367173,198.90307369307266 33.338317757006735,198.83721210577642 34.09532710281201,199.03479683835758 35.96261682244949,198.63962728655315 37.67850467283279,197.849287142104 38.7383177569136,197.19066929485416 40.30280373827554,196.07101674197474 41.11028037383221,195.34653419427923 42.170093457680196,193.8317032797204 42.82616822421551,193.37066677195253 43.58317757002078,192.9754922465654 45.8542056074366,192.84376732760575 48.579439252382144,192.77790485380683 50.95140186906792,192.5144548616081 54.88785046711564,192.38272980769398 55.59439252316952,192.1192795842071 57.209345794282854,191.06547714813496 58.420560747617856,189.94580935587874 60.338317756773904,189.61649476920138 65.18317757011391,189.28717994163162 65.99065420567058,189.08959092921577 66.59626168198884,188.69441264448687 67.0,187.90405503381044 66.94953271001577,186.5867892645183 66.39439252321608,183.2936079717183 65.7383177569136,180.6590455857513 64.72897196258418,178.28792625063215 63.16448598122224,175.25814447397715 62.71028037369251,174.53362841819762 61.347663551336154,172.88699668034678 61.04485981282778,172.29420777969062 60.439252336276695,171.43795576674165 58.16822429886088,169.00092188894632 57.10841121478006,168.27639575873036 56.60373831773177,167.68360078410478 54.98878504685126,166.62974112379015 54.48411214957014,166.10281036788365 53.32336448598653,165.51001253005234 52.21308411215432,164.58788100769743 51.10280373808928,164.12681453797268 48.52897196239792,163.4681473331584 47.115887850522995,163.00707971610245 45.39999999990687,162.54601162666222 44.69345794385299,162.1508100310166 44.087850467301905,161.16280452359933 43.633644859772176,161.0310702918796 42.01869158865884,161.0969374125416 41.56448598136194,161.2286716249073 40.504672897281125,161.95320910285227 39.99999999976717,162.1508100310166 35.76074766344391,162.34841087213135 31.16822429909371,163.59988085131044 29.200000000186265,164.4561477789539 26.979439252289012,165.57587899506325 25.162616822402924,166.89320627017878 24.809345794375986,166.95907253280166 23.699065420543775,167.6177346277691 22.033644859679043,168.86918995223823 20.16635514027439,170.84516495722346 18.04672897187993,173.47978480008896 16.734579439274967,175.98265936330426 16.078504672972485,176.90476753533585 15.57383177569136,178.09033240869758 15.11962616816163,178.81484273809474 14.514018691843376,180.19799558242084 14.312149532837793,180.85663829970872 13.353271028026938,184.87433799984865 13.0,188.2333708734659 13.0,189.4189059016353 13.252336448524147,189.94580935587874 13.605607476783916,190.34098654185073 14.211214953102171,190.67030059854733 15.069158878410235,190.867888916604 17.23925233632326,191.2630652928492 21.226168224355206,191.19720258764573 21.831775701139122,191.46065335095045 22.841121495468542,192.44859233955503 23.497196261538193,193.69997861154843 24.30467289732769,194.88549923838582 25.31401869165711,196.0051547404437 26.474766355007887,196.9272218858532 27.23177570081316,197.45411654925556 28.745794392656535,198.1127340111998 32.02616822440177,198.90307369307266 33.94392523379065,198.90307369307266 35.25607476616278,198.7054889027204 36.41682242974639,198.37618072592886 37.476635514060035,197.98101059594774 40.10093457950279,196.13687873410527 41.059813084080815,195.34653419427923 41.81682242988609,194.22687705338467 42.37196261668578,193.6341162629833 43.38130841124803,193.04135469152243 46.15700934571214,192.7120423700544 47.87289719609544,192.77790485380683 49.134579439181834,192.64617987678503" stroke="#ff1d00" stroke-linecap="round" stroke-linejoin="round" stroke-width="0.5"><title>2023-05-15 5.0km</title></polyline><polyline fill="none" points="187.0,190.91335212957347 186.69776119408198,190.847612225567 184.27985074627213,190.91335212957347 183.37313432851806,190.51891256077215 183.4235074624885,190.32169264662662 183.67537313420326,190.12447264566435 185.53917910461314,189.26985164143844 186.1436567164492,188.8754106296401 186.54664179123938,188.4152290111524 187.0,187.42912395572057 186.89925373136066,185.6541294004419 186.19402985065244,182.69578955421457 185.89179104473442,181.11800033578766 185.38805970130488,179.47446400666377 184.53171641775407,177.8309216632333 184.22947761183605,177.0420192022284 183.17164179100655,175.13549920124933 182.36567164189182,173.82065310617327 181.55970149231143,172.90025854937267 180.65298507455736,171.58540591076599 178.08395522390492,169.02143219439313 176.875,167.96954130748054 171.98880597017705,164.41939137608279 171.38432835810818,164.15641619081725 169.16791044780985,163.6304653584084 167.8078358208295,163.1702578747936 166.64925373136066,162.97302595165092 165.54104477609508,162.64430588725372 164.88619402982295,162.2498414926522 164.2817164179869,161.52665586932562 163.9291044776328,161.26367899030447 162.97201492544264,161.1321904931974 161.8134328359738,161.19793474650942 161.36007462698035,161.32942322455347 160.60447761183605,161.92112089923467 159.34514925372787,162.51281779436977 156.625,162.44707373346318 152.6958955223672,163.1702578747936 151.6884328359738,163.4989775539434 149.82462686579674,164.41939137608279 148.4645522388164,164.87959757985664 147.10447761183605,165.47129057749407 143.93097014911473,167.57508158980636 142.52052238793112,168.69271655689226 140.20335820899345,170.92797814801452 138.44029850768857,173.0317436014011 137.7854477611836,174.28084967721952 135.8208955223672,177.30498684340273 134.56156716425903,180.52632795000682 133.80597014934756,182.761530651449 133.5541044776328,184.47079580003629 133.20149253727868,185.85135136416648 133.0,187.4948643600801 133.05037313420326,189.59855222023907 133.30223880591802,190.19021265566698 133.95708955242299,190.78187231175252 135.06529850745574,191.04483190868632 136.97947761206888,191.2420515054837 137.68470149254426,191.3077913519228 138.44029850768857,191.17631164964405 139.29664179123938,191.17631164964405 141.5634328359738,191.43927101560985 142.2182835820131,192.03092902657227 144.63619402982295,195.1206859772792 145.89552238816395,196.50120880905888 147.25559701491147,197.48729394827387 148.36380596994422,198.0789439928776 150.32835820899345,198.73633201734629 151.43656716425903,198.8678095068026 154.45895522390492,198.6705932581972 155.7686567164492,198.4733769229788 156.72574626863934,198.2761605012929 157.93470149254426,197.81598851381568 159.1436567164492,197.0271211526706 160.95708955242299,195.64659993723035 161.8134328359738,194.66051075712312 162.115671641659,194.06885620974936 162.8712686568033,193.41146135446616 164.38246268662624,192.81980516185286 166.1958955223672,192.6883259023307 168.7145522388164,192.754065536923 170.4776119403541,192.55684660410043 173.8526119403541,192.622586258105 175.06156716425903,192.425367267424 175.91791044757701,192.03092902657227 178.6380597015377,189.6642923070176 179.24253731337376,189.53281212376896 181.00559701491147,189.53281212376896 182.36567164189182,189.46707201763638 183.02052238793112,189.33559177647112 184.27985074627213,189.33559177647112 185.28731343289837,189.2041114968888 185.69029850745574,189.1383713427931 186.19402985065244,188.9411508224439 186.5970149252098,188.4152290111524 186.74813432828523,188.21800817342591 186.89925373136066,187.42912395572057 186.8488805971574,185.45690735024982 186.4962686568033,183.81338689729455 186.1436567164492,182.82727173887542 186.04291044780985,182.0383780533448 185.38805970130488,179.737430223322 184.6828358208295,177.962405272061 183.72574626863934,176.18737330604927 182.46641791053116,174.08362263307208 181.15671641775407,172.37431795574958 178.38619402959011,169.2186614612874 175.81716417893767,167.1148781477532 174.15485074627213,166.26021336199483 172.54291044780985,164.87959757985664 172.0895522388164,164.5508789110463 169.87313432851806,164.09067237051204 165.79291044780985,162.64430588725372 165.1884328359738,162.38132966277772 164.2817164179869,161.46091166412225 163.62686567148194,161.19793474650942 161.66231343289837,161.26367899030447 160.45335820899345,162.05260916551924 159.5970149252098,162.2498414926522 159.34514925372787,162.38132966277772 155.51679104496725,162.57856184558477 154.40858208946884,162.77579394201166 152.04104477609508,163.4332336373045 147.50746268662624,165.33980331209023 143.72947761206888,167.64082490006695 141.6641791043803,169.2186614612874 140.05223880591802,170.92797814801452 138.44029850768857,172.90025854937267 135.97201492544264,177.10776112700114 135.11567164189182,178.94853111088742 133.70522388070822,183.55042306659743 133.3526119403541,185.1282037406054 133.0,187.69208551559132 133.0,189.33559177647112 133.10074626863934,189.86151251001866 133.3526119403541,190.25595265589072 134.0074626863934,190.71613238859572 135.31716417893767,191.17631164964405 136.8787313431967,191.3735311885539 139.69962686579674,191.2420515054837 140.75746268662624,191.3077913519228 141.76492537301965,191.57075064105447 142.67164179100655,192.22814819015912 142.97388059692457,192.55684660410043 143.52798507455736,193.67441941192374 144.43470149254426,195.05494668884785 144.9384328359738,195.71233913878677 146.95335820876062,197.35581605494372 148.9682835820131,198.2761605012929 150.47947761206888,198.73633201734629 151.6380597015377,198.8678095068026 153.40111940307543,198.8678095068026 154.8619402984623,198.8020707668038 156.5746268655639,198.4733769229788 157.58208955242299,198.0789439928776 158.53917910461314,197.35581605494372 159.74813432828523,196.63268695259467 160.5037313431967,196.04103500320343 162.06529850745574,194.13459564224468 162.92164179100655,193.47720088323695 163.67723880591802,193.01702397939516 166.95149253727868,192.754065536923 172.29104477609508,192.6883259023307 173.70149253727868,192.49110694069532" stroke="#ff3600" stroke-linecap="round" stroke-linejoin="round" stroke-width="0.5"><title>2023-05-14 4.9km</title></polyline><polyline fill="none" points="65.03910614503548,251.18830628372962 64.8379888269119,250.99145403527655 64.33519553067163,251.05707146110944 63.731843575136736,250.99145403527655 62.9273743017111,250.26966171798995 62.82681564241648,250.00719149637735 63.07821229053661,249.7447211210674 64.08379888255149,249.61348587591783 65.79329608939588,249.2197799095884 66.59776536305435,248.62922031187918 67.0,247.8418063049612 67.0,247.38248082896462 66.74860335164703,246.2669741420832 66.69832402234897,245.61079244170105 65.24022346362472,239.96759017228032 64.73743016738445,238.45834961955552 62.1229050278198,233.86497754440643 61.26815642463043,233.07753760609194 60.81564245815389,232.35571644740412 58.60335195530206,229.73090243776096 57.49720670399256,228.74659322199295 56.69273743010126,228.0247650902602 53.27374301664531,225.8592737216095 52.41899441322312,225.13744094094727 50.960893854731694,224.28436433817842 49.754189944127575,224.0218789030332 46.78770949714817,223.03755715230363 45.22905027936213,222.64382784688496 44.57541899429634,222.31571982830064 43.77094972063787,221.26577255490702 43.11731843557209,221.13452897276147 41.20670391083695,221.33139433144243 40.050279329530895,222.18447655354976 39.245810055872425,222.38134145113872 35.22346368711442,222.38134145113872 32.50837988848798,223.10317866966943 31.351955307414755,223.10317866966943 31.40223463694565,222.9719356255373 31.150837989058346,222.9719356255373 30.19553072634153,223.4312861119688 30.648044692585245,223.16880017731455 31.050279329530895,223.10317866966943 31.150837989058346,223.4969075715344 31.0,223.82501472564763 30.748603352112696,224.0218789030332 30.19553072634153,224.08750027613132 29.39106145245023,224.41560699799447 26.474860335234553,225.79365260782652 25.368715083692223,226.51548433190328 24.71508379885927,227.04045212845085 23.256983240367845,227.95914429344703 22.50279329600744,228.74659322199295 20.843575419159606,230.12462551880162 19.536312849260867,231.5026535798388 18.48044692724943,232.88067740533734 17.525139664998278,233.93059747677762 16.921787709463388,234.91489531076513 16.41899441368878,235.8991909835604 15.865921787684783,237.34282072808128 14.910614525200799,239.18016095264466 14.1061452513095,241.8705384101777 13.754189944127575,242.78920018588542 13.40223463717848,244.23280774452724 13.351955307414755,245.1514646798896 13.10055865929462,246.3325922592776 13.0,247.64495258699753 13.0,249.61348587591783 13.251396648120135,250.0728090662742 13.754189944127575,250.46651428355835 14.558659218018875,250.7946017002978 16.972067039227113,251.2539236805751 20.49162011174485,251.2539236805751 21.39664804469794,251.38515844588983 22.30167597765103,252.04133169501438 22.653631284832954,252.43503518370562 23.20670391060412,253.4192923925002 24.41340782144107,255.0597162724589 25.670391061576083,256.5032843220397 28.134078212315217,258.012464131607 29.8938547486905,258.7342439837521 30.949720670469105,258.93109283276135 32.1061452513095,258.93109283276135 32.860335195437074,258.79986027648556 34.72067039110698,258.79986027648556 36.58100558654405,258.2749296667753 38.240223463624716,257.42191611553426 40.351955307181925,255.97835102351382 41.20670391083695,255.1909499236499 42.01117318426259,253.94422868720721 42.66480446909554,253.35367531259544 43.56983240228146,252.95997263063327 44.27374301664531,252.76312116006739 46.68715083808638,252.76312116006739 47.843575418926775,252.63188679824816 52.97206703899428,252.63188679824816 54.02793296077289,252.5662696028885 55.2849162009079,252.2381834826956 56.08938547503203,251.7788625106914 57.547486033523455,250.53213178602164 57.849162011174485,250.2040441771096 58.653631284832954,249.81033872935222 61.62011173181236,249.7447211210674 64.48603351949714,249.41663293584133 65.8435754191596,249.08854451056686 66.39664804469794,248.7604558452149 66.59776536305435,248.4979847400391 66.74860335164703,248.16989564243704 66.84916201117449,247.71057050244417 66.39664804469794,245.61079244170105 66.1955307261087,243.7078600791574 65.59217877103947,241.41120681646862 64.48603351949714,238.2614917816827 63.02793296077289,235.3742335604038 62.32402234640904,234.25869699486066 61.01675977627747,232.55257687860285 60.61452513956465,231.83075487503083 59.960893854731694,231.04331136346445 58.150837988825515,229.33717901079217 54.9832402234897,226.77796830699663 54.02793296077289,226.12175808098982 51.46368715073913,224.74371347986744 49.90502793295309,224.15312163962517 49.0,223.6937718928093 47.18994413386099,223.16880017731455 45.88268156419508,222.90631408890476 45.07821229053661,222.57820626243483 44.37430167617276,222.11885490189889 43.97206703899428,221.39701609848998 43.67039106134325,221.20015076870914 43.21787709486671,221.06890716726775 41.40782122896053,221.20015076870914 40.955307262483984,221.39701609848998 40.50279329600744,221.856368198758 39.648044693050906,222.2500981958292 38.79329608939588,222.38134145113872 37.68715083785355,222.11885490189889 35.17318435758352,222.44696306440164 33.31284916191362,222.90631408890476 29.69273743033409,224.0218789030332 25.620111731812358,226.1873791469261 24.916201117215678,226.6467263387167 22.955307262716815,228.0247650902602 20.743016759864986,229.99338453030214 19.083798882784322,231.83075487503083 18.279329608893022,233.27439772014623 17.776536312885582,233.79935760225635 16.821229050401598,235.17737436803873 15.664804469328374,237.1459624004201 14.960893854731694,238.91768423866597 14.81005586613901,239.50825662887655 14.1061452513095,241.27996913177776 13.351955307414755,244.82337313331664 13.150837988825515,246.13573787885252 13.050279329763725,248.03865993625368 13.10055865929462,249.2197799095884 13.20111731858924,249.67910350332386 13.70391061436385,250.33527924929513 14.156424580840394,250.5977492791426 16.268156424630433,251.18830628372962 18.430167597718537,251.31954106816556 19.28491620114073,251.2539236805751 20.99441340775229,251.2539236805751 21.49720670399256,251.38515844588983 22.70391061459668,252.30380072587286 23.759776536142454,254.33793050487293 25.72067039133981,256.30643440724816 28.18435754184611,257.94684772385517 29.642458100570366,258.6030113699089 30.849162011174485,258.86547655946924 34.67039106134325,258.6030113699089 36.2290502791293,258.1436969182687 37.48603351949714,257.42191611553426 38.18994413432665,257.2906831173459 38.642458100570366,257.02821700595086 38.99441340775229,256.6345175507595 39.346368715167046,256.5032843220397 41.20670391083695,254.92848258308368 41.60893854754977,254.20669660408748 42.21229050285183,253.55052652399172 43.31843575416133,252.89435548341135 44.22346368711442,252.69750398409087 45.32960893865675,252.69750398409087 47.69273743010126,252.5006523980992 50.50837988848798,252.5006523980992 52.067039106274024,252.36941795964958" stroke="#ff3100" stroke-linecap="round" stroke-linejoin="round" stroke-width="0.5"><title>2023-05-11 4.9km</title></polyline></svg>