<?xml version="1.0" encoding="utf-8" ?>
<svg baseProfile="full" height="300mm" version="1.1" viewBox="0,0,200,300" width="200mm" xmlns="http://www.w3.org/2000/svg" xmlns:ev="http://www.w3.org/2001/xml-events" xmlns:xlink="http://www.w3.org/1999/xlink"><defs /><rect fill="#222222" height="300" width="200" x="0" y="0" /><text fill="#FFFFFF" style="font-size:12px; font-family:Arial; font-weight:bold;" x="10" y="20">Over 5km Runs</text><text fill="#FFFFFF" style="font-size:4px; font-family:Arial" x="10" y="280">ATHLETE</text><text fill="#FFFFFF" style="font-size:9px; font-family:Arial" x="10" y="290">litianc</text><text fill="#FFFFFF" style="font-size:4px; font-family:Arial" x="120" y="280">STATISTICS</text><text fill="#FFFFFF" style="font-size:3px; font-family:Arial" x="120" y="285">Number: 1</text><text fill="#FFFFFF" style="font-size:3px; font-family:Arial" x="120" y="290">Weekly: 1.0</text><text fill="#FFFFFF" style="font-size:3px; font-family:Arial" x="141" y="285">Total: 4.9 km</text><text fill="#FFFFFF" style="font-size:3px; font-family:Arial" x="141" y="290">Avg: 4.9 km</text><text fill="#FFFFFF" style="font-size:3px; font-family:Arial" x="167" y="285">Min: 4.9 km</text><text fill="#FFFFFF" style="font-size:3px; font-family:Arial" x="167" y="290">Max: 4.9 km</text><polyline fill="none" points="175.1173184355721,183.56491885101423 174.51396648120135,182.97436210571323 173.00558659248054,183.17121438321192 171.19553072657436,182.97436210571323 168.78212290536612,180.80898515391164 168.48044692724943,180.02157448907383 169.2346368720755,179.23416336311493 172.2513966485858,178.84045762754977 177.37988826818764,177.65933972864877 179.7932960903272,175.88766093552113 181.0,173.5254189147381 181.0,172.14744248683564 180.24581005610526,168.8009224261623 180.09497206751257,166.83237732504494 175.72067039180547,149.90277051669545 174.21229050308466,145.37504885857925 166.36871508415788,131.59493263310287 163.80446927435696,129.2326128181303 162.44692737516016,127.06714934203774 155.81005586590618,119.19270731322467 152.4916201122105,116.23977966583334 150.07821229100227,114.07429527060594 139.82122904993594,107.57782116474118 137.256983240135,105.4123228227254 132.8826815644279,102.85309301444795 129.26256983261555,102.06563670898322 120.36312849167734,99.11267145676538 115.68715083878487,97.93148354056757 113.72625698335469,96.94715948472731 111.31284916214645,93.79731766460463 109.35195530764759,93.4035869181389 103.62011173274368,93.99418299412355 100.150837989524,96.55342966050375 97.73743016831577,97.14402435324155 85.67039106134325,97.14402435324155 77.52513966616243,99.30953600886278 74.05586592294276,99.30953600886278 74.20670391153544,98.91580687649548 73.4525139676407,98.91580687649548 70.58659217972308,100.2938583358191 71.94413407891989,99.50640053185634 73.15083798859268,99.30953600886278 73.4525139676407,100.49072271445766 73.00000000093132,101.47504417679738 72.24581005703658,102.06563670898322 70.58659217972308,102.26250082824845 68.17318435851485,103.2468209938379 59.42458100616932,107.38095782336313 56.10614525154233,109.54645299562253 54.14525139704347,111.12135638529435 49.770949721336365,113.87743288022466 47.50837988872081,116.23977966583334 42.53072625771165,120.37387655628845 38.60893854871392,124.50796073942911 35.44134078267962,128.6420322158374 32.575418995693326,131.79179243021645 30.765363128855824,134.74468593217898 29.25698324199766,137.697572950623 27.597765363752842,142.02846218412742 24.731843575835228,147.54048285784665 22.31843575462699,155.61161523044575 21.262569832615554,158.36760055751074 20.206703911535442,162.6984232334653 20.055865922942758,165.45439403958153 19.301675979048014,168.99777677771635 19.0,172.9348577609053 19.0,178.84045762754977 19.754189944826066,180.2184271987062 21.262569832615554,181.39954285055865 23.675977654755116,182.38380510080606 30.91620111837983,183.7617710416671 41.474860335700214,183.7617710416671 44.189944135025144,184.15547533752397 46.90502793341875,186.12399508501403 47.960893855430186,187.30510555102956 49.62011173274368,190.25787717744242 53.24022346455604,195.1791488173185 57.01117318496108,199.50985296606086 64.4022346381098,204.03739239473362 69.68156424630433,206.20273195113987 72.84916201140732,206.79327849822585 76.31843575462699,206.79327849822585 78.58100558724254,206.39958082942758 84.16201117448509,206.39958082942758 89.74301676079631,204.82478900020942 94.72067039180547,202.26574834645726 101.05586592201144,197.93505307042506 103.62011173274368,195.57284977077506 106.03351955395192,191.83268606150523 107.99441340751946,190.0610259376699 110.70949720684439,188.8799178916961 112.82122905086726,188.28936348005664 120.06145251449198,188.28936348005664 123.53072625678033,187.89566039456986 138.9162011174485,187.89566039456986 142.0837988834828,187.69880880857818 145.85474860388786,186.7145504479995 148.2681564250961,185.33658753195778 152.6424581008032,181.5963953579776 153.54748603422195,180.6121325311251 155.9608938554302,179.43101618788205 164.86033519543707,179.23416336311493 173.45810055918992,178.2498988074949 177.53072625771165,177.26563353161328 179.18994413502514,176.28136753558647 179.7932960903272,175.49395421997178 180.24581005610526,174.5096869271947 180.54748603422195,173.1317115072161 179.18994413502514,166.83237732504494 178.58659217879176,161.12358023738489 176.7765363138169,154.23362044931855 173.45810055918992,144.7844753449317 169.0837988825515,136.122700681095 166.97206703945994,132.77609098446555 163.0502793295309,127.65773063572124 161.84357541892678,125.4922646250343 159.88268156535923,123.12993409030605 154.45251396670938,118.01153703220189 144.94972067140043,110.33390492084436 142.0837988834828,108.36527424282394 134.39106145314872,104.231140439515 129.71508379932493,102.45936491875909 127.0,101.08131567831151 121.56983240228146,99.50640053185634 117.64804469328374,98.71894226665609 115.2346368720755,97.73461878718808 113.12290502898395,96.35656470560934 111.91620111744851,94.19104829535354 111.01117318402976,93.60045230598189 109.65363128576428,93.20672150165774 104.22346368711442,93.60045230598189 102.86592178791761,94.19104829535354 101.50837988872081,95.56910459615756 98.94413407985121,96.75029458734207 96.37988826911896,97.14402435324155 93.06145251449198,96.35656470560934 85.51955307368189,97.34088919311762 79.93854748643935,98.71894226665609 69.07821229100227,102.06563670898322 56.860335195437074,108.5621374406619 54.748603352345526,109.94017901609186 48.86592178884894,114.07429527060594 42.22905028052628,119.98015359079 37.251396648585796,125.4922646250343 34.83798882737756,129.82319316035137 33.32960893958807,131.39807280665264 30.463687151670456,135.53212310397066 26.994413408450782,141.4378872012021 24.882681564427912,146.7530527159106 24.43016759864986,148.52476988651324 22.31843575462699,153.83990739518777 20.055865922942758,164.4701193998335 19.452513966709375,168.40721363644116 19.150837989524007,174.11597980861552 19.301675979048014,177.65933972864877 19.603351956233382,179.03731050982606 21.11173184402287,181.00583774782717 22.469273743219674,181.79324783734046 28.80446927435696,183.56491885101423 35.29050279315561,183.95862320438027 37.854748603887856,183.7617710416671 42.983240224421024,183.7617710416671 44.49162011221051,184.15547533752397 48.11173184495419,186.91140217753127 51.27932960912585,193.01379151444416 57.16201117448509,198.91930322162807 64.55307262670249,203.8405431715073 68.92737430240959,205.80903410958126 72.54748603422195,206.5964296782622 84.01117318496108,205.80903410958126 88.68715083785355,204.43109075468965 92.45810055918992,202.26574834645726 94.56983240321279,201.8720493519213 95.92737430240959,201.08465101767797 96.98324022442102,199.90355265222024 98.03910614550114,199.50985296606086 103.62011173274368,194.78544774919283 104.8268156433478,192.62008981220424 106.63687150925398,190.65157957188785 109.95530726294965,188.6830664500594 112.67039106227458,188.0925119521562 115.98882681690156,188.0925119521562 123.07821229100227,187.50195719418116 131.52513966616243,187.50195719418116 136.2011173190549,187.10825387889054" stroke="yellow" stroke-linecap="round" stroke-linejoin="round" stroke-width="0.5"><title>2023-05-11 4.9km</title></polyline></svg>