<?xml version="1.0" encoding="utf-8" ?>
<svg baseProfile="full" height="300mm" version="1.1" viewBox="0,0,200,300" width="200mm" xmlns="http://www.w3.org/2000/svg" xmlns:ev="http://www.w3.org/2001/xml-events" xmlns:xlink="http://www.w3.org/1999/xlink"><defs /><rect fill="#222222" height="300" width="200" x="0" y="0" /><text fill="#FFFFFF" style="font-size:12px; font-family:Arial; font-weight:bold;" x="10" y="20">Over 3km Runs</text><text fill="#FFFFFF" style="font-size:4px; font-family:Arial" x="10" y="280">ATHLETE</text><text fill="#FFFFFF" style="font-size:9px; font-family:Arial" x="10" y="290">litianc</text><text fill="#FFFFFF" style="font-size:4px; font-family:Arial" x="120" y="280">STATISTICS</text><text fill="#FFFFFF" style="font-size:3px; font-family:Arial" x="120" y="285">Number: 4</text><text fill="#FFFFFF" style="font-size:3px; font-family:Arial" x="120" y="290">Weekly: 2.0</text><text fill="#FFFFFF" style="font-size:3px; font-family:Arial" x="141" y="285">Total: 19.0 km</text><text fill="#FFFFFF" style="font-size:3px; font-family:Arial" x="141" y="290">Avg: 4.8 km</text><text fill="#FFFFFF" style="font-size:3px; font-family:Arial" x="167" y="285">Min: 4.3 km</text><text fill="#FFFFFF" style="font-size:3px; font-family:Arial" x="167" y="290">Max: 5.0 km</text><polyline fill="none" points="71.62631578929722,93.20917256380199 67.67320574168116,93.61380203178851 65.19282296625897,93.41148732730653 60.309569377917796,93.91727397765499 58.91435406729579,94.72653184802039 56.89904306223616,97.255456586543 54.961244019214064,99.17743319924921 53.566028708126396,100.08784130844288 52.01578947389498,100.9982482183259 49.92296650726348,101.90865392948035 47.365071770269424,102.61674643104197 45.81483253603801,102.8190584409167 42.63684210553765,102.92021442356054 39.768899521790445,102.313278304704 35.81578947370872,100.69477938179625 35.04066985659301,100.29015405871905 34.49808612419292,99.48090270214016 33.33540669828653,98.67165039834799 31.552631579339504,96.64851549314335 29.769856459461153,93.20917256380199 29.14976076548919,92.60222791717388 28.142105263192207,91.99528273788746 26.901913875713944,91.48949468100909 21.631100478116423,91.38833702541888 16.82535885134712,90.68023302062647 16.050239234231412,90.27560183493188 15.66267942590639,89.87097041250672 15.507655502296984,89.36518080130918 15.35263157915324,86.8362271929509 15.740191387478262,84.10494690295309 16.360287080984563,80.56438231497305 17.600478468928486,75.91104127303697 18.60813397122547,73.68551926495275 19.77081339713186,70.75186566857155 20.31339712906629,69.6390972538502 24.809090909082443,62.962449142185505 25.739234449807554,61.95083016506396 29.769856459461153,58.00550200656289 32.71531100478023,55.57759656116832 35.27320574177429,54.161314445664175 36.97846889961511,53.453172299661674 37.98612440144643,52.84619273961289 42.24928229674697,51.12641442497261 46.89999999990687,49.710123187920544 53.876076554879546,48.4961569600855 55.34880382800475,48.59732089401223 56.04641148308292,49.001976480998565 57.906698564533144,50.62059645913541 59.689473683945835,51.025250861479435 60.69712918670848,51.025250861479435 61.31722488068044,50.721760082116816 62.09234449733049,50.114778123330325 62.78995215287432,49.811286943848245 63.87511961720884,49.60895941691706 65.34784689033404,49.710123187920544 69.1459330143407,51.025250861479435 74.10669856471941,53.04851931886515 79.06746411509812,55.8810852082097 82.0129186604172,58.10666454862803 83.9507177034393,59.826425493869465 88.2913875603117,64.58103642513743 89.60909090936184,66.60426519869361 93.01961722504348,72.37043470988283 94.02727272734046,74.69712106598308 94.8799043064937,77.32727881945902 95.5,77.63075791636948 95.5,77.12495934782783 95.26746411481872,76.82148002908798 94.56985645927489,74.89944124850444 92.32200956949964,70.24606206594035 91.08181818202138,68.42516603099648 90.61674641165882,67.51471621438395 89.29904306214303,65.49149010633118 86.8186602871865,62.3554779337137 85.96602870803326,61.64734418335138 83.09808612428606,58.51131456787698 79.84258373221382,56.08341089903843 73.56411483278498,52.13804924604483 70.54114832542837,50.721760082116816 66.66555023938417,49.30546801566379 63.56507177045569,48.59732089401223 62.4023923445493,47.990337069670204 61.394736842252314,46.77636782109039 60.92966507188976,46.57403940561926 57.596650717779994,46.16938239708543 55.813875598367304,47.4845168084139 55.19377990439534,47.58568089042092 54.3411483252421,47.4845168084139 47.132535885088146,48.59732089401223 42.7918660286814,49.710123187920544 39.226315789390355,51.025250861479435 36.2033492824994,52.54270275973249 31.630143540445715,55.37527072231751 27.05693779885769,59.219451531302184 22.09617224847898,65.08684417401673 20.235885167494416,67.91936072532553 19.22822966473177,69.84141891711624 17.212918660137802,74.49480082443915 16.127751195803285,77.63075791636948 15.507655502296984,80.56438231497305 14.5,86.93738551525166 14.577511961571872,88.96054884570185 14.732535885181278,89.66865461232373 15.120095693971962,90.37675965350354 15.740191387478262,90.98370625427924 16.360287080984563,91.28717935498571 20.08086124388501,92.19759785674978 27.05693779885769,92.19759785674978 28.297129186801612,92.39991291676415 29.227272727061063,93.20917256380199 31.08755980897695,96.24388780148001 32.40526315756142,98.0647105484968 33.955502392724156,99.68321563018253 35.428229664918035,100.89709195418982 39.30382775142789,102.71790244337171 40.699043062049896,103.22368228348205 43.334449760615826,103.83061760297278 47.442583731841296,103.83061760297278 49.457894736900926,103.52715000981698 50.930622009560466,102.61674643104197 52.01578947389498,102.21212223288603 53.798564593307674,101.30171692208387 58.68181818164885,96.44620167685207" stroke="#ffff00" stroke-linecap="round" stroke-linejoin="round" stroke-width="0.5"><title>2023-05-17 4.3km</title></polyline><polyline fill="none" points="182.92616822384298,74.50662107160315 182.6990654207766,73.4198576452909 182.16915887827054,72.23429554852191 180.12523364508525,68.9739890449564 178.53551401849836,66.10885820840485 177.2485981308855,64.72568724496523 176.26448598131537,63.14491695869947 174.2962616821751,61.168948895297945 173.61495327111334,60.08216399466619 172.70654205605388,58.99537734425394 170.58691588789225,57.21699541423004 170.5112149529159,56.920597970776726 170.96542056044564,56.32780269253999 171.57102803746238,56.920597970776726 172.25233644852415,57.80978991149459 170.96542056044564,56.920597970776726 171.41962616797537,56.03140485833865 171.116822429467,55.83380622963887 170.58691588789225,56.03140485833865 169.6785046728328,56.8217987936805 169.4514018688351,56.8217987936805 166.49906542059034,54.64821324386867 165.13644859800115,53.956616373732686 163.01682242983952,52.178221168287564 161.72990654222667,51.38782179512782 157.26355140190572,49.90582047548378 153.32710280362517,48.81901743996423 151.88878504699096,48.028614132956136 150.98037383146584,46.84300743736094 150.67757009342313,46.744206785399 149.31495327083394,46.44780474243453 147.8009345792234,46.54660543781938 146.74112149514258,46.84300743736094 145.83271028008312,47.929813654278405 145.3028037380427,48.22621504653944 143.7130841119215,48.423815902206115 139.39813084108755,48.423815902206115 137.27850467292592,48.72021707735257 133.03925233660266,49.90582047548378 131.67663551401347,50.399821276951116 125.2420560750179,53.462618175602984 123.87943925196305,54.253015119349584 120.01869158865884,56.920597970776726 117.3691588784568,59.19297504698625 115.17383177578449,61.36654596205335 112.67570093460381,64.42929309810279 110.4803738319315,67.78841913916403 108.58785046776757,71.2463255438488 107.37663551419973,74.2102312198258 105.63551401905715,79.84161615010817 105.2570093460381,80.6319822051446 104.5,86.16451867984142 104.5,87.9428243447328 104.87850467255339,89.72112532524625 105.2570093460381,90.41268555261195 106.08971962658688,91.0054508978501 110.63177570095286,91.99339198262896 114.26542056072503,91.99339198262896 116.08224299037829,91.79580388148315 117.14205607492477,92.09218601189787 117.74766355147585,92.28977402631426 118.35327102802694,92.88253772328608 118.88317757006735,93.57409471151186 120.39719626167789,96.43910897301976 122.13831775728613,98.51376688177697 123.27383177587762,99.50169697840465 125.62056074757129,101.08238212525612 128.11869158921763,102.26789355644723 131.22242990648374,103.15702576347394 133.190654205624,103.35461053962354 135.00747663574293,103.25581815867918 136.14299065433443,103.55219525750726 138.94392523355782,102.95944092981517 141.51775700924918,101.77393071318511 143.1074766353704,100.78600394231034 145.45420560752973,99.10652511293301 146.66542056109756,98.0198012914625 148.25514018675312,95.74755491956603 149.23925233632326,95.0560001579579 150.37476635491475,94.46323836984811 153.7813084111549,94.26565099140862 157.8691588784568,94.16685728071025 161.42710280325264,93.77168229245581 167.33177570067346,93.57409471151186 168.39158878475428,93.17891937628156 170.81401869142428,91.59821572218789 172.6308411215432,89.918714033789 175.50747663527727,89.42474215384573 182.77476635528728,88.93076991243288 183.98598130838946,88.63438639382366 184.89439252298325,88.04161896673031 185.5,86.85608255071566 185.42429906502366,84.88018389674835 184.59158878494054,79.9404119575629 183.6074766353704,75.9885683786124 182.09345794422552,72.43188937596278 179.7467289720662,67.88721671095118 179.06542056053877,66.80044262728188 177.02149532688782,64.33049502054928 176.5672897193581,63.441311669535935 175.65887850429863,62.156933650083374 172.25233644852415,58.50138283340493 170.66261682240292,57.41459363809554 169.90560747636482,56.52540117612807 167.48317757016048,54.94461168569978 166.72616822412238,54.15421555185458 164.9850467289798,53.265018795093056 163.3196261683479,51.88182151154615 161.65420560725033,51.19022180692991 157.79345794394612,50.20222099975217 155.6738317757845,49.51061957416823 153.10000000009313,48.81901743996423 152.04018691601232,48.22621504653944 151.13177570095286,46.744206785399 150.45046728942543,46.54660543781938 148.0280373832211,46.64540611882694 147.34672897215933,46.84300743736094 145.75700934557244,47.929813654278405 144.99999999953434,48.22621504653944 138.6411214955151,48.52261630818248 131.75233644852415,50.399821276951116 128.8000000002794,51.68422166840173 125.46915887854993,53.36381849262398 122.74392523383722,55.33980940526817 122.21401869179681,55.43860879924614 120.54859813116491,56.42660194163909 118.05046728951856,58.303784928401 115.24953271029517,61.26774743583519 112.07009345805272,65.21967720013345 110.10186915891245,68.9739890449564 109.11775700980797,70.35715130297467 108.36074766330421,72.13549861306092 107.67943925224245,73.22226410714211 106.77102803764865,75.29699337366037 106.46822429914027,76.28495744953398 105.02990654204041,82.31150699977297 104.5,87.3500563101843 104.5,89.1283588524675 104.87850467255339,89.918714033789 105.40841121505946,90.51147981279064 106.31682242965326,91.0054508978501 107.60373831773177,91.30183337489143 110.85887850448489,91.89459793927381 116.8392523364164,91.79580388148315 117.74766355147585,92.19098002644023 119.2616822430864,93.6728885093471 120.24579439265653,95.54996791732265 121.45700934622437,97.32824885757873 122.97102803736925,99.00773211068008 124.71214953251183,100.39083282876527 125.84766355110332,101.18117482389789 128.11869158921763,102.16910101682879 133.03925233660266,103.35461053962354 135.9158878508024,103.35461053962354 137.884112149477,103.05823335406603 139.62523364461958,102.5642710889224 141.21495327120647,101.97151589393616 145.15140186948702,99.2053181011579 146.58971962612122,98.0198012914625 147.72523364471272,96.340315580077 148.5579439252615,95.4511743944604 150.07196261687204,94.5620320372982 154.23551401868463,94.0680635550525 156.809345794376,94.16685728071025 158.70186915900558,93.96926981513388" stroke="#ff0000" stroke-linecap="round" stroke-linejoin="round" stroke-width="0.5"><title>2023-05-15 5.0km</title></polyline><polyline fill="none" points="95.5,241.3700281943311 95.04664179077372,241.2714183383505 91.41977611929178,241.3700281943311 90.05970149254426,240.77836884110002 90.13526119338349,240.48253896989627 90.51305970130488,240.18670896848198 93.30876865657046,238.90477746212855 94.21548507455736,238.3131159443874 94.81996268639341,237.6228435166995 95.5,236.14368593355175 95.34888059645891,233.48119410063373 94.29104477586225,229.04368433129275 93.83768656663597,226.67700050369604 93.0820895517245,224.21169600996654 91.79757462674752,221.7463824948063 91.34421641752124,220.56302880332805 89.75746268639341,217.703248801874 88.54850746272132,215.73097965924535 87.3395522381179,214.350387824059 85.97947761137038,212.37810886616353 82.12593283550814,208.53214829153148 80.3125,206.9543119611917 72.98320895479992,201.62908706412418 72.07649253681302,201.23462428618222 68.75186567148194,200.44569803762715 66.71175373112783,199.75538681214675 64.97388059645891,199.45953892741818 63.3115671640262,198.96645883086603 62.32929104473442,198.37476223893464 61.42257462674752,197.28998380398843 60.893656716216356,196.8955184854567 59.458022388163954,196.69828573975246 57.72014925349504,196.79690211970592 57.04011193988845,196.994134836772 55.90671641752124,197.88168134883745 54.017723880242556,198.769226691511 49.9375,198.67061060020933 44.04384328331798,199.75538681214675 42.53264925349504,200.24846633087145 39.736940298229456,201.62908706412418 37.69682835787535,202.3193963697413 35.65671641752124,203.206935866212 30.89645522320643,206.36262238468044 28.78078358154744,208.0390748353093 25.30503731314093,211.39196722197812 22.660447761416435,214.5476154020871 21.67817164165899,216.42127451580018 18.731343283317983,220.95748026511865 16.8423507460393,225.78949192498112 15.708955223672092,229.14229597715894 15.331156716216356,231.70619370002532 14.802238805685192,233.7770270462497 14.5,236.24229654012015 14.575559701304883,239.39782833034405 14.953358208294958,240.28531898348592 15.935634328052402,241.17280846764334 17.597947760950774,241.56724786304403 20.4692164179869,241.86307725822553 21.527052238583565,241.96168702782597 22.660447761416435,241.76446747448063 23.94496268639341,241.76446747448063 27.345149253495038,242.15890652337112 28.32742537278682,243.04639353987295 31.95429104473442,247.6810289658606 33.8432835820131,249.75181321357377 35.88339552190155,251.23094092239626 37.54570895479992,252.11841598927276 40.49253731314093,253.10449802596122 42.1548507460393,253.30171426018933 46.68843283550814,253.00588988728123 48.652985074557364,252.71006538445363 50.088619402609766,252.41424075188115 51.902052238583565,251.72398277069442 53.715485074557364,250.54068172897678 56.4356343280524,248.46989990578732 57.72014925349504,246.99076613568468 58.17350746225566,246.10328431462403 59.306902984622866,245.11719203169923 61.573694029822946,244.22970774275018 64.29384328331798,244.03248885349603 68.07182835787535,244.13109830534086 70.7164179100655,243.83526990615064 75.7789179100655,243.9338793871575 77.5923507460393,243.63805090112146 78.87686567101628,243.04639353987295 82.95708955219015,239.49643846048275 83.8638059697114,239.29921818565344 86.50839552190155,239.29921818565344 88.54850746272132,239.20060802641092 89.53078358154744,239.00338766467758 91.41977611929178,239.00338766467758 92.93097014911473,238.80616724531865 93.53544776095077,238.70755701413145 94.29104477586225,238.41172623360762 94.89552238769829,237.6228435166995 95.1222014920786,237.32701226009522 95.34888059645891,236.14368593355175 95.27332089561969,233.18536102538928 94.74440298462287,230.72008034586906 94.21548507455736,229.24090760829858 94.06436567148194,228.05756707995897 93.0820895517245,224.6061453349539 92.02425373112783,221.9436079080333 90.58861940260977,219.28105995903024 88.69962686533108,216.12543394957902 86.73507462674752,213.56147693359526 82.57929104426876,208.82799219188746 78.72574626840651,205.67231722158613 76.23227611929178,204.39032004296314 73.81436567148194,202.3193963697413 73.13432835787535,201.82631836656947 69.80970149254426,201.13600855576806 63.68936567148194,198.96645883086603 62.78264925349504,198.57199449412292 61.42257462674752,197.19136749615427 60.440298506990075,196.79690211970592 57.49347014911473,196.8955184854567 55.68003731314093,198.0789137482643 54.39552238769829,198.37476223893464 54.017723880242556,198.57199449412292 48.27518656710163,198.86784276837716 46.612873133737594,199.16369091300294 43.0615671640262,200.14985045592766 36.261194029822946,203.00970496807713 30.5942164179869,206.46123735007131 27.496268656570464,208.82799219188746 25.078358208294958,211.39196722197812 22.660447761416435,214.350387824059 18.958022388163954,220.6616416904726 17.673507462721318,223.42279666633112 15.557835821062326,230.32563459989615 15.028917910065502,232.69230561086442 14.5,236.53812827338697 14.5,239.00338766467758 14.651119402609766,239.79226876498433 15.028917910065502,240.38392898382153 16.011194029357284,241.07419858284993 17.97574626840651,241.76446747448063 20.318097014911473,242.0602967828163 24.549440298229456,241.86307725822553 26.136194029822946,241.96168702782597 27.64738805918023,242.3561259615817 29.00746268639341,243.34222228522412 29.46082089515403,243.83526990615064 30.291977611370385,245.5116291178274 31.652052238583565,247.58242003322812 32.40764925349504,248.56850870815106 35.43003731314093,251.03372408234281 38.45242537278682,252.41424075188115 40.7192164179869,253.10449802596122 42.457089552190155,253.30171426018933 45.10167910438031,253.30171426018933 47.292910447344184,253.2031061501475 49.861940298229456,252.71006538445363 51.3731343280524,252.11841598927276 52.808768656570464,251.03372408234281 54.6222014920786,249.949030428892 55.75559701491147,249.06155250477605 58.097947760950774,246.20189346332336 59.38246268639341,245.21580132481176 60.51585820876062,244.52553596906364 65.42723880568519,244.13109830534086 73.4365671640262,244.03248885349603 75.55223880568519,243.73666041099932" stroke="#ff2900" stroke-linecap="round" stroke-linejoin="round" stroke-width="0.5"><title>2023-05-14 4.9km</title></polyline><polyline fill="none" points="182.55865921778604,241.7824594255071 182.25698324060068,241.4871810528566 181.50279329624027,241.58560719160596 180.59776536328718,241.4871810528566 179.39106145268306,240.40449257695582 179.24022346362472,240.0107872445369 179.61731843603775,239.61708168155747 181.1256983242929,239.42022881377488 183.68994413409382,238.8296698643244 184.8966480451636,237.94383046776056 185.5,236.76270945736906 185.5,236.07372124341782 185.12290502805263,234.40046121308114 185.0474860337563,233.41618866252247 182.86033519590273,224.95138525834773 182.10614525154233,222.68752442928962 178.18435754207894,215.79746631655144 176.90223463717848,214.61630640906515 176.22346368758008,213.53357467101887 172.9050279329531,209.59635365661234 171.24581005610526,208.11988983291667 170.03910614550114,207.03714763530297 164.91061452496797,203.7889105823706 163.6284916200675,202.7061614113627 161.44134078221396,201.42654650722397 159.63128491630778,201.0328183544916 155.18156424583867,199.5563357283827 152.84357541939244,198.96574177028378 151.86312849167734,198.47357974236365 150.65642458107322,196.89865883230232 149.6759776538238,196.70179345906945 146.81005586637184,196.99709149706177 145.075418994762,198.27671483025188 143.86871508415788,198.57201217662077 137.83519553067163,198.57201217662077 133.76256983308122,199.6547680044314 132.02793296147138,199.6547680044314 132.10335195576772,199.45790343824774 131.72625698382035,199.45790343824774 130.29329608986154,200.14692916790955 130.97206703945994,199.75320026592817 131.57541899429634,199.6547680044314 131.72625698382035,200.24536135722883 131.50000000046566,200.7375220883987 131.1229050285183,201.0328183544916 130.29329608986154,201.13125041412422 129.08659217925742,201.62341049691895 124.71229050308466,203.69047891168157 123.05307262577116,204.77322649781127 122.07262569852173,205.56067819264717 119.88547486066818,206.93871644011233 118.7541899443604,208.11988983291667 116.26536312885582,210.18693827814423 114.30446927435696,212.25398036971455 112.72067039133981,214.3210161079187 111.28770949784666,215.89589621510822 110.38268156442791,217.3723429660895 109.62849162099883,218.8487864753115 108.79888268187642,221.0142310920637 107.36592178791761,223.77024142892333 106.1592178773135,227.80580761522288 105.63128491630778,229.18380027875537 105.10335195576772,231.34921161673265 105.02793296147138,232.72719701979076 104.650837989524,234.49888838885818 104.5,236.46742888045264 104.5,239.42022881377488 104.87709497241303,240.1092135993531 105.63128491630778,240.69977142527932 106.83798882737756,241.19190255040303 110.45810055918992,241.88088552083354 115.7374301678501,241.88088552083354 117.09497206751257,242.07773766876198 118.45251396670938,243.06199754250702 118.9804469277151,243.65255277551478 119.81005586637184,245.1289385887212 121.62011173227802,247.58957440865925 123.50558659248054,249.75492648303043 127.2011173190549,252.0186961973668 129.84078212315217,253.10136597556993 131.42458100570366,253.39663924911292 133.1592178773135,253.39663924911292 134.29050279362127,253.1997904147138 137.08100558724254,253.1997904147138 139.87150838039815,252.4123945001047 142.36033519590273,251.13287417322863 145.52793296100572,248.96752653521253 146.81005586637184,247.78642488538753 148.01675977697596,245.9163430307526 148.99720670375973,245.03051296883496 150.3547486034222,244.43995894584805 151.41061452543363,244.14468174002832 155.030726257246,244.14468174002832 156.76536312839016,243.94783019728493 164.45810055872425,243.94783019728493 166.0418994417414,243.8494044042891 167.92737430194393,243.35727522399975 169.13407821254805,242.6682937659789 171.3212290504016,240.7981976789888 171.77374301711097,240.30606626556255 172.9804469277151,239.71550809394103 177.43016759771854,239.61708168155747 181.72905027959496,239.12494940374745 183.76536312885582,238.63281676580664 184.59497206751257,238.14068376779323 184.8966480451636,237.7469771099859 185.12290502805263,237.25484346359735 185.27374301711097,236.56585575360805 184.59497206751257,233.41618866252247 184.29329608939588,230.56179011869244 183.38826815690845,227.11681022465928 181.72905027959496,222.39223767246585 179.54189944127575,218.0613503405475 178.48603351972997,216.38804549223278 176.52513966476545,213.82886531786062 175.9217877094634,212.74613231251715 174.94134078267962,211.56496704515303 172.2262569833547,209.00576851610094 167.4748603357002,205.16695246042218 166.0418994417414,204.18263712141197 162.19553072657436,202.1155702197575 159.85754189966246,201.22968245937955 158.5,200.54065783915576 155.78491620114073,199.75320026592817 153.82402234664187,199.35947113332804 152.61731843603775,198.86730939359404 151.56145251449198,198.17828235280467 150.95810055872425,197.09552414767677 150.50558659201488,196.80022615299094 149.82681564288214,196.60336075082887 147.1117318435572,196.80022615299094 146.4329608939588,197.09552414767677 145.7541899443604,197.78455229807878 144.4720670399256,198.37514729367103 143.18994413455948,198.57201217662077 141.530726257246,198.17828235280467 137.75977653684095,198.6704445965588 134.96927374321967,199.35947113332804 129.53910614550114,201.0328183544916 123.43016759771854,204.28106872033095 122.37430167617276,204.97008950804593 119.43296089442447,207.03714763530297 116.11452514026314,209.990076795395 113.6256983242929,212.74613231251715 112.41899441368878,214.91159658017568 111.66480446979403,215.69903640332632 110.23184357583523,217.76606155198533 108.49720670422539,220.71894360060105 107.44134078221396,223.3765263579553 107.21508379932493,224.26238494325662 106.1592178773135,226.91995369759388 105.02793296147138,232.23505969991675 104.72625698335469,234.20360681822058 104.575418994762,237.05798990430776 104.650837989524,238.8296698643244 104.80167597811669,239.51865525491303 105.55586592201144,240.5029188739136 106.23463687160984,240.89662391867023 109.40223463717848,241.7824594255071 112.6452513965778,241.97931160219014 113.92737430194393,241.88088552083354 116.49162011221051,241.88088552083354 117.24581005610526,242.07773766876198 119.0558659224771,243.45570108876564 120.63966480456293,246.50689575722208 123.58100558724254,249.45965161081403 127.27653631335124,251.92027158575365 129.4636871512048,252.90451705479063 131.27374301711097,253.2982148391311 137.00558659248054,252.90451705479063 139.34357541892678,252.21554537734482 141.22905027959496,251.13287417322863 142.2849162016064,250.93602467596065 142.9636871512048,250.54232550883899 143.4916201122105,249.95177632611012 144.01955307275057,249.75492648303043 146.81005586637184,247.3927238745964 147.4134078216739,246.31004490610212 148.318435754627,245.32578978594393 149.97765363147482,244.3415332250297 151.3351955311373,244.0462559760781 152.99441340845078,244.0462559760781 156.53910614550114,243.75097859709058 160.76256983308122,243.75097859709058 163.10055865952745,243.55412693944527" stroke="#ff2200" stroke-linecap="round" stroke-linejoin="round" stroke-width="0.5"><title>2023-05-11 4.9km</title></polyline></svg>