<?xml version="1.0" encoding="utf-8" ?>
<svg baseProfile="full" height="300mm" version="1.1" viewBox="0,0,200,300" width="200mm" xmlns="http://www.w3.org/2000/svg" xmlns:ev="http://www.w3.org/2001/xml-events" xmlns:xlink="http://www.w3.org/1999/xlink"><defs /><rect fill="#222222" height="300" width="200" x="0" y="0" /><text fill="#FFFFFF" style="font-size:12px; font-family:Arial; font-weight:bold;" x="10" y="20">Over 3km Runs</text><text fill="#FFFFFF" style="font-size:4px; font-family:Arial" x="10" y="280">ATHLETE</text><text fill="#FFFFFF" style="font-size:9px; font-family:Arial" x="10" y="290">litianc</text><text fill="#FFFFFF" style="font-size:4px; font-family:Arial" x="120" y="280">STATISTICS</text><text fill="#FFFFFF" style="font-size:3px; font-family:Arial" x="120" y="285">Number: 6</text><text fill="#FFFFFF" style="font-size:3px; font-family:Arial" x="120" y="290">Weekly: 1.5</text><text fill="#FFFFFF" style="font-size:3px; font-family:Arial" x="141" y="285">Total: 28.9 km</text><text fill="#FFFFFF" style="font-size:3px; font-family:Arial" x="141" y="290">Avg: 4.8 km</text><text fill="#FFFFFF" style="font-size:3px; font-family:Arial" x="167" y="285">Min: 4.3 km</text><text fill="#FFFFFF" style="font-size:3px; font-family:Arial" x="167" y="290">Max: 5.1 km</text><polyline fill="none" points="83.16056338022463,68.6329412140185 82.82253521122038,67.57416066643782 81.87605633819476,65.63305816572392 79.5098591549322,61.750834412756376 78.15774647891521,60.16264476208016 77.68450704216957,59.19208236009581 76.60281690140255,57.78035244054627 73.56056338036433,54.95688268262893 69.23380281683058,51.9569315740373 68.69295774656348,51.427526887331624 67.8140845070593,51.16282436955953 66.80000000004657,50.545184709713794 65.2450704225339,50.10401313658804 61.39154929574579,48.51579279982252 57.53802816895768,47.192272656131536 56.52394366194494,46.48639405751601 55.780281690182164,45.251104521448724 55.30704225320369,44.809929074021056 54.29295774619095,44.721693945582956 53.27887323941104,44.721693945582956 51.65633802791126,45.16286945785396 50.507042253622785,45.95698456640821 47.93802816909738,46.309924278990366 46.450704225338995,46.309924278990366 43.74647887283936,47.10403787641553 40.29859154927544,47.633446360065136 34.890140844741836,49.398137947835494 32.997183098457754,50.4569504209212 30.766197182703763,52.133399699639995 28.805633802665398,53.45690899447072 27.45352112664841,54.78041538357502 24.81690140813589,56.54508604854345 23.870422535110265,57.515652712318115 22.180281690089032,58.83915019017877 21.030985915102065,60.51557615731144 19.949295774567872,62.45669513643952 16.43380281655118,70.75049673067406 15.892957746284083,71.4563469166169 15.081690140534192,73.48566159716574 14.946478873025626,74.63266252510948 14.60845070425421,75.86789185326779 14.676056337775663,76.75019696640084 14.270422534784302,81.07347335509257 14.338028168771416,81.8675411582808 14.676056337775663,83.19098517240491 15.284507042029873,83.72036196454428 16.02816901379265,84.16150893643498 19.949295774567872,85.04380191117525 24.073239436373115,84.51442628115183 25.42535211215727,84.60265558504034 26.304225351894274,85.04380191117525 26.777464788639918,85.6614062252338 28.129577464656904,88.39650343928952 28.805633802665398,89.3670188227552 30.49577464768663,91.21981657971628 32.0507042251993,92.45501192111988 33.605633802711964,93.5137487706379 34.6197183097247,94.04311649798183 36.78309859149158,94.66071159258718 38.946478873025626,94.92539501097053 41.44788732356392,94.74893941165647 43.34084507031366,94.4842559157405 46.51830985909328,93.5137487706379 47.80281690112315,92.89615250076167 48.74929577461444,92.19032741803676 49.42535211262293,91.83741456683492 50.77746478863992,90.69044637324987 51.45352112664841,89.98461870779283 52.535211267648265,88.22004592895973 53.00845070392825,87.77890192728955 55.10422535194084,86.45546798506984 56.32112676044926,86.72015500609996 57.199999999953434,86.63192601193441 59.97183098574169,86.80838398711057 61.18873239425011,86.45546798506984 64.16338028176688,86.5436970051378 67.00281690130942,86.10255177668296 70.04507042258047,86.10255177668296 70.72112676058896,85.9260935948696 71.46478873235174,85.39671873964835 72.61408450710587,84.16150893643498 74.37183098588139,82.57337832747726 76.26478873263113,82.48514872649685 77.95492957741953,82.74983749049716 79.71267605642788,82.39691911271075 82.55211267597042,82.48514872649685 83.83661971846595,82.220459846023 84.71549295750447,81.95577084977413 85.39154929551296,81.4263925080304 85.86478873249143,80.54409423877951 86.0,79.92648468195694 85.86478873249143,77.45604012720287 85.32394366222434,75.16204683249816 84.10704225348309,71.19165319361491 81.87605633819476,65.63305816572392 79.98309859144501,62.809625188529026 79.3746478871908,61.57436910260003 77.75211267615668,59.8097131603281 76.53521126741543,57.78035244054627 75.79154929565266,56.98625290772179 74.77746478887275,56.10391886677826 73.6957746478729,54.95688268262893 71.80281690135598,53.633376680954825 70.24788732407615,52.751037732174154 67.8140845070593,50.986355960019864 65.1098591547925,49.6628412407008 63.4197183100041,49.22166902170284 61.66197183099575,48.42755821411265 57.199999999953434,47.192272656131536 56.25352112692781,46.57462892786134 55.23943661968224,45.074634381278884 54.766197182936594,44.89816418936243 52.129577464656904,45.074634381278884 50.64225352066569,46.04521951411152 49.15492957737297,46.309924278990366 48.74929577461444,46.66286378481891 48.276056337868795,46.75109862891259 47.80281690112315,46.839333460258786 46.78873239411041,46.48639405751601 44.76056338008493,46.75109862891259 37.59436619677581,48.25108900340274 33.13239436596632,50.4569504209212 30.90140845044516,52.133399699639995 29.752112675923854,53.19220736803254 28.399999999906868,54.16277943010209 27.385915492661297,54.51571433828212 26.169014084385708,55.48628426960204 23.126760562881827,58.221518395410385 21.639436619356275,60.07441188098164 20.963380281813443,61.044972862291615 19.88169014081359,63.60371704993304 18.191549295559525,65.80952228751266 17.718309859046713,66.69184212287655 16.704225351801142,69.95641428342788 16.298591549275443,70.92695935460506 16.02816901379265,72.1621962756617 15.284507042029873,73.22096876520663 14.540845070267096,75.60320006735856 14.0,78.95595409994712 14.067605633288622,81.33816273906268 14.270422534784302,82.30868948576972 14.676056337775663,83.19098517240491 15.284507042029873,83.8085913847899 16.569014084292576,84.51442628115183 18.05633802805096,84.8673434194643 19.949295774567872,85.04380191117525 24.546478873118758,84.95557267189724 25.763380281627178,85.22026035102317 27.183098591165617,86.72015500609996 28.06197183090262,87.9553595665493 28.67042253515683,89.27879021601984 29.68450704216957,90.42576109542279 33.808450704207644,93.24906473234296 36.715492957504466,94.74893941165647 37.79718309827149,95.1018505586544 39.149295774288476,95.27830605447525 40.29859154927544,95.19007831293857 43.002816901076585,94.83716721780365 44.8957746475935,94.39602805813774 45.7746478873305,94.04311649798183 46.856338028097525,93.33729275804944 48.41126760537736,92.71969630755484 49.5605633801315,91.74918632168556 50.37183098588139,91.48450150870485 50.8450704223942,91.21981657971628 51.318309858907014,90.69044637324987 52.46760563366115,88.74941830470925 53.48169014090672,87.86713075335138 55.374647887190804,87.16129978263052 58.14647887344472,86.98484191042371 60.17464788723737,86.63192601193441" stroke="#ff5e00" stroke-linecap="round" stroke-linejoin="round" stroke-width="0.5"><title>2023-07-14 4.8km</title></polyline><polyline fill="none" points="185.863894140115,74.13043551024748 185.25141776935197,71.73243783978978 184.0945179585833,69.15680015675025 181.71266540628858,64.80483578145504 180.4196597354021,61.78508705605054 179.94328922522254,60.98573928978294 178.17391304369085,58.854140098032076 175.9962192820385,56.90016759460559 171.84499054821208,53.88037953048479 171.1644612478558,53.081021350983065 170.34782608714886,52.459297594381496 169.9395085067954,51.92639101028908 169.25897920620628,51.39348395803245 168.0340264653787,50.94939439074369 164.35916824219748,49.261851069517434 162.93005671096034,48.64012339967303 161.63705104007386,47.84075831650989 160.95652173901908,47.6631214885856 158.09829867677763,47.130210692062974 156.80529300589114,46.68611800437793 155.9886578451842,46.06438769516535 155.30812854436226,45.17620043468196 154.7637051041238,44.73210631654365 154.2192816636525,44.55446857836796 152.58601134223863,44.64328745397506 151.97353497194126,44.73210631654365 150.3402646505274,45.97556902770884 149.86389414034784,46.15320635010721 148.7069943291135,46.419662235770375 148.0264650285244,46.15320635010721 146.2570888469927,46.15320635010721 144.487712665461,46.68611800437793 139.65595463151112,47.6631214885856 137.61436672974378,48.55130510922754 135.16446124762297,49.35066925606225 133.599243856268,50.061214280256536 128.01890359190293,54.05801453848835 126.79395085084252,54.41328439861536 126.04536862042733,54.946188798348885 123.59546313830651,57.610703778336756 122.43856332730502,59.2094071500469 121.82608695677482,59.83112399035599 119.71644612494856,62.93969863734674 118.42344045406207,65.3377310554497 116.17769376188517,70.40021281695226 115.29300567111932,73.5087333204574 114.34026465076022,78.1270772361313 114.0,79.01521626702743 114.0,80.3474223765661 114.34026465076022,82.12369263940491 114.6124763705302,82.74538600305095 115.22495274129324,83.27826552215265 116.31379962223582,83.63351827498991 120.5330812856555,84.78808828507317 122.23440453712828,84.96571424539434 124.27599243889563,84.78808828507317 125.22873345925473,84.96571424539434 126.31758034043014,85.40977891907096 127.13421550067142,86.20909451245097 127.8827977317851,87.63009741267888 128.49527410254814,88.42941008147318 131.3534971647896,91.27140215580584 132.71455576573499,92.24833385739475 137.47826086962596,94.91268504975596 138.22684310004115,95.001496554818 139.11153119103983,95.44555388455046 141.289224952925,95.7119881263352 142.78638941422105,95.5343653113814 143.67107750475407,95.26793099177303 146.93761814758182,93.40288747707382 150.3402646505274,90.91615387442289 151.29300567111932,90.38328106235713 151.8374291115906,89.76159552356694 152.31379962223582,88.87347222055541 152.99432892235927,87.9853476175922 154.6956521740649,87.1860343637527 158.9149338377174,86.56434554967564 161.97731569013558,86.47553280979628 163.47448015143164,86.65315827634186 170.07561436668038,86.29790729127126 170.7561436672695,86.0314689159859 171.84499054821208,85.23215308866929 173.8185255199205,83.1894523013616 174.9073724008631,82.47894606814953 178.17391304369085,82.21250601619249 179.39886578451842,82.47894606814953 179.94328922522254,82.03487924963702 180.4196597354021,81.94606584706344 181.16824196605012,82.3901327305357 183.34593572793528,82.30131937982515 184.29867674876004,82.12369263940491 184.97920604934916,81.6796255611116 185.45557655976154,81.32437166449381 185.9319470699411,80.25860872666817 186.0,78.9264024225995 185.72778827999718,76.61723790003452 185.1833648395259,73.95280637819087 185.11531190946698,72.44295665586833 184.1625708884094,68.97916956868721 183.61814744817093,67.73575399670517 182.4612476369366,65.78181009279797 180.75992438569665,63.294963297084905 178.5141776939854,60.63047327770619 177.08506616251543,58.49887283809949 175.72400756157003,57.34425280691357 174.77126654074527,56.18963057833025 173.68241966003552,55.12382349465042 171.7088846883271,53.52510935871396 170.48393194703385,52.1928443609504 169.66729678655975,51.482301832700614 164.086956521729,48.90657819324406 160.95652173901908,47.84075831650989 156.73724007583223,46.77493656810839 156.1247637050692,46.419662235770375 155.92060491489246,46.15320635010721 155.71644612471573,45.26501921919407 155.376181474654,44.64328745397506 154.6956521740649,44.28801187360659 152.04158790176734,44.46564968989696 151.5652173915878,44.64328745397506 150.74858223088086,45.442656749044545 150.20415879040956,45.709112947050016 141.49338374333456,47.30784767633304 139.04347826098092,47.92957671114709 136.45746691874228,48.64012339967303 133.87145557673648,49.79475999373244 131.76181474514306,50.94939439074369 129.92438563331962,52.28166211838834 129.1758034026716,52.459297594381496 128.01890359190293,53.16983897832688 126.18147448054515,54.5909192506806 124.68431001901627,56.54489919048501 123.86767485830933,57.69952074269531 122.91493383748457,58.32123913010582 121.00945179583505,60.097573869803455 117.5387523630634,67.02522966894321 117.06238185241818,67.73575399670517 115.90548204188235,71.46599306928692 115.22495274129324,73.15347464033403 114.40831758035347,76.35079527430935 114.06805293029174,79.19284391752444 114.0,82.30131937982515 114.20415879017673,82.83419928885996 114.6124763705302,83.36707872978877 115.42911153146997,83.81114457309013 116.92627599253319,84.34402315638727 121.68998109642416,84.87690127175301 124.27599243889563,84.87690127175301 125.84120982978493,85.1433401539689 127.20226843096316,86.29790729127126 127.95085066184402,87.71890998334857 129.99243856361136,90.29446888156235 131.0812854443211,91.09377804107498 132.44234404549934,92.42595763423014 133.32703213649802,93.04764044343028 134.96030245744623,93.6693226157222 138.63516068086028,94.20219254231779 141.76559546310455,94.29100415116409 143.53497164463624,94.20219254231779 146.05293005681597,93.49169920309214 147.8903591686394,92.24833385739475 149.31947069941089,91.71546221530298 150.88468809076585,90.47209323028801 151.36105860141106,90.02803226117976 152.4499054821208,88.25178513507126 153.40264650294557,87.45247223222395 154.7637051041238,86.91959637845866 157.1455576561857,86.91959637845866 158.77882797736675,86.47553280979628 160.27599243889563,86.56434554967564 161.70510396989994,86.29790729127126" stroke="#ff0000" stroke-linecap="round" stroke-linejoin="round" stroke-width="0.5"><title>2023-07-07 5.1km</title></polyline><polyline fill="none" points="64.7789473682642,166.18593116779812 61.26507177017629,166.5456018060213 59.06028708117083,166.36576651310315 54.71961722499691,166.81535464676563 53.47942583751865,167.53469497599872 51.68803827743977,169.7826280769077 49.96555023919791,171.4910517326207 48.72535885171965,172.30030338524375 47.347368421033025,173.1095539717935 45.4870813395828,173.91880349285202 43.21339712920599,174.54821904975688 41.835406698519364,174.72805194742978 39.01052631577477,174.81796837650472 36.461244019214064,174.278469604149 32.947368420893326,172.83980389486533 32.258373205782846,172.48013694101246 31.776076554786414,171.76080240187002 30.74258373165503,171.04146702075377 29.15789473685436,169.24312488274882 27.573205741355196,166.18593116779812 27.022009569220245,165.64642481523333 26.126315789297223,165.10691798920743 25.02392344502732,164.6573286053026 20.33875598036684,164.56741068925476 16.066985645564273,163.93798490718473 15.377990430453792,163.5783127421164 15.033492822898552,163.21864036662737 14.895693779690191,162.7690496011055 14.757894736714661,160.52109083812684 15.102392344269902,158.09328613593243 15.653588516404852,154.94611761328997 16.755980861140415,150.80981446488295 17.651674640830606,148.8315726799192 18.68516746396199,146.22388059424702 19.16746411472559,145.23475311452057 23.163636363344267,139.2999547930085 23.99043062189594,138.4007379245013 27.573205741355196,134.89377956133103 30.19138755952008,132.7356413876405 32.465071770362556,131.47672395169502 33.98086124402471,130.84726426634006 34.87655502348207,130.30772687966237 38.6660287079867,128.77903504436836 42.799999999813735,127.52010950032854 49.00095693767071,126.44102840893902 50.31004784698598,126.53095190576278 50.93014354049228,126.89064576086821 52.583732057129964,128.3294190747547 54.1684210523963,128.68911187682534 55.06411483278498,128.68911187682534 55.61531100491993,128.41934229520848 56.30430621979758,127.87980277620954 56.92440191376954,127.61003283894388 57.888995215063915,127.43018614832545 59.19808612461202,127.52010950032854 62.574162679258734,128.68911187682534 66.9837320575025,130.48757272784133 71.39330143551342,133.0054090739577 74.01148325344548,134.98370182095096 75.73397129192017,136.51237821677933 79.59234449779615,140.7386990445084 80.76363636367023,142.53712462104158 83.79521531122737,147.66260863095522 84.69090909115039,149.73077428084798 85.44880382786505,152.0686922839377 86.0,152.33845148119144 86.0,151.88885275361827 85.79330143542029,151.61909335915698 85.17320574144833,149.9106144430698 83.1751196172554,145.7742773919017 82.07272727275267,144.15570313861826 81.65933014336042,143.34641441272106 80.48803827748634,141.54799120558891 78.28325358824804,138.76042482996127 77.52535885153338,138.1309726074105 74.97607655497268,135.34339072695002 72.0822966506239,133.18525413243333 66.50143540673889,129.67826599645196 63.81435406696983,128.41934229520848 60.36937799025327,127.16041601385223 57.613397129112855,126.53095190576278 56.5799043062143,125.991410728544 55.68421052629128,124.91232695203507 55.27081339713186,124.7324794716551 52.308133971178904,124.37278435291955 50.7234449761454,125.54179271851899 50.17224880377762,125.63171634700848 49.4143540665973,125.54179271851899 43.006698564393446,126.53095190576278 39.1483253587503,127.52010950032854 35.97894736845046,128.68911187682534 33.2918660286814,130.03795800858643 29.22679425822571,132.55579619761556 25.16172248800285,135.97284580557607 20.752153109759092,141.18830593244638 19.09856459335424,143.7060984224663 18.202870812965557,145.41459459299222 16.411483253352344,149.55093406612286 15.446889951825142,152.33845148119144 14.895693779690191,154.94611761328997 14.0,160.6110093468451 14.068899521138519,162.4093767516897 14.20669856434688,163.03880409977864 14.55119617213495,163.66823080304312 15.102392344269902,164.20773889264092 15.653588516404852,164.47749275993556 18.96076554991305,165.28675365040544 25.16172248800285,165.28675365040544 26.264114832505584,165.46658925933298 27.090909090824425,166.18593116779812 28.74449760769494,168.88345582346665 29.91578947356902,170.50196493195836 31.293779904255643,171.94063611567253 32.602870813338086,173.01963729260024 36.04784688982181,174.6381355051999 37.288038277300075,175.08771758526564 39.63062200928107,175.62721564708045 43.28229665057734,175.62721564708045 45.07368421042338,175.35746667539934 46.38277511973865,174.54821904975688 47.347368421033025,174.18855309585342 48.93205741629936,173.37930393073475 53.272727272473276,169.0632903794176" stroke="#ffff00" stroke-linecap="round" stroke-linejoin="round" stroke-width="0.5"><title>2023-05-17 4.3km</title></polyline><polyline fill="none" points="183.71214953251183,149.56144095258787 183.51028037373908,148.59542901808163 183.039252336137,147.54159604315646 181.22242990648374,144.64354581775842 179.80934579414316,142.09676285192836 178.6654205606319,140.86727755109314 177.79065420548432,139.4621484077652 176.04112149542198,137.70573235140182 175.43551401863806,136.7397013286245 174.6280373830814,135.77366875048028 172.7439252336044,134.1928848126554 172.67663551378064,133.92942041851347 173.08037383155897,133.40249128226424 173.61869158875197,133.92942041851347 174.22429906530306,134.71981325472007 173.08037383155897,133.92942041851347 173.4841121493373,133.139026540739 173.2149532707408,132.96338331524748 172.7439252336044,133.139026540739 171.93644859804772,133.84159892774187 171.73457943904214,133.84159892774187 169.1102803738322,131.90952288347762 167.8990654204972,131.29477011004928 166.0149532710202,129.7139743718435 164.87102803727612,129.01139715127647 160.90093457931653,127.69406264490681 157.40186915895902,126.7280155022163 156.12336448626593,126.02543478488224 155.3158878502436,124.97156216658186 155.04672897187993,124.88373936485732 153.8355140183121,124.6202708822093 152.48971962626092,124.70809372252552 151.54766355105676,124.97156216658186 150.74018691573292,125.93761213717517 150.26915887836367,126.20108004135545 148.85607476602308,126.3767252464313 145.020560747711,126.3767252464313 143.13644859800115,126.6401929577114 139.36822429904714,127.69406264490681 138.15700934571214,128.13317446841393 132.4373831776902,130.85566060052952 131.22616822412238,131.55823566165054 127.79439252335578,133.92942041851347 125.4392523362767,135.94931115291547 123.48785046720877,137.8813741885242 121.26728971954435,140.60381608724128 119.31588785047643,143.58970590151148 117.633644860005,146.6634004834341 116.55700934585184,149.2979833065765 115.00934579456225,154.3036588000832 114.67289719660766,155.00620640459238 114.0,159.92401660431642 114.0,161.50473275093827 114.33644859795459,163.0854447335587 114.67289719660766,163.700164935668 115.41308411234058,164.22706746472977 119.4504672898911,165.10523731791181 122.68037383188494,165.10523731791181 124.29532710253261,164.9296034501749 125.23738317750394,165.19305423286278 125.77570093469694,165.36868802341633 126.31401869165711,165.89558908739127 126.78504672902636,166.51030641025864 128.1308411215432,169.0569857538212 129.67850467306562,170.9011261171545 130.6878504671622,171.77928620303283 132.7738317756448,173.18433966691373 134.99439252354205,174.23812760575674 137.7532710279338,175.0284673453425 139.50280373822898,175.204098257469 141.11775700957514,175.1162828077213 142.12710280367173,175.3797291177907 144.61682242993265,174.85283638210967 146.904672897188,173.79904952284414 148.31775700929575,172.92089239315828 150.40373831777833,171.4280223226524 151.4803738319315,170.4620455924305 152.8934579435736,168.44227103964658 153.76822429918684,167.8275556959561 154.77757009328343,167.30065632873448 157.80560747673735,167.12502310349373 161.43925233650953,167.03720647178125 164.60186915867962,166.68593981553568 169.85046728956513,166.51030641025864 170.79252336430363,166.15903944562888 172.94579439260997,164.75396953086602 174.56074766349047,163.26107914117165 177.11775700910948,162.82199302566005 183.57757009333,162.38290658884216 184.65420560748316,162.1194545723265 185.461682242807,161.59255019266857 186.0,160.53874004509998 185.93271028017625,158.782385686005 185.19252336444333,154.3914772956632 184.31775700929575,150.8787274477072 182.97196261701174,147.71723500086227 180.88598130829632,143.67752596532227 180.2803738315124,142.71150455757743 178.46355140162632,140.51599557383452 178.05981308384798,139.72561037295964 177.25233644829132,138.5839410223416 174.22429906530306,135.3345625186339 172.8112149531953,134.36852767830715 172.13831775682047,133.57813437882578 169.9850467289798,132.17298816505354 169.3121495328378,131.47041382384486 167.76448598131537,130.68001670675585 166.28411214938387,129.45050801028265 164.80373831745237,128.8357527172775 161.37196261668578,127.95752977754455 159.48785046720877,127.34277295484208 157.19999999995343,126.7280155022163 156.25794392521493,126.20108004135545 155.45046728965826,124.88373936485732 154.84485981287435,124.70809372252552 152.69158878503367,124.79591655009426 152.08598130871542,124.97156216658186 150.67289719637483,125.93761213717517 149.99999999976717,126.20108004135545 144.34766355133615,126.46454782952787 138.2242990655359,128.13317446841393 135.60000000032596,129.27486370527185 132.63925233646296,130.76783866010373 130.21682242979296,132.52427502692444 129.7457943924237,132.6120967104216 128.26542056095786,133.49031283700606 126.04485981282778,135.15891993633704 123.55514018703252,137.79355327627854 120.72897196258418,141.30637973349076 118.97943925228901,144.64354581775842 118.10467289737426,145.8730233804672 117.4317757007666,147.4537765449495 116.82616822421551,148.41979031747906 116.0186915891245,150.26399410993326 115.74953271029517,151.14218439965043 114.47102803736925,156.49911733315093 114.0,160.97782783128787 114.0,162.558541202161 114.33644859795459,163.26107914117165 114.80747663555667,163.78798205580097 115.6149532708805,164.22706746472977 116.75887850462459,164.49051855545258 119.65233644866385,165.0174203905044 124.96822429914027,164.9296034501749 125.77570093469694,165.2808711346006 127.12149532721378,166.5981231193873 127.99626168212853,168.26663814875064 129.07289719651453,169.84733231784776 130.41869158879854,171.3402063206304 131.9663551398553,172.56962918117642 132.97570093441755,173.27215539902681 134.99439252354205,174.15031201497186 139.36822429904714,175.204098257469 141.9252336451318,175.204098257469 143.67476635496132,174.94065187027445 145.2224299062509,174.5015743012773 146.6355140185915,173.9746807946358 150.13457943941467,171.51583831215976 151.41308411210775,170.4620455924305 152.42242990667,168.9691694045323 153.16261682240292,168.17882168397773 154.50841121491976,167.3884729220299 158.20934579428285,166.9493898267392 160.4971962615382,167.03720647178125 162.17943925224245,166.8615731690661" stroke="#ff2700" stroke-linecap="round" stroke-linejoin="round" stroke-width="0.5"><title>2023-05-15 5.0km</title></polyline><polyline fill="none" points="86.0,244.55113617278403 85.5970149252098,244.46348296740325 82.37313432828523,244.55113617278403 81.16417910461314,244.0252167476574 81.23134328331798,243.76225686213002 81.56716417893767,243.4992968608276 84.05223880615085,242.35980218858458 84.85820895526558,241.83388083946193 85.39552238816395,241.2203053482226 86.0,239.90549860760802 85.86567164165899,237.53883920056978 84.92537313420326,233.5943860722473 84.52238805941306,231.49066711438354 83.85074626840651,229.29928534221835 82.70895522367209,227.10789555095835 82.30597014911473,226.0560256029712 80.89552238793112,223.5139989349991 79.82089552236721,221.76087080821162 78.74626865633763,220.53367806581082 77.53731343266554,218.78054121433524 74.11194029846229,215.36190959252417 72.5,213.95938840991585 65.98507462674752,209.22585516812978 65.17910447739996,208.87522158771753 62.223880597157404,208.1739538112306 60.410447760950774,207.56034383305814 58.86567164165899,207.29736793547636 57.38805970153771,206.8590745163383 56.51492537301965,206.33312199020293 55.70895522390492,205.36887449241476 55.238805969944224,205.0182386537199 53.96268656710163,204.84292065753834 52.417910447809845,204.93057966197375 51.81343283574097,205.10589763271855 50.80597014911473,205.89482786564622 49.12686567148194,206.6837570591597 45.5,206.59609831130365 40.261194029590115,207.56034383305814 38.917910447809845,207.9986367385718 36.432835820829496,209.22585516812978 34.61940298508853,209.83946343977004 32.80597014911473,210.62838743667817 28.574626865331084,213.4334421196836 26.69402985065244,214.92362207581755 23.604477611836046,217.90397086396115 21.253731343429536,220.7089914685348 20.380597014678642,222.3744662362733 17.761194029822946,226.40664912451757 16.082089552422985,230.7017705999897 15.074626865563914,233.68204086855985 14.738805969944224,235.96106106665684 14.268656716216356,237.80180181888863 14.0,239.9931524801068 14.067164178937674,242.79806962696603 14.402985074324533,243.58695020753657 15.276119403075427,244.37582974898396 16.753731343196705,244.7264425448957 19.30597014934756,244.98940200731158 20.246268656803295,245.07705513585825 21.253731343429536,244.90174886619207 22.395522388163954,244.90174886619207 25.417910447809845,245.25236135412706 26.291044775862247,246.04123870207695 29.51492537301965,250.16091463633347 31.194029850885272,252.00161174539244 33.00746268639341,253.31639193103183 34.48507462651469,254.10525865713134 37.104477611836046,254.98177602310898 38.582089552190155,255.15707934240345 42.61194029846229,254.8941243442241 44.35820895526558,254.63116923061898 45.63432835787535,254.36821400170447 47.246268656803295,253.75465135171544 48.85820895526558,252.70282820350258 51.27611940307543,250.86213324958226 52.417910447809845,249.54734767612536 52.82089552213438,248.75847494631307 53.82835820876062,247.88194847258274 55.8432835820131,247.09307354915654 58.261194029590115,246.91776786977425 61.61940298508853,247.00542071583914 63.97014925372787,246.74246213881997 68.47014925372787,246.83011501078727 70.08208955219015,246.56715635652654 71.22388059645891,246.04123870207695 74.85074626863934,242.88572307600407 75.65671641775407,242.71041616500588 78.00746268639341,242.71041616500588 79.82089552236721,242.62276269018184 80.69402985065244,242.4474557019421 82.37313432828523,242.4474557019421 83.71641791029833,242.2721486624796 84.2537313431967,242.18449512368534 84.92537313420326,241.92153442988638 85.4626865668688,241.2203053482226 85.66417910414748,240.95734423119575 85.86567164165899,239.90549860760802 85.79850746295415,237.27587646699976 85.32835820876062,235.08451586304 84.85820895526558,233.7696956518339 84.72388059692457,232.7178374044015 83.85074626840651,229.64990696444875 82.91044776095077,227.28320702939527 81.63432835787535,224.91649774136022 79.95522388047539,222.1114968440961 78.20895522367209,219.83242394099943 74.51492537278682,215.6248819483444 71.08955223858356,212.81983753031818 68.87313432828523,211.68028448265977 66.72388059692457,209.83946343977004 66.11940298508853,209.40117188135628 63.16417910461314,208.7875631606439 57.72388059692457,206.8590745163383 56.917910447809845,206.5084395503509 55.70895522390492,205.2812155521824 54.83582089538686,204.93057966197375 52.21641791029833,205.0182386537199 50.604477611836046,206.07014555402566 49.4626865668688,206.33312199020293 49.12686567148194,206.5084395503509 44.02238805987872,206.77141579409363 42.54477611905895,207.0343919226434 39.38805970153771,207.91097818303388 33.3432835820131,210.45307108276756 28.30597014934756,213.52109986677533 25.552238805685192,215.6248819483444 23.402985074324533,217.90397086396115 21.253731343429536,220.53367806581082 17.962686567101628,226.1436815026682 16.82089552236721,228.59804148116382 14.940298507688567,234.7338974220911 14.470149253727868,236.83760498743504 14.0,240.25611402076902 14.0,242.4474557019421 14.134328357875347,243.14868334669154 14.470149253727868,243.67460354114883 15.34328358178027,244.28817651810823 17.089552238583565,244.90174886619207 19.17164179100655,245.1647082514246 22.932835820829496,244.98940200731158 24.3432835820131,245.07705513585825 25.68656716379337,245.42766752140597 26.895522387931123,246.30419758684002 27.298507462488487,246.74246213881997 28.03731343266554,248.2325592158595 29.246268656803295,250.07326225179713 29.917910447809845,250.94978551834356 32.604477611603215,253.14108807320008 35.29104477586225,254.36821400170447 37.30597014934756,254.98177602310898 38.85074626863934,255.15707934240345 41.20149253727868,255.15707934240345 43.14925373112783,255.06942768907174 45.432835820596665,254.63116923061898 46.77611940307543,254.10525865713134 48.052238806150854,253.14108807320008 49.66417910414748,252.17691593675409 50.67164179100655,251.3880466709379 52.753731343196705,248.8461275229929 53.89552238793112,247.96960117761046 54.902985074557364,247.35603197250748 59.268656716216356,247.00542071583914 66.38805970153771,246.91776786977425 68.26865671621636,246.65480925422162" stroke="#ff4a00" stroke-linecap="round" stroke-linejoin="round" stroke-width="0.5"><title>2023-05-14 4.9km</title></polyline><polyline fill="none" points="183.38547486043535,244.91774171160068 183.11731843603775,244.6552720469772 182.44692737446167,244.74276194808772 181.64245810057037,244.6552720469772 180.56983240228146,243.69288229057565 180.43575418996625,243.34292199509218 180.7709497208707,242.99296149471775 182.11173184379004,242.81798116781283 184.39106145268306,242.2930398794124 185.46368715097196,241.50562708242796 186.0,240.45574173989007 186.0,239.84330777189462 185.66480446932837,238.3559655227 185.59776536352,237.48105658887653 183.65363128506579,229.95678689627675 182.9832402234897,227.94446615932975 179.49720670399256,221.81997005915036 178.3575418998953,220.7700501413783 177.7541899443604,219.80762192979455 174.8044692738913,216.3078699169564 173.32960893888958,214.99545762926573 172.25698324036784,214.0330201202887 167.69832402234897,211.14569829544052 166.55865921778604,210.1832545878715 164.61452513979748,209.04581911751302 163.00558659248054,208.6958385373 159.05027932976373,207.38340953632724 156.9720670392271,206.85843712912174 156.10055865929462,206.42095977102872 155.02793296100572,205.02103007317055 154.15642458107322,204.84603863029042 151.60893854801543,205.10852577519836 150.06703910627402,206.24596873798873 148.99441340798512,206.50845526810735 143.63128491630778,206.50845526810735 140.01117318472825,207.47090489283437 138.4692737434525,207.47090489283437 138.5363128494937,207.29591416730545 138.20111731882207,207.29591416730545 136.92737430194393,207.90838148258626 137.53072625701316,207.5584002363612 138.06703910627402,207.47090489283437 138.20111731882207,207.99587676196825 138.00000000046566,208.43335296749137 137.66480446979403,208.6958385373 136.92737430194393,208.78333370143082 135.85474860365503,209.2208093305817 131.96648044721223,211.058203477005 130.49162011197768,212.02064577583224 129.6201117320452,212.72060283785686 127.67597765405662,213.94552572455723 126.67039106157608,214.99545762926573 124.45810055918992,216.83283402503002 122.71508379932493,218.6702047730796 121.30726257013157,220.5075698737055 120.03351955348626,221.90746330231195 119.22905027959496,223.2198604142759 118.55865921848454,224.5322546447278 117.8212290504016,226.45709430403076 116.54748603375629,228.90688127011526 115.47486033546738,232.49405121349264 115.00558659248054,233.71893358114175 114.53631284972653,235.64374365931144 114.4692737434525,236.86861957312794 114.13407821278088,238.44345634564525 114.0,240.1932701159385 114.0,242.81798116781283 114.33519553090446,243.430412088288 115.00558659248054,243.9553523780196 116.07821229076944,244.3928022669861 119.29608938586898,245.00523157406133 123.98882681597024,245.00523157406133 125.19553072657436,245.18021126108943 126.40223463717848,246.05510892666643 126.87150838016532,246.5800469115493 127.6089385477826,247.89238985662814 129.21787709533237,250.07962169655366 130.89385474892333,252.0043790959753 134.17877095006406,254.01661884208443 136.52513966499828,254.97899197827792 137.9329608939588,255.24145711032907 139.47486033546738,255.24145711032907 140.48044692748226,255.0664803686086 142.96089385519736,255.0664803686086 145.4413407824468,254.3665728889755 147.65363128506579,253.2292214873014 150.46927374321967,251.30446803127415 151.60893854801543,250.25459989812225 152.6815642460715,248.59230491623748 153.55307262577116,247.80490041675512 154.75977653637528,247.27996350743342 155.6983240225818,247.01749488001224 158.91620111768134,247.01749488001224 160.45810055872425,246.84251573093934 167.29608938563615,246.84251573093934 168.70391061459668,246.75502613710705 170.37988826818764,246.31757797684986 171.45251396670938,245.705150014197 173.39664804493077,244.04284238134278 173.79888268187642,243.60539223608794 174.87150838016532,243.0804516390781 178.8268156426493,242.99296149471775 182.64804469281808,242.55551058106357 184.45810055895709,242.11805934738368 185.19553072657436,241.68060779356165 185.46368715097196,241.33064632001333 185.66480446932837,240.89319418981904 185.79888268187642,240.28076066984795 185.19553072657436,237.48105658887653 184.9273743017111,234.94381343881832 184.12290502805263,231.88160908856662 182.64804469281808,227.6819890422048 180.70391061459668,223.83231141383294 179.76536312885582,222.34492932638386 178.022346368758,220.0701025047456 177.48603351972997,219.10767316666897 176.6145251400303,218.05774848459987 174.20111731858924,215.78290534764528 169.97765363147482,212.37062440929003 168.70391061459668,211.49567744124215 165.28491620137356,209.65828463976504 163.20670391083695,208.87082885275595 162.0,208.25836252368754 159.58659217879176,207.5584002363612 157.8435754191596,207.20841878518695 156.7709497208707,206.77094168320764 155.83240223512985,206.15847320243483 155.29608938563615,205.1960214645951 154.8938547486905,204.93353435822064 154.29050279338844,204.75854288961273 151.8770949721802,204.93353435822064 151.27374301687814,205.1960214645951 150.67039106157608,205.80849093163852 149.53072625747882,206.33346426102798 148.39106145268306,206.50845526810735 146.9162011174485,206.15847320243483 143.56424581049941,206.59595075249672 141.08379888278432,207.20841878518695 136.25698324060068,208.6958385373 130.8268156426493,211.58317219582386 129.88826815667562,212.1956351182307 127.27374301711097,214.0330201202887 124.32402234664187,216.65784604032524 122.11173184379004,219.10767316666897 121.03910614550114,221.0325302934507 120.36871508415788,221.73247680295026 119.09497206751257,223.5698324906407 117.553072626004,226.19461653387407 116.61452513979748,228.55691231816309 116.4134078216739,229.3443421717966 115.47486033546738,231.7066255089594 114.4692737434525,236.4311641777167 114.20111731858924,238.18098383845063 114.06703910650685,240.71821324829943 114.13407821278088,242.2930398794124 114.26815642486326,242.90547133766813 114.93854748597369,243.7803723323159 115.54189944150858,244.13033237215132 118.35754189966246,244.91774171160068 121.24022346362472,245.09272142412374 122.37988826842047,245.00523157406133 124.6592178773135,245.00523157406133 125.32960893888958,245.18021126108943 126.93854748643935,246.40506763441954 128.34636871516705,249.1172406731057 130.96089385519736,251.74191254295874 134.24581005610526,253.92913029843476 136.18994413455948,254.80401515978156 137.79888268187642,255.15396874590078 142.8938547486905,254.80401515978156 144.9720670392271,254.1915958909667 146.6480446930509,253.2292214873014 147.58659217925742,253.054244156403 148.18994413432665,252.704289341229 148.6592178773135,252.17935673432657 149.12849162030034,252.0043790959753 151.60893854801543,249.90464344405336 152.14525139704347,248.9422621387639 152.94972067070194,248.06736869859742 154.4245810059365,247.19247397780418 155.63128491630778,246.93000531208236 157.10614525177516,246.93000531208236 160.25698324036784,246.66753653076012 164.01117318472825,246.66753653076012 166.08938547526486,246.49255727947457" stroke="#ff4400" stroke-linecap="round" stroke-linejoin="round" stroke-width="0.5"><title>2023-05-11 4.9km</title></polyline></svg>