<?xml version="1.0" encoding="utf-8" ?>
<svg baseProfile="full" height="300mm" version="1.1" viewBox="0,0,200,300" width="200mm" xmlns="http://www.w3.org/2000/svg" xmlns:ev="http://www.w3.org/2001/xml-events" xmlns:xlink="http://www.w3.org/1999/xlink"><defs /><rect fill="#222222" height="300" width="200" x="0" y="0" /><text fill="#FFFFFF" style="font-size:12px; font-family:Arial; font-weight:bold;" x="10" y="20">Over 3km Runs</text><text fill="#FFFFFF" style="font-size:4px; font-family:Arial" x="10" y="280">ATHLETE</text><text fill="#FFFFFF" style="font-size:9px; font-family:Arial" x="10" y="290">litianc</text><text fill="#FFFFFF" style="font-size:4px; font-family:Arial" x="120" y="280">STATISTICS</text><text fill="#FFFFFF" style="font-size:3px; font-family:Arial" x="120" y="285">Number: 3</text><text fill="#FFFFFF" style="font-size:3px; font-family:Arial" x="120" y="290">Weekly: 1.5</text><text fill="#FFFFFF" style="font-size:3px; font-family:Arial" x="141" y="285">Total: 14.7 km</text><text fill="#FFFFFF" style="font-size:3px; font-family:Arial" x="141" y="290">Avg: 4.9 km</text><text fill="#FFFFFF" style="font-size:3px; font-family:Arial" x="167" y="285">Min: 4.9 km</text><text fill="#FFFFFF" style="font-size:3px; font-family:Arial" x="167" y="290">Max: 5.0 km</text><polyline fill="none" points="92.92616822384298,74.50662107160315 92.6990654207766,73.4198576452909 92.16915887827054,72.23429554852191 90.12523364508525,68.9739890449564 88.53551401849836,66.10885820840485 87.24859813088551,64.72568724496523 86.26448598131537,63.14491695869947 84.2962616821751,61.168948895297945 83.61495327111334,60.08216399466619 82.70654205605388,58.99537734425394 80.58691588789225,57.21699541423004 80.5112149529159,56.920597970776726 80.96542056044564,56.32780269253999 81.57102803746238,56.920597970776726 82.25233644852415,57.80978991149459 80.96542056044564,56.920597970776726 81.41962616797537,56.03140485833865 81.11682242946699,55.83380622963887 80.58691588789225,56.03140485833865 79.67850467283279,56.8217987936805 79.45140186883509,56.8217987936805 76.49906542059034,54.64821324386867 75.13644859800115,53.956616373732686 73.01682242983952,52.178221168287564 71.72990654222667,51.38782179512782 67.26355140190572,49.90582047548378 63.327102803625166,48.81901743996423 61.88878504699096,48.028614132956136 60.98037383146584,46.84300743736094 60.67757009342313,46.744206785399 59.31495327083394,46.44780474243453 57.800934579223394,46.54660543781938 56.74112149514258,46.84300743736094 55.83271028008312,47.929813654278405 55.30280373804271,48.22621504653944 53.71308411192149,48.423815902206115 49.39813084108755,48.423815902206115 47.27850467292592,48.72021707735257 43.03925233660266,49.90582047548378 41.67663551401347,50.399821276951116 35.2420560750179,53.462618175602984 33.87943925196305,54.253015119349584 30.01869158865884,56.920597970776726 27.3691588784568,59.19297504698625 25.173831775784492,61.36654596205335 22.67570093460381,64.42929309810279 20.4803738319315,67.78841913916403 18.587850467767566,71.2463255438488 17.376635514199734,74.2102312198258 15.635514019057155,79.84161615010817 15.257009346038103,80.6319822051446 14.5,86.16451867984142 14.5,87.9428243447328 14.87850467255339,89.72112532524625 15.257009346038103,90.41268555261195 16.089719626586884,91.0054508978501 20.631775700952858,91.99339198262896 24.265420560725033,91.99339198262896 26.08224299037829,91.79580388148315 27.142056074924767,92.09218601189787 27.747663551475853,92.28977402631426 28.35327102802694,92.88253772328608 28.883177570067346,93.57409471151186 30.39719626167789,96.43910897301976 32.13831775728613,98.51376688177697 33.273831775877625,99.50169697840465 35.62056074757129,101.08238212525612 38.11869158921763,102.26789355644723 41.22242990648374,103.15702576347394 43.190654205624014,103.35461053962354 45.00747663574293,103.25581815867918 46.142990654334426,103.55219525750726 48.94392523355782,102.95944092981517 51.51775700924918,101.77393071318511 53.1074766353704,100.78600394231034 55.45420560752973,99.10652511293301 56.66542056109756,98.0198012914625 58.255140186753124,95.74755491956603 59.23925233632326,95.0560001579579 60.374766354914755,94.46323836984811 63.781308411154896,94.26565099140862 67.8691588784568,94.16685728071025 71.42710280325264,93.77168229245581 77.33177570067346,93.57409471151186 78.39158878475428,93.17891937628156 80.81401869142428,91.59821572218789 82.6308411215432,89.918714033789 85.50747663527727,89.42474215384573 92.77476635528728,88.93076991243288 93.98598130838946,88.63438639382366 94.89439252298325,88.04161896673031 95.5,86.85608255071566 95.42429906502366,84.88018389674835 94.59158878494054,79.9404119575629 93.6074766353704,75.9885683786124 92.09345794422552,72.43188937596278 89.7467289720662,67.88721671095118 89.06542056053877,66.80044262728188 87.02149532688782,64.33049502054928 86.56728971935809,63.441311669535935 85.65887850429863,62.156933650083374 82.25233644852415,58.50138283340493 80.66261682240292,57.41459363809554 79.90560747636482,56.52540117612807 77.48317757016048,54.94461168569978 76.72616822412238,54.15421555185458 74.9850467289798,53.265018795093056 73.3196261683479,51.88182151154615 71.65420560725033,51.19022180692991 67.79345794394612,50.20222099975217 65.67383177578449,49.51061957416823 63.10000000009313,48.81901743996423 62.04018691601232,48.22621504653944 61.13177570095286,46.744206785399 60.45046728942543,46.54660543781938 58.02803738322109,46.64540611882694 57.346728972159326,46.84300743736094 55.75700934557244,47.929813654278405 54.99999999953434,48.22621504653944 48.64112149551511,48.52261630818248 41.75233644852415,50.399821276951116 38.8000000002794,51.68422166840173 35.46915887854993,53.36381849262398 32.74392523383722,55.33980940526817 32.21401869179681,55.43860879924614 30.54859813116491,56.42660194163909 28.050467289518565,58.303784928401 25.24953271029517,61.26774743583519 22.070093458052725,65.21967720013345 20.10186915891245,68.9739890449564 19.117757009807974,70.35715130297467 18.36074766330421,72.13549861306092 17.679439252242446,73.22226410714211 16.771028037648648,75.29699337366037 16.468224299140275,76.28495744953398 15.029906542040408,82.31150699977297 14.5,87.3500563101843 14.5,89.1283588524675 14.87850467255339,89.918714033789 15.40841121505946,90.51147981279064 16.316822429653257,91.0054508978501 17.603738317731768,91.30183337489143 20.858878504484892,91.89459793927381 26.839252336416394,91.79580388148315 27.747663551475853,92.19098002644023 29.261682243086398,93.6728885093471 30.245794392656535,95.54996791732265 31.457009346224368,97.32824885757873 32.97102803736925,99.00773211068008 34.71214953251183,100.39083282876527 35.847663551103324,101.18117482389789 38.11869158921763,102.16910101682879 43.03925233660266,103.35461053962354 45.91588785080239,103.35461053962354 47.884112149477005,103.05823335406603 49.625233644619584,102.5642710889224 51.21495327120647,101.97151589393616 55.15140186948702,99.2053181011579 56.58971962612122,98.0198012914625 57.725233644712716,96.340315580077 58.5579439252615,95.4511743944604 60.07196261687204,94.5620320372982 64.23551401868463,94.0680635550525 66.80934579437599,94.16685728071025 68.70186915900558,93.96926981513388" stroke="#ff0000" stroke-linecap="round" stroke-linejoin="round" stroke-width="0.5"><title>2023-05-15 5.0km</title></polyline><polyline fill="none" points="185.5,91.3700281943311 185.04664179077372,91.27141833835049 181.41977611929178,91.3700281943311 180.05970149254426,90.77836884110002 180.13526119338349,90.48253896989627 180.51305970130488,90.18670896848198 183.30876865657046,88.90477746212855 184.21548507455736,88.31311594438739 184.8199626863934,87.6228435166995 185.5,86.14368593355175 185.3488805964589,83.48119410063373 184.29104477586225,79.04368433129275 183.83768656663597,76.67700050369604 183.0820895517245,74.21169600996654 181.79757462674752,71.74638249480631 181.34421641752124,70.56302880332805 179.7574626863934,67.703248801874 178.54850746272132,65.73097965924535 177.3395522381179,64.350387824059 175.97947761137038,62.37810886616353 172.12593283550814,58.532148291531485 170.3125,56.954311961191706 162.98320895479992,51.62908706412418 162.07649253681302,51.234624286182225 158.75186567148194,50.44569803762715 156.71175373112783,49.75538681214675 154.9738805964589,49.45953892741818 153.3115671640262,48.96645883086603 152.32929104473442,48.374762238934636 151.42257462674752,47.289983803988434 150.89365671621636,46.895518485456705 149.45802238816395,46.698285739752464 147.72014925349504,46.79690211970592 147.04011193988845,46.99413483677199 145.90671641752124,47.881681348837446 144.01772388024256,48.769226691510994 139.9375,48.67061060020933 134.04384328331798,49.75538681214675 132.53264925349504,50.24846633087145 129.73694029822946,51.62908706412418 127.69682835787535,52.3193963697413 125.65671641752124,53.20693586621201 120.89645522320643,56.362622384680435 118.78078358154744,58.03907483530929 115.30503731314093,61.39196722197812 112.66044776141644,64.5476154020871 111.67817164165899,66.42127451580018 108.73134328331798,70.95748026511865 106.8423507460393,75.78949192498112 105.70895522367209,79.14229597715894 105.33115671621636,81.70619370002532 104.80223880568519,83.77702704624971 104.5,86.24229654012015 104.57555970130488,89.39782833034405 104.95335820829496,90.28531898348592 105.9356343280524,91.17280846764334 107.59794776095077,91.56724786304403 110.4692164179869,91.86307725822553 111.52705223858356,91.96168702782597 112.66044776141644,91.76446747448063 113.94496268639341,91.76446747448063 117.34514925349504,92.15890652337112 118.32742537278682,93.04639353987295 121.95429104473442,97.6810289658606 123.8432835820131,99.75181321357377 125.88339552190155,101.23094092239626 127.54570895479992,102.11841598927276 130.49253731314093,103.10449802596122 132.1548507460393,103.30171426018933 136.68843283550814,103.00588988728123 138.65298507455736,102.71006538445363 140.08861940260977,102.41424075188115 141.90205223858356,101.72398277069442 143.71548507455736,100.54068172897678 146.4356343280524,98.46989990578732 147.72014925349504,96.99076613568468 148.17350746225566,96.10328431462403 149.30690298462287,95.11719203169923 151.57369402982295,94.22970774275018 154.29384328331798,94.03248885349603 158.07182835787535,94.13109830534086 160.7164179100655,93.83526990615064 165.7789179100655,93.9338793871575 167.5923507460393,93.63805090112146 168.87686567101628,93.04639353987295 172.95708955219015,89.49643846048275 173.8638059697114,89.29921818565344 176.50839552190155,89.29921818565344 178.54850746272132,89.20060802641092 179.53078358154744,89.00338766467758 181.41977611929178,89.00338766467758 182.93097014911473,88.80616724531865 183.53544776095077,88.70755701413145 184.29104477586225,88.41172623360762 184.8955223876983,87.6228435166995 185.1222014920786,87.32701226009522 185.3488805964589,86.14368593355175 185.2733208956197,83.18536102538928 184.74440298462287,80.72008034586906 184.21548507455736,79.24090760829858 184.06436567148194,78.05756707995897 183.0820895517245,74.60614533495391 182.02425373112783,71.9436079080333 180.58861940260977,69.28105995903024 178.69962686533108,66.12543394957902 176.73507462674752,63.56147693359526 172.57929104426876,58.82799219188746 168.7257462684065,55.67231722158613 166.23227611929178,54.39032004296314 163.81436567148194,52.3193963697413 163.13432835787535,51.82631836656947 159.80970149254426,51.13600855576806 153.68936567148194,48.96645883086603 152.78264925349504,48.57199449412292 151.42257462674752,47.19136749615427 150.44029850699008,46.79690211970592 147.49347014911473,46.895518485456705 145.68003731314093,48.07891374826431 144.3955223876983,48.374762238934636 144.01772388024256,48.57199449412292 138.27518656710163,48.86784276837716 136.6128731337376,49.16369091300294 133.0615671640262,50.14985045592766 126.26119402982295,53.00970496807713 120.5942164179869,56.461237350071315 117.49626865657046,58.82799219188746 115.07835820829496,61.39196722197812 112.66044776141644,64.350387824059 108.95802238816395,70.6616416904726 107.67350746272132,73.42279666633112 105.55783582106233,80.32563459989615 105.0289179100655,82.69230561086442 104.5,86.53812827338697 104.5,89.00338766467758 104.65111940260977,89.79226876498433 105.0289179100655,90.38392898382153 106.01119402935728,91.07419858284993 107.97574626840651,91.76446747448063 110.31809701491147,92.0602967828163 114.54944029822946,91.86307725822553 116.13619402982295,91.96168702782597 117.64738805918023,92.35612596158171 119.00746268639341,93.34222228522412 119.46082089515403,93.83526990615064 120.29197761137038,95.5116291178274 121.65205223858356,97.58242003322812 122.40764925349504,98.56850870815106 125.43003731314093,101.03372408234281 128.45242537278682,102.41424075188115 130.7192164179869,103.10449802596122 132.45708955219015,103.30171426018933 135.1016791043803,103.30171426018933 137.29291044734418,103.2031061501475 139.86194029822946,102.71006538445363 141.3731343280524,102.11841598927276 142.80876865657046,101.03372408234281 144.6222014920786,99.949030428892 145.75559701491147,99.06155250477605 148.09794776095077,96.20189346332336 149.3824626863934,95.21580132481176 150.51585820876062,94.52553596906364 155.4272388056852,94.13109830534086 163.4365671640262,94.03248885349603 165.5522388056852,93.73666041099932" stroke="#ffff00" stroke-linecap="round" stroke-linejoin="round" stroke-width="0.5"><title>2023-05-14 4.9km</title></polyline><polyline fill="none" points="92.55865921778604,241.7824594255071 92.25698324060068,241.4871810528566 91.50279329624027,241.58560719160596 90.59776536328718,241.4871810528566 89.39106145268306,240.40449257695582 89.24022346362472,240.0107872445369 89.61731843603775,239.61708168155747 91.1256983242929,239.42022881377488 93.68994413409382,238.8296698643244 94.8966480451636,237.94383046776056 95.5,236.76270945736906 95.5,236.07372124341782 95.12290502805263,234.40046121308114 95.04748603375629,233.41618866252247 92.86033519590273,224.95138525834773 92.10614525154233,222.68752442928962 88.18435754207894,215.79746631655144 86.90223463717848,214.61630640906515 86.22346368758008,213.53357467101887 82.90502793295309,209.59635365661234 81.24581005610526,208.11988983291667 80.03910614550114,207.03714763530297 74.91061452496797,203.7889105823706 73.6284916200675,202.7061614113627 71.44134078221396,201.42654650722397 69.63128491630778,201.0328183544916 65.18156424583867,199.5563357283827 62.84357541939244,198.96574177028378 61.863128491677344,198.47357974236365 60.656424581073225,196.89865883230232 59.67597765382379,196.70179345906945 56.81005586637184,196.99709149706177 55.075418994762,198.27671483025188 53.868715084157884,198.57201217662077 47.835195530671626,198.57201217662077 43.762569833081216,199.6547680044314 42.02793296147138,199.6547680044314 42.10335195576772,199.45790343824774 41.72625698382035,199.45790343824774 40.29329608986154,200.14692916790955 40.972067039459944,199.75320026592817 41.57541899429634,199.6547680044314 41.72625698382035,200.24536135722883 41.50000000046566,200.7375220883987 41.12290502851829,201.0328183544916 40.29329608986154,201.13125041412422 39.08659217925742,201.62341049691895 34.71229050308466,203.69047891168157 33.053072625771165,204.77322649781127 32.07262569852173,205.56067819264717 29.885474860668182,206.93871644011233 28.754189944360405,208.11988983291667 26.265363128855824,210.18693827814423 24.30446927435696,212.25398036971455 22.72067039133981,214.3210161079187 21.287709497846663,215.89589621510822 20.382681564427912,217.3723429660895 19.62849162099883,218.8487864753115 18.79888268187642,221.0142310920637 17.365921787917614,223.77024142892333 16.159217877313495,227.80580761522288 15.631284916307777,229.18380027875537 15.103351955767721,231.34921161673265 15.027932961471379,232.72719701979076 14.650837989524007,234.49888838885818 14.5,236.46742888045264 14.5,239.42022881377488 14.877094972413033,240.1092135993531 15.631284916307777,240.69977142527932 16.837988827377558,241.19190255040303 20.458100559189916,241.88088552083354 25.737430167850107,241.88088552083354 27.094972067512572,242.07773766876198 28.452513966709375,243.06199754250702 28.980446927715093,243.65255277551478 29.81005586637184,245.1289385887212 31.62011173227802,247.58957440865925 33.50558659248054,249.75492648303043 37.2011173190549,252.0186961973668 39.84078212315217,253.10136597556993 41.42458100570366,253.39663924911292 43.159217877313495,253.39663924911292 44.29050279362127,253.1997904147138 47.081005587242544,253.1997904147138 49.871508380398154,252.4123945001047 52.360335195902735,251.13287417322863 55.52793296100572,248.96752653521253 56.81005586637184,247.78642488538753 58.01675977697596,245.9163430307526 58.99720670375973,245.03051296883496 60.354748603422195,244.43995894584805 61.41061452543363,244.14468174002832 65.03072625724599,244.14468174002832 66.76536312839016,243.94783019728493 74.45810055872425,243.94783019728493 76.0418994417414,243.8494044042891 77.92737430194393,243.35727522399975 79.13407821254805,242.6682937659789 81.3212290504016,240.7981976789888 81.77374301711097,240.30606626556255 82.9804469277151,239.71550809394103 87.43016759771854,239.61708168155747 91.72905027959496,239.12494940374745 93.76536312885582,238.63281676580664 94.59497206751257,238.14068376779323 94.8966480451636,237.7469771099859 95.12290502805263,237.25484346359735 95.27374301711097,236.56585575360805 94.59497206751257,233.41618866252247 94.29329608939588,230.56179011869244 93.38826815690845,227.11681022465928 91.72905027959496,222.39223767246585 89.54189944127575,218.0613503405475 88.48603351972997,216.38804549223278 86.52513966476545,213.82886531786062 85.92178770946339,212.74613231251715 84.94134078267962,211.56496704515303 82.22625698335469,209.00576851610094 77.47486033570021,205.16695246042218 76.0418994417414,204.18263712141197 72.19553072657436,202.1155702197575 69.85754189966246,201.22968245937955 68.5,200.54065783915576 65.78491620114073,199.75320026592817 63.82402234664187,199.35947113332804 62.61731843603775,198.86730939359404 61.561452514491975,198.17828235280467 60.958100558724254,197.09552414767677 60.50558659201488,196.80022615299094 59.82681564288214,196.60336075082887 57.11173184355721,196.80022615299094 56.43296089395881,197.09552414767677 55.754189944360405,197.78455229807878 54.472067039925605,198.37514729367103 53.18994413455948,198.57201217662077 51.53072625724599,198.17828235280467 47.759776536840945,198.6704445965588 44.969273743219674,199.35947113332804 39.53910614550114,201.0328183544916 33.43016759771854,204.28106872033095 32.37430167617276,204.97008950804593 29.43296089442447,207.03714763530297 26.11452514026314,209.990076795395 23.625698324292898,212.74613231251715 22.41899441368878,214.91159658017568 21.664804469794035,215.69903640332632 20.231843575835228,217.76606155198533 18.49720670422539,220.71894360060105 17.441340782213956,223.3765263579553 17.21508379932493,224.26238494325662 16.159217877313495,226.91995369759388 15.027932961471379,232.23505969991675 14.726256983354688,234.20360681822058 14.575418994762003,237.05798990430776 14.650837989524007,238.8296698643244 14.801675978116691,239.51865525491303 15.555865922011435,240.5029188739136 16.234636871609837,240.89662391867023 19.40223463717848,241.7824594255071 22.645251396577805,241.97931160219014 23.927374301943928,241.88088552083354 26.491620112210512,241.88088552083354 27.245810056105256,242.07773766876198 29.055865922477096,243.45570108876564 30.639664804562926,246.50689575722208 33.581005587242544,249.45965161081403 37.276536313351244,251.92027158575365 39.463687151204795,252.90451705479063 41.273743017110974,253.2982148391311 47.00558659248054,252.90451705479063 49.343575418926775,252.21554537734482 51.22905027959496,251.13287417322863 52.28491620160639,250.93602467596065 52.963687151204795,250.54232550883899 53.49162011221051,249.95177632611012 54.01955307275057,249.75492648303043 56.81005586637184,247.3927238745964 57.4134078216739,246.31004490610212 58.31843575462699,245.32578978594393 59.97765363147482,244.3415332250297 61.33519553113729,244.0462559760781 62.99441340845078,244.0462559760781 66.53910614550114,243.75097859709058 70.76256983308122,243.75097859709058 73.10055865952745,243.55412693944527" stroke="#ffd100" stroke-linecap="round" stroke-linejoin="round" stroke-width="0.5"><title>2023-05-11 4.9km</title></polyline></svg>