<?xml version="1.0" encoding="utf-8" ?>
<svg baseProfile="full" height="300mm" version="1.1" viewBox="0,0,200,300" width="200mm" xmlns="http://www.w3.org/2000/svg" xmlns:ev="http://www.w3.org/2001/xml-events" xmlns:xlink="http://www.w3.org/1999/xlink"><defs /><rect fill="#222222" height="300" width="200" x="0" y="0" /><text fill="#FFFFFF" style="font-size:12px; font-family:Arial; font-weight:bold;" x="10" y="20">Over 3km Runs</text><text fill="#FFFFFF" style="font-size:4px; font-family:Arial" x="10" y="280">ATHLETE</text><text fill="#FFFFFF" style="font-size:9px; font-family:Arial" x="10" y="290">litianc</text><text fill="#FFFFFF" style="font-size:4px; font-family:Arial" x="120" y="280">STATISTICS</text><text fill="#FFFFFF" style="font-size:3px; font-family:Arial" x="120" y="285">Number: 5</text><text fill="#FFFFFF" style="font-size:3px; font-family:Arial" x="120" y="290">Weekly: 1.7</text><text fill="#FFFFFF" style="font-size:3px; font-family:Arial" x="141" y="285">Total: 24.1 km</text><text fill="#FFFFFF" style="font-size:3px; font-family:Arial" x="141" y="290">Avg: 4.8 km</text><text fill="#FFFFFF" style="font-size:3px; font-family:Arial" x="167" y="285">Min: 4.3 km</text><text fill="#FFFFFF" style="font-size:3px; font-family:Arial" x="167" y="290">Max: 5.1 km</text><polyline fill="none" points="85.86389414011501,74.13043551024748 85.25141776935197,71.73243783978978 84.09451795858331,69.15680015675025 81.71266540628858,64.80483578145504 80.41965973540209,61.78508705605054 79.94328922522254,60.98573928978294 78.17391304369085,58.854140098032076 75.99621928203851,56.90016759460559 71.84499054821208,53.88037953048479 71.1644612478558,53.081021350983065 70.34782608714886,52.459297594381496 69.93950850679539,51.92639101028908 69.25897920620628,51.39348395803245 68.0340264653787,50.94939439074369 64.35916824219748,49.261851069517434 62.93005671096034,48.64012339967303 61.63705104007386,47.84075831650989 60.95652173901908,47.6631214885856 58.09829867677763,47.130210692062974 56.805293005891144,46.68611800437793 55.98865784518421,46.06438769516535 55.30812854436226,45.17620043468196 54.7637051041238,44.73210631654365 54.21928166365251,44.55446857836796 52.586011342238635,44.64328745397506 51.97353497194126,44.73210631654365 50.34026465052739,45.97556902770884 49.86389414034784,46.15320635010721 48.70699432911351,46.419662235770375 48.0264650285244,46.15320635010721 46.2570888469927,46.15320635010721 44.487712665461004,46.68611800437793 39.65595463151112,47.6631214885856 37.61436672974378,48.55130510922754 35.16446124762297,49.35066925606225 33.599243856268004,50.061214280256536 28.018903591902927,54.05801453848835 26.79395085084252,54.41328439861536 26.045368620427325,54.946188798348885 23.595463138306513,57.610703778336756 22.43856332730502,59.2094071500469 21.826086956774816,59.83112399035599 19.71644612494856,62.93969863734674 18.423440454062074,65.3377310554497 16.177693761885166,70.40021281695226 15.293005671119317,73.5087333204574 14.340264650760219,78.1270772361313 14.0,79.01521626702743 14.0,80.3474223765661 14.340264650760219,82.12369263940491 14.612476370530203,82.74538600305095 15.224952741293237,83.27826552215265 16.31379962223582,83.63351827498991 20.5330812856555,84.78808828507317 22.234404537128285,84.96571424539434 24.275992438895628,84.78808828507317 25.228733459254727,84.96571424539434 26.31758034043014,85.40977891907096 27.134215500671417,86.20909451245097 27.882797731785104,87.63009741267888 28.495274102548137,88.42941008147318 31.353497164789587,91.27140215580584 32.714555765734985,92.24833385739475 37.478260869625956,94.91268504975596 38.22684310004115,95.001496554818 39.11153119103983,95.44555388455046 41.289224952925,95.7119881263352 42.78638941422105,95.5343653113814 43.67107750475407,95.26793099177303 46.937618147581816,93.40288747707382 50.34026465052739,90.91615387442289 51.29300567111932,90.38328106235713 51.83742911159061,89.76159552356694 52.31379962223582,88.87347222055541 52.99432892235927,87.9853476175922 54.69565217406489,87.1860343637527 58.9149338377174,86.56434554967564 61.97731569013558,86.47553280979628 63.474480151431635,86.65315827634186 70.07561436668038,86.29790729127126 70.7561436672695,86.0314689159859 71.84499054821208,85.23215308866929 73.81852551992051,83.1894523013616 74.9073724008631,82.47894606814953 78.17391304369085,82.21250601619249 79.39886578451842,82.47894606814953 79.94328922522254,82.03487924963702 80.41965973540209,81.94606584706344 81.16824196605012,82.3901327305357 83.34593572793528,82.30131937982515 84.29867674876004,82.12369263940491 84.97920604934916,81.6796255611116 85.45557655976154,81.32437166449381 85.93194706994109,80.25860872666817 86.0,78.9264024225995 85.72778827999718,76.61723790003452 85.1833648395259,73.95280637819087 85.11531190946698,72.44295665586833 84.16257088840939,68.97916956868721 83.61814744817093,67.73575399670517 82.4612476369366,65.78181009279797 80.75992438569665,63.294963297084905 78.5141776939854,60.63047327770619 77.08506616251543,58.49887283809949 75.72400756157003,57.34425280691357 74.77126654074527,56.18963057833025 73.68241966003552,55.12382349465042 71.70888468832709,53.52510935871396 70.48393194703385,52.1928443609504 69.66729678655975,51.482301832700614 64.08695652172901,48.90657819324406 60.95652173901908,47.84075831650989 56.73724007583223,46.77493656810839 56.1247637050692,46.419662235770375 55.920604914892465,46.15320635010721 55.71644612471573,45.26501921919407 55.376181474654004,44.64328745397506 54.69565217406489,44.28801187360659 52.04158790176734,44.46564968989696 51.565217391587794,44.64328745397506 50.74858223088086,45.442656749044545 50.204158790409565,45.709112947050016 41.49338374333456,47.30784767633304 39.04347826098092,47.92957671114709 36.457466918742284,48.64012339967303 33.87145557673648,49.79475999373244 31.761814745143056,50.94939439074369 29.924385633319616,52.28166211838834 29.17580340267159,52.459297594381496 28.018903591902927,53.16983897832688 26.18147448054515,54.5909192506806 24.684310019016266,56.54489919048501 23.86767485830933,57.69952074269531 22.91493383748457,58.32123913010582 21.009451795835048,60.097573869803455 17.538752363063395,67.02522966894321 17.062381852418184,67.73575399670517 15.905482041882351,71.46599306928692 15.224952741293237,73.15347464033403 14.408317580353469,76.35079527430935 14.068052930291742,79.19284391752444 14.0,82.30131937982515 14.204158790176734,82.83419928885996 14.612476370530203,83.36707872978877 15.429111531469971,83.81114457309013 16.926275992533192,84.34402315638727 21.689981096424162,84.87690127175301 24.275992438895628,84.87690127175301 25.84120982978493,85.1433401539689 27.20226843096316,86.29790729127126 27.950850661844015,87.71890998334857 29.99243856361136,90.29446888156235 31.08128544432111,91.09377804107498 32.44234404549934,92.42595763423014 33.32703213649802,93.04764044343028 34.96030245744623,93.6693226157222 38.63516068086028,94.20219254231779 41.765595463104546,94.29100415116409 43.534971644636244,94.20219254231779 46.05293005681597,93.49169920309214 47.89035916863941,92.24833385739475 49.319470699410886,91.71546221530298 50.88468809076585,90.47209323028801 51.36105860141106,90.02803226117976 52.44990548212081,88.25178513507126 53.40264650294557,87.45247223222395 54.7637051041238,86.91959637845866 57.1455576561857,86.91959637845866 58.778827977366745,86.47553280979628 60.27599243889563,86.56434554967564 61.70510396989994,86.29790729127126" stroke="#ff0000" stroke-linecap="round" stroke-linejoin="round" stroke-width="0.5"><title>2023-07-07 5.1km</title></polyline><polyline fill="none" points="164.7789473682642,86.18593116779812 161.2650717701763,86.5456018060213 159.06028708117083,86.36576651310315 154.7196172249969,86.81535464676563 153.47942583751865,87.53469497599872 151.68803827743977,89.78262807690771 149.9655502391979,91.49105173262069 148.72535885171965,92.30030338524375 147.34736842103302,93.1095539717935 145.4870813395828,93.91880349285202 143.213397129206,94.54821904975688 141.83540669851936,94.72805194742978 139.01052631577477,94.81796837650472 136.46124401921406,94.278469604149 132.94736842089333,92.83980389486533 132.25837320578285,92.48013694101246 131.7760765547864,91.76080240187002 130.74258373165503,91.04146702075377 129.15789473685436,89.24312488274882 127.5732057413552,86.18593116779812 127.02200956922024,85.64642481523333 126.12631578929722,85.10691798920743 125.02392344502732,84.65732860530261 120.33875598036684,84.56741068925476 116.06698564556427,83.93798490718473 115.37799043045379,83.5783127421164 115.03349282289855,83.21864036662737 114.89569377969019,82.76904960110551 114.75789473671466,80.52109083812684 115.1023923442699,78.09328613593243 115.65358851640485,74.94611761328997 116.75598086114042,70.80981446488295 117.6516746408306,68.83157267991919 118.68516746396199,66.22388059424702 119.16746411472559,65.23475311452057 123.16363636334427,59.29995479300851 123.99043062189594,58.4007379245013 127.5732057413552,54.89377956133103 130.19138755952008,52.7356413876405 132.46507177036256,51.47672395169502 133.9808612440247,50.84726426634006 134.87655502348207,50.30772687966237 138.6660287079867,48.77903504436836 142.79999999981374,47.520109500328545 149.0009569376707,46.44102840893902 150.31004784698598,46.53095190576278 150.93014354049228,46.89064576086821 152.58373205712996,48.329419074754696 154.1684210523963,48.689111876825336 155.06411483278498,48.689111876825336 155.61531100491993,48.41934229520848 156.30430621979758,47.879802776209544 156.92440191376954,47.61003283894388 157.88899521506391,47.43018614832545 159.19808612461202,47.520109500328545 162.57416267925873,48.689111876825336 166.9837320575025,50.487572727841325 171.39330143551342,53.00540907395771 174.01148325344548,54.983701820950955 175.73397129192017,56.512378216779325 179.59234449779615,60.738699044508394 180.76363636367023,62.537124621041585 183.79521531122737,67.66260863095522 184.6909090911504,69.73077428084798 185.44880382786505,72.06869228393771 186.0,72.33845148119144 186.0,71.88885275361827 185.7933014354203,71.61909335915698 185.17320574144833,69.91061444306979 183.1751196172554,65.7742773919017 182.07272727275267,64.15570313861826 181.65933014336042,63.34641441272106 180.48803827748634,61.547991205588914 178.28325358824804,58.760424829961266 177.52535885153338,58.13097260741051 174.97607655497268,55.34339072695002 172.0822966506239,53.18525413243333 166.5014354067389,49.678265996451955 163.81435406696983,48.41934229520848 160.36937799025327,47.16041601385223 157.61339712911285,46.53095190576278 156.5799043062143,45.991410728544 155.68421052629128,44.91232695203507 155.27081339713186,44.7324794716551 152.3081339711789,44.37278435291955 150.7234449761454,45.54179271851899 150.17224880377762,45.63171634700848 149.4143540665973,45.54179271851899 143.00669856439345,46.53095190576278 139.1483253587503,47.520109500328545 135.97894736845046,48.689111876825336 133.2918660286814,50.03795800858643 129.2267942582257,52.555796197615564 125.16172248800285,55.97284580557607 120.75215310975909,61.18830593244638 119.09856459335424,63.70609842246631 118.20287081296556,65.41459459299222 116.41148325335234,69.55093406612286 115.44688995182514,72.33845148119144 114.89569377969019,74.94611761328997 114.0,80.6110093468451 114.06889952113852,82.4093767516897 114.20669856434688,83.03880409977864 114.55119617213495,83.66823080304312 115.1023923442699,84.20773889264092 115.65358851640485,84.47749275993556 118.96076554991305,85.28675365040544 125.16172248800285,85.28675365040544 126.26411483250558,85.46658925933298 127.09090909082443,86.18593116779812 128.74449760769494,88.88345582346665 129.91578947356902,90.50196493195836 131.29377990425564,91.94063611567253 132.6028708133381,93.01963729260024 136.0478468898218,94.6381355051999 137.28803827730007,95.08771758526564 139.63062200928107,95.62721564708045 143.28229665057734,95.62721564708045 145.07368421042338,95.35746667539934 146.38277511973865,94.54821904975688 147.34736842103302,94.18855309585342 148.93205741629936,93.37930393073475 153.27272727247328,89.0632903794176" stroke="#ffff00" stroke-linecap="round" stroke-linejoin="round" stroke-width="0.5"><title>2023-05-17 4.3km</title></polyline><polyline fill="none" points="83.71214953251183,149.56144095258787 83.51028037373908,148.59542901808163 83.039252336137,147.54159604315646 81.22242990648374,144.64354581775842 79.80934579414316,142.09676285192836 78.6654205606319,140.86727755109314 77.79065420548432,139.4621484077652 76.04112149542198,137.70573235140182 75.43551401863806,136.7397013286245 74.62803738308139,135.77366875048028 72.74392523360439,134.1928848126554 72.67663551378064,133.92942041851347 73.08037383155897,133.40249128226424 73.61869158875197,133.92942041851347 74.22429906530306,134.71981325472007 73.08037383155897,133.92942041851347 73.4841121493373,133.139026540739 73.2149532707408,132.96338331524748 72.74392523360439,133.139026540739 71.93644859804772,133.84159892774187 71.73457943904214,133.84159892774187 69.11028037383221,131.90952288347762 67.89906542049721,131.29477011004928 66.0149532710202,129.7139743718435 64.87102803727612,129.01139715127647 60.90093457931653,127.69406264490681 57.401869158959016,126.7280155022163 56.12336448626593,126.02543478488224 55.3158878502436,124.97156216658186 55.04672897187993,124.88373936485732 53.8355140183121,124.6202708822093 52.48971962626092,124.70809372252552 51.54766355105676,124.97156216658186 50.74018691573292,125.93761213717517 50.26915887836367,126.20108004135545 48.856074766023085,126.3767252464313 45.02056074771099,126.3767252464313 43.13644859800115,126.6401929577114 39.36822429904714,127.69406264490681 38.15700934571214,128.13317446841393 32.43738317769021,130.85566060052952 31.226168224122375,131.55823566165054 27.794392523355782,133.92942041851347 25.439252336276695,135.94931115291547 23.487850467208773,137.8813741885242 21.26728971954435,140.60381608724128 19.31588785047643,143.58970590151148 17.633644860005006,146.6634004834341 16.55700934585184,149.2979833065765 15.00934579456225,154.3036588000832 14.672897196607664,155.00620640459238 14.0,159.92401660431642 14.0,161.50473275093827 14.336448597954586,163.0854447335587 14.672897196607664,163.700164935668 15.413084112340584,164.22706746472977 19.450467289891094,165.10523731791181 22.680373831884935,165.10523731791181 24.29532710253261,164.9296034501749 25.237383177503943,165.19305423286278 25.775700934696943,165.36868802341633 26.31401869165711,165.89558908739127 26.785046729026362,166.51030641025864 28.1308411215432,169.0569857538212 29.678504673065618,170.9011261171545 30.687850467162207,171.77928620303283 32.773831775644794,173.18433966691373 34.99439252354205,174.23812760575674 37.753271027933806,175.0284673453425 39.50280373822898,175.204098257469 41.11775700957514,175.1162828077213 42.12710280367173,175.3797291177907 44.616822429932654,174.85283638210967 46.90467289718799,173.79904952284414 48.31775700929575,172.92089239315828 50.403738317778334,171.4280223226524 51.4803738319315,170.4620455924305 52.893457943573594,168.44227103964658 53.76822429918684,167.8275556959561 54.77757009328343,167.30065632873448 57.80560747673735,167.12502310349373 61.439252336509526,167.03720647178125 64.60186915867962,166.68593981553568 69.85046728956513,166.51030641025864 70.79252336430363,166.15903944562888 72.94579439260997,164.75396953086602 74.56074766349047,163.26107914117165 77.11775700910948,162.82199302566005 83.57757009333,162.38290658884216 84.65420560748316,162.1194545723265 85.461682242807,161.59255019266857 86.0,160.53874004509998 85.93271028017625,158.782385686005 85.19252336444333,154.3914772956632 84.31775700929575,150.8787274477072 82.97196261701174,147.71723500086227 80.88598130829632,143.67752596532227 80.2803738315124,142.71150455757743 78.46355140162632,140.51599557383452 78.05981308384798,139.72561037295964 77.25233644829132,138.5839410223416 74.22429906530306,135.3345625186339 72.8112149531953,134.36852767830715 72.13831775682047,133.57813437882578 69.9850467289798,132.17298816505354 69.3121495328378,131.47041382384486 67.76448598131537,130.68001670675585 66.28411214938387,129.45050801028265 64.80373831745237,128.8357527172775 61.37196261668578,127.95752977754455 59.48785046720877,127.34277295484208 57.199999999953434,126.7280155022163 56.25794392521493,126.20108004135545 55.45046728965826,124.88373936485732 54.84485981287435,124.70809372252552 52.69158878503367,124.79591655009426 52.08598130871542,124.97156216658186 50.672897196374834,125.93761213717517 49.99999999976717,126.20108004135545 44.347663551336154,126.46454782952787 38.22429906553589,128.13317446841393 35.60000000032596,129.27486370527185 32.63925233646296,130.76783866010373 30.216822429792956,132.52427502692444 29.745794392423704,132.6120967104216 28.265420560957864,133.49031283700606 26.04485981282778,135.15891993633704 23.55514018703252,137.79355327627854 20.728971962584183,141.30637973349076 18.979439252289012,144.64354581775842 18.104672897374257,145.8730233804672 17.431775700766593,147.4537765449495 16.826168224215508,148.41979031747906 16.0186915891245,150.26399410993326 15.74953271029517,151.14218439965043 14.471028037369251,156.49911733315093 14.0,160.97782783128787 14.0,162.558541202161 14.336448597954586,163.26107914117165 14.807476635556668,163.78798205580097 15.614953270880505,164.22706746472977 16.75887850462459,164.49051855545258 19.652336448663846,165.0174203905044 24.968224299140275,164.9296034501749 25.775700934696943,165.2808711346006 27.12149532721378,166.5981231193873 27.996261682128534,168.26663814875064 29.072897196514532,169.84733231784776 30.418691588798538,171.3402063206304 31.966355139855295,172.56962918117642 32.975700934417546,173.27215539902681 34.99439252354205,174.15031201497186 39.36822429904714,175.204098257469 41.92523364513181,175.204098257469 43.67476635496132,174.94065187027445 45.22242990625091,174.5015743012773 46.63551401859149,173.9746807946358 50.134579439414665,171.51583831215976 51.413084112107754,170.4620455924305 52.422429906670004,168.9691694045323 53.162616822402924,168.17882168397773 54.50841121491976,167.3884729220299 58.209345794282854,166.9493898267392 60.49719626153819,167.03720647178125 62.179439252242446,166.8615731690661" stroke="#ff2700" stroke-linecap="round" stroke-linejoin="round" stroke-width="0.5"><title>2023-05-15 5.0km</title></polyline><polyline fill="none" points="186.0,164.55113617278403 185.5970149252098,164.46348296740325 182.37313432828523,164.55113617278403 181.16417910461314,164.0252167476574 181.23134328331798,163.76225686213002 181.56716417893767,163.4992968608276 184.05223880615085,162.35980218858458 184.85820895526558,161.83388083946193 185.39552238816395,161.2203053482226 186.0,159.90549860760802 185.865671641659,157.53883920056978 184.92537313420326,153.5943860722473 184.52238805941306,151.49066711438354 183.8507462684065,149.29928534221835 182.7089552236721,147.10789555095835 182.30597014911473,146.0560256029712 180.89552238793112,143.5139989349991 179.8208955223672,141.76087080821162 178.74626865633763,140.53367806581082 177.53731343266554,138.78054121433524 174.1119402984623,135.36190959252417 172.5,133.95938840991585 165.98507462674752,129.22585516812978 165.17910447739996,128.87522158771753 162.2238805971574,128.1739538112306 160.41044776095077,127.56034383305814 158.865671641659,127.29736793547636 157.3880597015377,126.8590745163383 156.51492537301965,126.33312199020293 155.70895522390492,125.36887449241476 155.23880596994422,125.01823865371989 153.96268656710163,124.84292065753834 152.41791044780985,124.93057966197375 151.81343283574097,125.10589763271855 150.80597014911473,125.89482786564622 149.12686567148194,126.68375705915969 145.5,126.59609831130365 140.26119402959011,127.56034383305814 138.91791044780985,127.9986367385718 136.4328358208295,129.22585516812978 134.61940298508853,129.83946343977004 132.80597014911473,130.62838743667817 128.57462686533108,133.4334421196836 126.69402985065244,134.92362207581755 123.60447761183605,137.90397086396115 121.25373134342954,140.7089914685348 120.38059701467864,142.3744662362733 117.76119402982295,146.40664912451757 116.08208955242299,150.7017705999897 115.07462686556391,153.68204086855985 114.73880596994422,155.96106106665684 114.26865671621636,157.80180181888863 114.0,159.9931524801068 114.06716417893767,162.79806962696603 114.40298507432453,163.58695020753657 115.27611940307543,164.37582974898396 116.7537313431967,164.7264425448957 119.30597014934756,164.98940200731158 120.2462686568033,165.07705513585825 121.25373134342954,164.90174886619207 122.39552238816395,164.90174886619207 125.41791044780985,165.25236135412706 126.29104477586225,166.04123870207695 129.51492537301965,170.16091463633347 131.19402985088527,172.00161174539244 133.0074626863934,173.31639193103183 134.4850746265147,174.10525865713134 137.10447761183605,174.98177602310898 138.58208955219015,175.15707934240345 142.6119402984623,174.8941243442241 144.35820895526558,174.63116923061898 145.63432835787535,174.36821400170447 147.2462686568033,173.75465135171544 148.85820895526558,172.70282820350258 151.27611940307543,170.86213324958226 152.41791044780985,169.54734767612536 152.82089552213438,168.75847494631307 153.82835820876062,167.88194847258274 155.8432835820131,167.09307354915654 158.26119402959011,166.91776786977425 161.61940298508853,167.00542071583914 163.97014925372787,166.74246213881997 168.47014925372787,166.83011501078727 170.08208955219015,166.56715635652654 171.2238805964589,166.04123870207695 174.85074626863934,162.88572307600407 175.65671641775407,162.71041616500588 178.0074626863934,162.71041616500588 179.8208955223672,162.62276269018184 180.69402985065244,162.4474557019421 182.37313432828523,162.4474557019421 183.71641791029833,162.2721486624796 184.2537313431967,162.18449512368534 184.92537313420326,161.92153442988638 185.4626865668688,161.2203053482226 185.66417910414748,160.95734423119575 185.865671641659,159.90549860760802 185.79850746295415,157.27587646699976 185.32835820876062,155.08451586304 184.85820895526558,153.7696956518339 184.72388059692457,152.7178374044015 183.8507462684065,149.64990696444875 182.91044776095077,147.28320702939527 181.63432835787535,144.91649774136022 179.9552238804754,142.1114968440961 178.2089552236721,139.83242394099943 174.51492537278682,135.6248819483444 171.08955223858356,132.81983753031818 168.87313432828523,131.68028448265977 166.72388059692457,129.83946343977004 166.11940298508853,129.40117188135628 163.16417910461314,128.7875631606439 157.72388059692457,126.8590745163383 156.91791044780985,126.50843955035089 155.70895522390492,125.2812155521824 154.83582089538686,124.93057966197375 152.21641791029833,125.01823865371989 150.60447761183605,126.07014555402566 149.4626865668688,126.33312199020293 149.12686567148194,126.50843955035089 144.02238805987872,126.77141579409363 142.54477611905895,127.03439192264341 139.3880597015377,127.91097818303388 133.3432835820131,130.45307108276756 128.30597014934756,133.52109986677533 125.55223880568519,135.6248819483444 123.40298507432453,137.90397086396115 121.25373134342954,140.53367806581082 117.96268656710163,146.1436815026682 116.82089552236721,148.59804148116382 114.94029850768857,154.7338974220911 114.47014925372787,156.83760498743504 114.0,160.25611402076902 114.0,162.4474557019421 114.13432835787535,163.14868334669154 114.47014925372787,163.67460354114883 115.34328358178027,164.28817651810823 117.08955223858356,164.90174886619207 119.17164179100655,165.1647082514246 122.9328358208295,164.98940200731158 124.3432835820131,165.07705513585825 125.68656716379337,165.42766752140597 126.89552238793112,166.30419758684002 127.29850746248849,166.74246213881997 128.03731343266554,168.2325592158595 129.2462686568033,170.07326225179713 129.91791044780985,170.94978551834356 132.60447761160322,173.14108807320008 135.29104477586225,174.36821400170447 137.30597014934756,174.98177602310898 138.85074626863934,175.15707934240345 141.20149253727868,175.15707934240345 143.14925373112783,175.06942768907174 145.43283582059667,174.63116923061898 146.77611940307543,174.10525865713134 148.05223880615085,173.14108807320008 149.66417910414748,172.17691593675409 150.67164179100655,171.3880466709379 152.7537313431967,168.8461275229929 153.89552238793112,167.96960117761046 154.90298507455736,167.35603197250748 159.26865671621636,167.00542071583914 166.3880597015377,166.91776786977425 168.26865671621636,166.65480925422162" stroke="#ff4a00" stroke-linecap="round" stroke-linejoin="round" stroke-width="0.5"><title>2023-05-14 4.9km</title></polyline><polyline fill="none" points="83.38547486043535,244.91774171160068 83.11731843603775,244.6552720469772 82.44692737446167,244.74276194808772 81.64245810057037,244.6552720469772 80.56983240228146,243.69288229057565 80.43575418996625,243.34292199509218 80.7709497208707,242.99296149471775 82.11173184379004,242.81798116781283 84.39106145268306,242.2930398794124 85.46368715097196,241.50562708242796 86.0,240.45574173989007 86.0,239.84330777189462 85.66480446932837,238.3559655227 85.59776536352001,237.48105658887653 83.65363128506579,229.95678689627675 82.9832402234897,227.94446615932975 79.49720670399256,221.81997005915036 78.3575418998953,220.7700501413783 77.7541899443604,219.80762192979455 74.8044692738913,216.3078699169564 73.32960893888958,214.99545762926573 72.25698324036784,214.0330201202887 67.69832402234897,211.14569829544052 66.55865921778604,210.1832545878715 64.61452513979748,209.04581911751302 63.00558659248054,208.6958385373 59.050279329763725,207.38340953632724 56.97206703922711,206.85843712912174 56.10055865929462,206.42095977102872 55.02793296100572,205.02103007317055 54.156424581073225,204.84603863029042 51.60893854801543,205.10852577519836 50.067039106274024,206.24596873798873 48.99441340798512,206.50845526810735 43.63128491630778,206.50845526810735 40.01117318472825,207.47090489283437 38.469273743452504,207.47090489283437 38.5363128494937,207.29591416730545 38.20111731882207,207.29591416730545 36.92737430194393,207.90838148258626 37.53072625701316,207.5584002363612 38.067039106274024,207.47090489283437 38.20111731882207,207.99587676196825 38.00000000046566,208.43335296749137 37.664804469794035,208.6958385373 36.92737430194393,208.78333370143082 35.854748603655025,209.2208093305817 31.966480447212234,211.058203477005 30.49162011197768,212.02064577583224 29.62011173204519,212.72060283785686 27.675977654056624,213.94552572455723 26.670391061576083,214.99545762926573 24.458100559189916,216.83283402503002 22.71508379932493,218.6702047730796 21.30726257013157,220.5075698737055 20.033519553486258,221.90746330231195 19.229050279594958,223.2198604142759 18.558659218484536,224.5322546447278 17.821229050401598,226.45709430403076 16.547486033756286,228.90688127011526 15.474860335467383,232.49405121349264 15.00558659248054,233.71893358114175 14.536312849726528,235.64374365931144 14.469273743452504,236.86861957312794 14.134078212780878,238.44345634564525 14.0,240.1932701159385 14.0,242.81798116781283 14.335195530904457,243.430412088288 15.00558659248054,243.9553523780196 16.078212290769443,244.3928022669861 19.29608938586898,245.00523157406133 23.988826815970242,245.00523157406133 25.19553072657436,245.18021126108943 26.40223463717848,246.05510892666643 26.871508380165324,246.5800469115493 27.6089385477826,247.89238985662814 29.21787709533237,250.07962169655366 30.89385474892333,252.0043790959753 34.17877095006406,254.01661884208443 36.52513966499828,254.97899197827792 37.93296089395881,255.24145711032907 39.47486033546738,255.24145711032907 40.48044692748226,255.0664803686086 42.960893855197355,255.0664803686086 45.44134078244679,254.3665728889755 47.653631285065785,253.2292214873014 50.469273743219674,251.30446803127415 51.60893854801543,250.25459989812225 52.6815642460715,248.59230491623748 53.553072625771165,247.80490041675512 54.759776536375284,247.27996350743342 55.6983240225818,247.01749488001224 58.91620111768134,247.01749488001224 60.458100558724254,246.84251573093934 67.29608938563615,246.84251573093934 68.70391061459668,246.75502613710705 70.37988826818764,246.31757797684986 71.45251396670938,245.705150014197 73.39664804493077,244.04284238134278 73.79888268187642,243.60539223608794 74.87150838016532,243.0804516390781 78.82681564264931,242.99296149471775 82.64804469281808,242.55551058106357 84.45810055895709,242.11805934738368 85.19553072657436,241.68060779356165 85.46368715097196,241.33064632001333 85.66480446932837,240.89319418981904 85.79888268187642,240.28076066984795 85.19553072657436,237.48105658887653 84.9273743017111,234.94381343881832 84.12290502805263,231.88160908856662 82.64804469281808,227.6819890422048 80.70391061459668,223.83231141383294 79.76536312885582,222.34492932638386 78.02234636875801,220.0701025047456 77.48603351972997,219.10767316666897 76.61452514003031,218.05774848459987 74.20111731858924,215.78290534764528 69.97765363147482,212.37062440929003 68.70391061459668,211.49567744124215 65.28491620137356,209.65828463976504 63.20670391083695,208.87082885275595 62.0,208.25836252368754 59.58659217879176,207.5584002363612 57.843575419159606,207.20841878518695 56.7709497208707,206.77094168320764 55.83240223512985,206.15847320243483 55.29608938563615,205.1960214645951 54.8938547486905,204.93353435822064 54.29050279338844,204.75854288961273 51.8770949721802,204.93353435822064 51.27374301687814,205.1960214645951 50.67039106157608,205.80849093163852 49.53072625747882,206.33346426102798 48.39106145268306,206.50845526810735 46.91620111744851,206.15847320243483 43.564245810499415,206.59595075249672 41.08379888278432,207.20841878518695 36.256983240600675,208.6958385373 30.826815642649308,211.58317219582386 29.888268156675622,212.1956351182307 27.273743017110974,214.0330201202887 24.32402234664187,216.65784604032524 22.11173184379004,219.10767316666897 21.039106145501137,221.0325302934507 20.368715084157884,221.73247680295026 19.094972067512572,223.5698324906407 17.553072626003996,226.19461653387407 16.61452513979748,228.55691231816309 16.4134078216739,229.3443421717966 15.474860335467383,231.7066255089594 14.469273743452504,236.4311641777167 14.20111731858924,238.18098383845063 14.067039106506854,240.71821324829943 14.134078212780878,242.2930398794124 14.268156424863264,242.90547133766813 14.938547485973686,243.7803723323159 15.541899441508576,244.13033237215132 18.357541899662465,244.91774171160068 21.240223463624716,245.09272142412374 22.379888268420473,245.00523157406133 24.659217877313495,245.00523157406133 25.329608938889578,245.18021126108943 26.938547486439347,246.40506763441954 28.346368715167046,249.1172406731057 30.960893855197355,251.74191254295874 34.245810056105256,253.92913029843476 36.18994413455948,254.80401515978156 37.79888268187642,255.15396874590078 42.8938547486905,254.80401515978156 44.97206703922711,254.1915958909667 46.648044693050906,253.2292214873014 47.58659217925742,253.054244156403 48.18994413432665,252.704289341229 48.659217877313495,252.17935673432657 49.12849162030034,252.0043790959753 51.60893854801543,249.90464344405336 52.14525139704347,248.9422621387639 52.949720670701936,248.06736869859742 54.42458100593649,247.19247397780418 55.63128491630778,246.93000531208236 57.10614525177516,246.93000531208236 60.256983240367845,246.66753653076012 64.01117318472825,246.66753653076012 66.08938547526486,246.49255727947457" stroke="#ff4400" stroke-linecap="round" stroke-linejoin="round" stroke-width="0.5"><title>2023-05-11 4.9km</title></polyline></svg>