<?xml version="1.0" encoding="utf-8" ?>
<svg baseProfile="full" height="200mm" version="1.1" viewBox="0,0,200,200" width="200mm" xmlns="http://www.w3.org/2000/svg" xmlns:ev="http://www.w3.org/2001/xml-events" xmlns:xlink="http://www.w3.org/1999/xlink"><defs /><rect fill="#1a1a1a" height="200" width="200" x="0" y="0" /><text alignment-baseline="middle" fill="#e1ed5e" style="dominant-baseline: central; font-size:9.0px; font-family:Arial;" text-anchor="middle" x="100.0" y="100.0">2024</text><line stroke="#e1ed5e" stroke-width="0.3" x1="100.0" x2="100.0" y1="15.0" y2="10.0" /><path d="M 100.0 14.0 a86.0,86.0 0 0,1 42.35913384403234,11.155469271406648" fill="none" id="id13" stroke="none" /><text fill="#e1ed5e" style="font-size:6.75px; font-family:Arial;" text-anchor="middle"><textPath startOffset="22.145653131862478" xlink:href="#id13">January</textPath></text><line stroke="#e1ed5e" stroke-width="0.3" x1="143.13028292997686" x2="145.6673583964461" y1="26.7553504044142" y2="22.446841604673864" /><path d="M 143.63769802327073 25.89364864446614 a86.0,86.0 0 0,1 29.32050498858742,28.57503671076993" fill="none" id="id14" stroke="none" /><text fill="#e1ed5e" style="font-size:6.75px; font-family:Arial;" text-anchor="middle"><textPath startOffset="20.669276256404974" xlink:href="#id14">February</textPath></text><line stroke="#e1ed5e" stroke-width="0.3" x1="172.87174338648825" x2="177.1583165268699" y1="56.24261187166439" y2="53.66864786411523" /><path d="M 173.72905801456457 55.72781907015455 a86.0,86.0 0 0,1 12.242430191666344,42.057860355516425" fill="none" id="id15" stroke="none" /><text fill="#e1ed5e" style="font-size:6.75px; font-family:Arial;" text-anchor="middle"><textPath startOffset="22.145653131862474" xlink:href="#id15">March</textPath></text><line stroke="#e1ed5e" stroke-width="0.3" x1="184.99686870605535" x2="189.99668451229388" y1="99.2704041080226" y2="99.22748670261217" /><path d="M 185.99683186730306 99.26182062694052 a86.0,86.0 0 0,1 -10.086455211305974,41.156179273409016" fill="none" id="id16" stroke="none" /><text fill="#e1ed5e" style="font-size:6.75px; font-family:Arial;" text-anchor="middle"><textPath startOffset="21.40746469413373" xlink:href="#id16">April</textPath></text><path d="M 120.86939407059847 102.33845913500097 l 53.836636237419775 6.032507382880085 a75.17355947955389,75.17355947955389 0 0,0 -0.15470687662578111,1.281194869805075 l -53.72514727453433 -6.955795929608568" fill="#3aff94" stroke="none" /><line stroke="#e1ed5e" stroke-width="0.3" x1="174.33088141563837" x2="178.70328620479359" y1="141.23008692659167" y2="143.65538615756765" /><path d="M 175.20536237346943 141.71514677278685 a86.0,86.0 0 0,1 -30.301960400862466,31.631185727798858" fill="none" id="id17" stroke="none" /><text fill="#e1ed5e" style="font-size:6.75px; font-family:Arial;" text-anchor="middle"><textPath startOffset="22.145653131862474" xlink:href="#id17">May</textPath></text><path d="M 117.62189284568427 111.42229804090321 l 40.12127388972758 26.006125003842147 a68.8125,68.8125 0 0,0 -0.6510172403222616,0.9857230772282554 l -39.6689322104846 -26.69102795940946" fill="#45ff2d" stroke="none" /><path d="M 117.21940702142032 112.02048342749411 l 33.551781392241715 23.421749174442855 a61.9182156133829,61.9182156133829 0 0,0 -0.6158943032191495,0.8663324680344311 l -33.14477199049261 -23.99425886918679" fill="#c3ff1e" stroke="none" /><path d="M 115.89218393027572 113.72728997021213 l 46.067183323910285 39.79173575970974 a81.87337360594795,81.87337360594795 0 0,0 -0.9278550987905132,1.0557287784123637 l -45.37731716116118 -40.576676815933396" fill="#48f4ff" stroke="none" /><path d="M 115.41159269507618 114.26474011684316 l 46.23477808522855 42.794220350529464 a84.0,84.0 0 0,0 -0.9885766650549601,1.0498341602220114 l -45.49334558643733 -43.58159597069598" fill="#4dd2ff" stroke="none" /><path d="M 115.16444852881244 114.52719865689866 l 45.460125538544936 43.54977191628295 a83.95399628252787,83.95399628252787 0 0,0 -1.0059015981342896,1.0321436547799159 l -44.70583713925984 -44.32373826313061" fill="#4dd3ff" stroke="none" /><path d="M 114.91283532996324 114.78537596483092 l 42.21112490934034 41.85034823183919 a80.44098513011151,80.44098513011151 0 0,0 -0.9806448640958999,0.9722633344248227 l -41.48648812511448 -42.56879157649267" fill="#45fff2" stroke="none" /><path d="M 114.39649973595853 115.28858382429668 l 31.873185255838603 33.84821821057611 a67.49302973977694,67.49302973977694 0 0,0 -0.8503164910936188,0.7870402496681387 l -31.287438993431017 -34.39037620637662" fill="#5cff2a" stroke="none" /><path d="M 114.13192950727249 115.5334660781643 l 37.44811219273123 41.16203524350521 a76.64776951672862,76.64776951672862 0 0,0 -0.9808541088155227,0.877085792349417 l -36.73599305709233 -41.79881656573801" fill="#3dffb0" stroke="none" /><path d="M 113.59037401385872 116.0094264158162 l 31.792218870245264 37.45115388875165 a70.12569702602231,70.12569702602231 0 0,0 -0.9244091795995163,0.7711750153736882 l -31.144635356483853 -37.99139108803721" fill="#2fff30" stroke="none" /><path d="M 113.31354834802062 116.24036423190432 l 29.553797131149466 36.05082711980647 a67.6164033457249,67.6164033457249 0 0,0 -0.903964435745752,0.7281697611518619 l -28.93058192504846 -36.55284517475174" fill="#59ff2a" stroke="none" /><path d="M 111.5731344415666 117.5232005979908 l 27.63446932177049 41.842108703513595 a71.14405204460967,71.14405204460967 0 0,0 -1.0248618058547376,0.6643030405259851 l -26.91212188365874 -42.31032558574348" fill="#32ff45" stroke="none" /><line stroke="#e1ed5e" stroke-width="0.3" x1="143.1302829299769" x2="145.66735839644613" y1="173.24464959558577" y2="177.55315839532614" /><path d="M 143.63769802327073 174.10635135553383 a86.0,86.0 0 0,1 -40.68552437913181,11.842963189579606" fill="none" id="id18" stroke="none" /><text fill="#e1ed5e" style="font-size:6.75px; font-family:Arial;" text-anchor="middle"><textPath startOffset="21.407464694133747" xlink:href="#id18">June</textPath></text><path d="M 107.407793817531 119.65005319985036 l 18.361877140845635 48.70706063833064 a73.05320631970261,73.05320631970261 0 0,0 -1.1772379773826975,0.4322980917400055 l -17.52305001180881 -49.01508957907937" fill="#36ff6b" stroke="none" /><path d="M 107.06938296918513 119.77432235084164 l 14.192734276225814 39.69960374777641 a63.16031598513011,63.16031598513011 0 0,0 -1.024082048988064,0.356228896416282 l -13.509146455192727 -39.93739107676128" fill="#abff21" stroke="none" /><path d="M 104.29559338865022 120.5559693870025 l 10.480346774632327 50.152253244855494 a72.23559479553901,72.23559479553901 0 0,0 -1.215977934761173,0.24322964240045844 l -9.617872354340195 -50.32477228391881" fill="#34ff5b" stroke="none" /><path d="M 102.875027216393 120.80226474461374 l 5.638881878779813 40.80014026898468 a62.18796468401487,62.18796468401487 0 0,0 -1.0587417421908827,0.13707531527472736 l -4.937662314698155 -40.8909271804598" fill="#beff1f" stroke="none" /><path d="M 102.15924093988457 120.88869738790638 l 5.999977861300319 58.04434306693924 a79.35362453531599,79.35362453531599 0 0,0 -1.35619288060507,0.12843287582172253 l -5.002685417310234 -58.13878769826615" fill="#43ffe0" stroke="none" /><path d="M 101.80034050326958 120.92268563240118 l 4.01509156781686 46.66145015688622 a67.83387546468401,67.83387546468401 0 0,0 -1.1610284784077545,0.08987094708604533 l -3.2134940946338704 -46.72349887096732" fill="#56ff2b" stroke="none" /><path d="M 101.44090949804482 120.95050786540614 l 3.079484919994944 44.77503488268838 a65.88080855018588,65.88080855018588 0 0,0 -1.1289324306125794,0.06791377163912675 l -2.3104081372498997 -44.8213006321522" fill="#78ff26" stroke="none" /><path d="M 101.08105385017728 120.97215588758144 l 1.3833599670036085 26.836813792283827 a47.87244423791821,47.87244423791821 0 0,0 -0.8210676757891139,0.035260178835153554 l -0.9224665306136652 -26.85660653954481" fill="#ff0000" stroke="none" /><line stroke="#e1ed5e" stroke-width="0.3" x1="101.45913802915013" x2="101.54496967792366" y1="184.9874750549273" y2="189.98673829345242" /><path d="M 101.47630435890484 185.9873277026323 a86.0,86.0 0 0,1 -42.54439059252881,-10.42667462771756" fill="none" id="id19" stroke="none" /><text fill="#e1ed5e" style="font-size:6.75px; font-family:Arial;" text-anchor="middle"><textPath startOffset="22.145653131862474" xlink:href="#id19">July</textPath></text><path d="M 100.36049292484886 120.99690560180557 l 0.8039298537820252 46.82488361571005 a67.8317843866171,67.8317843866171 0 0,0 -1.1644227786308718,0.009995169101487912 l -5.735239484742963e-15 -46.8317843866171" fill="#56ff2b" stroke="none" /><path d="M 99.27912038922189 120.98762331915562 l -1.6512660548001403 48.07480949620177 a69.10315985130111,69.10315985130111 0 0,0 -1.1851989542629064,-0.05089754269328709 l 2.4762907696638856 -48.03937938508266" fill="#40ff2d" stroke="none" /><path d="M 98.55909050195518 120.95050786540614 l -3.269881252699295 47.543355773958346 a68.6556691449814,68.6556691449814 0 0,0 -1.1750941035790223,-0.0909597154315323 l 4.085544351053554 -47.480218291531756" fill="#47ff2c" stroke="none" /><path d="M 98.19965949673042 120.92268563240118 l -3.885121420624511 45.15100003572076 a66.31784386617099,66.31784386617099 0 0,0 -1.1334049104253883,-0.10733462341392729 l 4.659625894434915 -45.07765365680165" fill="#70ff27" stroke="none" /><path d="M 97.84075906011543 120.88869738790638 l -4.800240297118584 46.43797044766307 a67.68540892193309,67.68540892193309 0 0,0 -1.154726285818932,-0.12938948885455684 l 5.596702484538315 -46.348725198301544" fill="#58ff2a" stroke="none" /><path d="M 97.48249496171623 120.84855314841334 l -5.964200730634039 49.392137862491715 a70.75092936802973,70.75092936802973 0 0,0 -1.2045250652813608,-0.15594988513259758 l 6.811203617806194 -49.282476381158716" fill="#31ff3d" stroke="none" /><path d="M 97.12497278360702 120.80226474461374 l -6.651172396288304 48.1245701817191 a69.58201672862454,69.58201672862454 0 0,0 -1.1818170699184027,-0.1736864111720813 l 7.476314571814393 -48.00330269724814" fill="#38ff2e" stroke="none" /><path d="M 96.76829788921471 120.74984581791261 l -7.2259563427061595 46.39582327149774 a67.95515799256506,67.95515799256506 0 0,0 -1.151103737216134,-0.18941368191256652 l 8.021337582975356 -46.264943591089505" fill="#54ff2b" stroke="none" /><path d="M 96.41257539226777 120.69131181640829 l -8.358908904102574 48.2119652652636 a69.93122676579925,69.93122676579925 0 0,0 -1.1810560559044587,-0.21522775643301634 l 9.18529969355809 -48.06136933489922" fill="#32ff2f" stroke="none" /><path d="M 95.70440661134978 120.55596938700252 l -10.211729609728673 48.86682287028326 a70.92239776951672,70.92239776951672 0 0,0 -1.189596857043377,-0.2592670982107712 l 11.049088883391185 -48.68432431393877" fill="#31ff41" stroke="none" /><path d="M 95.35216902796893 120.47920084513623 l -10.172066874761454 44.82000352249562 a66.95980483271376,66.95980483271376 0 0,0 -1.1187639289357962,-0.2640252409926035 l 10.939962957437137 -44.638782137856786" fill="#65ff29" stroke="none" /><path d="M 93.61358852112213 120.00534299687104 l -15.587227671147327 48.82676867329121 a72.25441449814126,72.25441449814126 0 0,0 -1.1783568604851717,-0.3873493051827218 l 16.42310726928024 -48.55199844670647" fill="#34ff5c" stroke="none" /><line stroke="#e1ed5e" stroke-width="0.3" x1="58.13341422392154" x2="55.67067388415222" y1="173.97424548756322" y2="178.32567169271397" /><path d="M 57.64086615596768 174.84453072859336 a86.0,86.0 0 0,1 -31.369924170532247,-30.572349798747897" fill="none" id="id20" stroke="none" /><text fill="#e1ed5e" style="font-size:6.75px; font-family:Arial;" text-anchor="middle"><textPath startOffset="22.145653131862474" xlink:href="#id20">August</textPath></text><line stroke="#e1ed5e" stroke-width="0.3" x1="26.387840678322732" x2="22.057713659400548" y1="142.50000000000003" y2="145.00000000000006" /><path d="M 25.521815274538298 143.00000000000003 a86.0,86.0 0 0,1 -11.493303480769221,-40.785679425670985" fill="none" id="id21" stroke="none" /><text fill="#e1ed5e" style="font-size:6.75px; font-family:Arial;" text-anchor="middle"><textPath startOffset="21.40746469413373" xlink:href="#id21">September</textPath></text><line stroke="#e1ed5e" stroke-width="0.3" x1="15.003131293944662" x2="10.003315487706104" y1="100.72959589197737" y2="100.7725132973878" /><path d="M 14.003168132696942 100.73817937305945 a86.0,86.0 0 0,1 10.791469493833604,-42.45332614584628" fill="none" id="id22" stroke="none" /><text fill="#e1ed5e" style="font-size:6.75px; font-family:Arial;" text-anchor="middle"><textPath startOffset="22.145653131862435" xlink:href="#id22">October</textPath></text><line stroke="#e1ed5e" stroke-width="0.3" x1="26.387840678322718" x2="22.05771365940052" y1="57.49999999999999" y2="54.99999999999999" /><path d="M 25.521815274538284 56.99999999999999 a86.0,86.0 0 0,1 29.574782752854787,-30.34633250058573" fill="none" id="id23" stroke="none" /><text fill="#e1ed5e" style="font-size:6.75px; font-family:Arial;" text-anchor="middle"><textPath startOffset="21.40746469413373" xlink:href="#id23">November</textPath></text><line stroke="#e1ed5e" stroke-width="0.3" x1="56.869717070023135" x2="54.33264160355391" y1="26.7553504044142" y2="22.446841604673864" /><path d="M 56.362301976729285 25.89364864446614 a86.0,86.0 0 0,1 42.16139366436587,-11.88097634709845" fill="none" id="id24" stroke="none" /><text fill="#e1ed5e" style="font-size:6.75px; font-family:Arial;" text-anchor="middle"><textPath startOffset="22.145653131862474" xlink:href="#id24">December</textPath></text></svg>